<svg xmlns="http://www.w3.org/2000/svg" xmlns:xlink="http://www.w3.org/1999/xlink" width="48" height="48">
  <defs id="acyl-settings">
    <linearGradient id="acyl-gradient" x1="0%" x2="0%" y1="0%" y2="100%">
      <stop offset="100%" style="stop-color:#A0A0A0;stop-opacity:1.000000"/>
    </linearGradient>
    <g id="acyl-filter">
      <filter/>
    </g>
    <g id="acyl-drawing">
      <path d="M 41.146967,5.9604087 C 40.982756,5.8310903 40.773482,5.7740041 40.567619,5.8101863 40.361757,5.846367 40.178803,5.9723935 40.06853,6.1499553 L 36.767929,11.360738 34.599683,12.064217 32.821778,10.897623 32.476261,8.7094479 35.745562,3.4650884 C 35.878614,3.2596658 35.898272,3.009982 35.80188,2.7850141 35.705491,2.5600433 35.505714,2.3893472 35.265205,2.3439799 31.878753,1.8491968 28.225898,3.5568908 26.416986,6.4508952 24.608074,9.3448996 24.829393,12.37703 26.148089,15.048287 l -15.32732,24.016501 c -1.3261935,2.121726 -0.684542,4.92759 1.437185,6.253784 2.121726,1.326194 4.961164,0.653238 6.28736,-1.468485 L 33.805482,19.896188 c 2.991919,0.02769 5.976891,-1.299961 7.675878,-4.018098 1.925952,-3.081253 1.750593,-6.9224646 -0.177885,-9.7498011 -0.04305,-0.063815 -0.09586,-0.1204653 -0.156508,-0.1678802 z" id="path-main" />
    </g>
  </defs>
  <g id="acyl-visual">
    <use id="visible1" style="fill:url(#acyl-gradient);filter:url(#filter)" xlink:href="#acyl-drawing"/>
  </g>
</svg>
