<svg xmlns="http://www.w3.org/2000/svg" xmlns:xlink="http://www.w3.org/1999/xlink" width="48" height="48">
  <defs id="acyl-settings">
    <linearGradient id="acyl-gradient" x1="0%" x2="0%" y1="0%" y2="100%">
      <stop offset="100%" style="stop-color:#A0A0A0;stop-opacity:1.000000"/>
    </linearGradient>
    <g id="acyl-filter">
  </g>
    <g id="acyl-drawing">
      <path id="path-main" d="M 4.643 4.014 C 3.184 4.014 1.998 5.199 1.998 6.658 L 1.998 41.35 C 1.998 42.81 3.184 43.99 4.643 43.99 L 43.35 43.99 C 44.81 43.99 46 42.81 46 41.35 L 46 6.658 C 46 5.199 44.81 4.014 43.35 4.014 L 4.643 4.014 z M 31.82 7.479 L 32.8 7.479 C 33.34 7.479 33.77 7.915 33.77 8.455 L 33.77 9.561 C 33.77 10.1 33.34 10.54 32.8 10.54 L 31.82 10.54 C 31.28 10.54 30.84 10.1 30.84 9.561 L 30.84 8.455 C 30.84 7.915 31.28 7.479 31.82 7.479 z M 36.36 7.479 L 37.34 7.479 C 37.88 7.479 38.32 7.915 38.32 8.455 L 38.32 9.561 C 38.32 10.1 37.88 10.54 37.34 10.54 L 36.36 10.54 C 35.83 10.54 35.39 10.1 35.39 9.561 L 35.39 8.455 C 35.39 7.915 35.83 7.479 36.36 7.479 z M 40.9 7.479 L 41.87 7.479 C 42.41 7.479 42.85 7.915 42.85 8.455 L 42.83 9.561 C 42.83 10.1 42.39 10.54 41.85 10.54 L 40.9 10.54 C 40.36 10.54 39.92 10.1 39.92 9.561 L 39.92 8.455 C 39.92 7.915 40.36 7.479 40.9 7.479 z M 5.172 13.47 L 42.83 13.47 L 42.83 40.82 L 5.172 40.82 L 5.172 13.47 z M 12.21 19.83 C 11.79 19.83 11.32 19.93 11 20.06 C 10.43 20.45 10.06 21.16 10.06 21.82 L 10.06 21.95 C 10.06 22.83 10.57 23.51 11.23 23.9 L 18 27 L 11.23 30.15 C 10.57 30.39 10.06 31.22 10.06 31.95 C 10.06 32.74 10.43 33.34 11 33.72 C 11.32 33.95 11.79 34.09 12.21 34.09 C 12.39 34.09 12.72 33.91 13.03 33.84 L 23.82 28.87 C 24.48 28.57 24.97 27.76 24.97 27.01 L 24.97 26.89 C 24.97 25.99 24.48 25.35 23.82 24.92 L 13.03 19.93 C 12.72 19.83 12.39 19.83 12.21 19.83 z M 26.37 30.2 C 26.05 30.2 25.71 30.44 25.51 31 L 25.51 31.02 C 25.29 31.51 25.23 32.18 25.29 32.77 C 25.41 33.55 25.8 34.1 26.24 34.09 L 37.62 34.09 C 37.94 34.09 38.28 33.86 38.48 33.29 C 38.69 32.81 38.76 32.13 38.69 31.55 C 38.57 30.78 38.19 30.23 37.75 30.2 L 26.37 30.2 z"/>
    </g>
  </defs>
  <g id="acyl-visual">
    <use id="visible1" style="fill:url(#acyl-gradient)" xlink:href="#acyl-drawing"/>
  </g>
</svg>
