<svg xmlns="http://www.w3.org/2000/svg" xmlns:xlink="http://www.w3.org/1999/xlink" width="48" height="48">
  <defs id="acyl-settings">
    <linearGradient id="acyl-gradient" x1="0%" x2="0%" y1="0%" y2="100%">
      <stop offset="100%" style="stop-color:#404040;stop-opacity:1.000000"/>
    </linearGradient>
    <g id="acyl-filter">
  </g>
    <g id="acyl-drawing">
      <path d="M 24 2 A 22 22 0 0 0 2 24 A 22 22 0 0 0 24 46 A 22 22 0 0 0 46 24 A 22 22 0 0 0 24 2 z M 19.75 7 L 31.09 7 C 31.31 7 31.52 7.109 31.66 7.295 C 31.79 7.479 31.83 7.716 31.75 7.932 L 27.82 19.75 L 31.09 19.75 C 31.33 19.75 31.56 19.87 31.68 20.08 C 31.82 20.29 31.83 20.56 31.72 20.77 L 21.8 40.61 C 21.67 40.85 21.43 41 21.17 41 C 21.11 41 21.06 40.99 21.01 40.98 C 20.69 40.91 20.46 40.62 20.46 40.29 L 20.46 26.83 L 16.91 26.83 C 16.71 26.83 16.51 26.74 16.38 26.58 C 16.25 26.43 16.18 26.22 16.22 26.02 L 19.05 7.6 C 19.1 7.254 19.39 7 19.75 7 z" id="path-main"/>
    </g>
  </defs>
  <g id="acyl-visual">
    <use id="visible1" style="fill:url(#acyl-gradient)" xlink:href="#acyl-drawing"/>
  </g>
</svg>
