<svg xmlns="http://www.w3.org/2000/svg" xmlns:xlink="http://www.w3.org/1999/xlink" width="48" height="48">
  <defs id="acyl-settings">
    <linearGradient id="acyl-gradient" x1="0%" x2="0%" y1="0%" y2="100%">
      <stop offset="100%" style="stop-color:#404040;stop-opacity:1.000000"/>
    </linearGradient>
    <g id="acyl-filter">
  </g>
    <g id="acyl-drawing">
      <path d="M 24 2 A 22 22 0 0 0 2 24.01 A 22 22 0 0 0 24 46 A 22 22 0 0 0 46 24.01 A 22 22 0 0 0 24 2 z M 24.3 9.787 L 35.35 9.797 L 35.63 9.936 C 35.98 10.11 36.31 10.44 36.49 10.8 L 36.63 11.08 L 36.63 23.99 L 36.63 36.9 L 36.48 37.2 C 36.31 37.55 35.97 37.88 35.62 38.06 L 35.34 38.2 L 26.2 38.2 L 17.07 38.2 L 14.42 35.55 L 11.76 32.9 L 11.76 22.09 C 11.76 12.25 11.76 11.25 11.86 11.01 C 12.05 10.46 12.45 10.05 13 9.863 C 13.22 9.782 14.36 9.775 24.3 9.787 z M 15.34 13.34 L 15.34 21.34 L 15.34 29.33 L 17.72 29.33 C 20.03 29.35 20.11 29.35 20.26 29.46 C 20.34 29.52 20.42 29.63 20.52 29.73 C 20.66 29.88 20.66 29.95 20.66 32.27 L 20.66 34.65 L 26.88 34.65 L 33.1 34.65 L 33.1 23.99 L 33.11 13.34 L 24.22 13.34 L 15.34 13.34 z M 24.29 15.12 C 30.74 15.13 30.77 15.13 30.92 15.25 C 31.3 15.53 31.3 15.54 31.3 16.88 C 31.3 18.22 31.3 18.23 30.92 18.51 C 30.77 18.63 30.75 18.63 24.22 18.63 C 17.7 18.63 17.68 18.63 17.53 18.51 C 17.13 18.24 17.13 18.19 17.13 17.03 L 17.13 15.78 C 17.17 15.56 17.4 15.28 17.63 15.18 L 17.64 15.22 C 17.78 15.12 18.99 15.12 24.29 15.12 z M 24.29 19.98 C 30.74 19.99 30.77 19.99 30.92 20.11 C 31.3 20.39 31.3 20.4 31.3 21.74 C 31.3 23.08 31.3 23.09 30.92 23.37 C 30.77 23.49 30.75 23.49 24.22 23.49 C 17.7 23.49 17.68 23.49 17.53 23.37 C 17.13 23.1 17.13 23.05 17.13 21.89 L 17.13 20.65 C 17.17 20.42 17.4 20.14 17.63 20.04 L 17.64 20.08 C 17.78 19.98 18.99 19.98 24.29 19.98 z M 26.92 24.85 C 30.94 24.86 30.94 24.86 31.05 24.97 C 31.3 25.26 31.3 25.27 31.3 26.61 C 31.3 27.94 31.3 27.96 31.05 28.24 C 30.96 28.36 30.95 28.36 26.87 28.36 C 22.8 28.36 22.8 28.36 22.69 28.24 C 22.43 27.97 22.43 27.92 22.43 26.76 L 22.43 25.51 C 22.45 25.29 22.61 25.01 22.75 24.91 L 22.76 24.95 C 22.85 24.85 23.61 24.85 26.92 24.85 z M 26.92 29.71 C 30.94 29.72 30.94 29.72 31.05 29.83 C 31.3 30.12 31.3 30.13 31.3 31.47 C 31.3 32.8 31.3 32.82 31.05 33.1 C 30.96 33.22 30.95 33.22 26.87 33.22 C 22.8 33.22 22.8 33.22 22.69 33.1 C 22.43 32.83 22.43 32.78 22.43 31.62 L 22.43 30.37 C 22.45 30.15 22.61 29.87 22.75 29.77 L 22.76 29.81 C 22.85 29.71 23.61 29.71 26.92 29.71 z" id="path-main"/>
    </g>
  </defs>
  <g id="acyl-visual">
    <use id="visible1" style="fill:url(#acyl-gradient)" xlink:href="#acyl-drawing"/>
  </g>
</svg>
