<svg xmlns="http://www.w3.org/2000/svg" xmlns:xlink="http://www.w3.org/1999/xlink" width="48" height="48">
  <defs id="acyl-settings">
    <linearGradient id="acyl-gradient" x1="0%" x2="0%" y1="0%" y2="100%">
      <stop offset="100%" style="stop-color:#A0A0A0;stop-opacity:1.000000"/>
    </linearGradient>
    <g id="acyl-filter">
  </g>
    <g id="acyl-drawing">
      <path d="m 21.406378,43.282704 c -2.87165,-0.18431 -5.33513,-1.00338 -7.65526,-2.54524 -0.48249,-0.32065 -1.24662,-0.97365 -1.904241,-1.62731 -1.9472595,-1.93553 -3.0219995,-3.87985 -3.6079995,-6.52724 -0.20634,-0.9322 -0.20655,-0.94137 -0.21268,-9.43973 -0.006,-8.43873 -0.008,-8.51078 -0.19927,-9.02821 -0.44367,-1.198166 -1.28095,-2.00231 -2.60612,-2.502988 -0.24588,-0.0929 -0.8528,-0.159536 -1.78296,-0.195766 l -1.4101801,-0.05493 -0.0239,-3.224054 c -0.0132,-1.773229 0.01,-3.257656 0.0507,-3.298727 0.12784,-0.127831 30.3080106,-0.204893 31.3157506,-0.07996 2.75398,0.341418 4.7245,1.046578 6.82349,2.441825 2.81155,1.868901 4.71776,4.571965 5.53274,7.8456 l 0.23782,0.95529 0.029,11.82611 c 0.0191,7.78379 -0.003,11.9736 -0.0635,12.2576 -0.29665,1.38325 -1.32004,2.43355 -2.89347,2.96955 l -0.70454,0.24 -10.23524,0.009 c -5.62938,0.005 -10.43994,-0.004 -10.69013,-0.0205 z m 8.68858,-4.70387 c 2.77716,-0.0134 5.29503,-0.058 5.59526,-0.0991 0.71171,-0.0975 2.04429,-0.54331 2.65646,-0.8888 2.08272,-1.17541 3.62879,-3.1337 4.22257,-5.34839 0.26912,-1.00376 0.3681,-3.8193 0.33454,-9.51671 l -0.0284,-4.81395 -0.24677,-0.72784 c -0.3661,-1.07981 -0.83561,-1.81198 -1.75259,-2.73304 -1.37082,-1.376923 -2.76345,-1.952422 -4.72459,-1.952422 -1.55071,0 -2.76859,0.40653 -3.98775,1.331112 -0.28828,0.21863 -0.56836,0.39751 -0.62239,0.39751 -0.054,0 -0.25446,-0.13306 -0.44539,-0.29569 -1.66006,-1.413975 -4.13776,-1.864033 -6.31935,-1.147867 -1.94032,0.636962 -3.59246,2.326467 -4.30308,4.400397 l -0.24939,0.72784 -2.7e-4,5.36781 -2.7e-4,5.36781 1.91057,0.0258 c 1.05082,0.0142 2.0027,0.003 2.11528,-0.0245 l 0.20471,-0.0502 0,-4.80369 c 0,-5.35019 0.005,-5.40067 0.59696,-6.0923 1.21171,-1.41562 3.28736,-1.15913 4.1057,0.50735 l 0.2558,0.52079 0.0272,4.9103 c 0.0205,3.69715 0.0542,4.92745 0.13647,4.97975 0.18108,0.11511 3.95552,0.0879 4.02779,-0.0291 0.0344,-0.0557 0.0811,-2.27677 0.1036,-4.93566 0.0259,-3.05221 0.0768,-4.95172 0.13824,-5.15276 0.2133,-0.6983 0.95663,-1.45576 1.60548,-1.63599 1.2643,-0.35119 2.48791,0.23059 3.04843,1.44941 0.18376,0.39958 0.19307,0.60929 0.26677,6.00929 0.042,3.0774 0.074,5.84762 0.071,6.15607 -0.006,0.63802 -0.26473,1.42544 -0.65723,2.00063 -0.3827,0.56081 -1.22896,1.2814 -1.89882,1.61684 -1.12518,0.56344 -1.01171,0.55421 -6.59604,0.53673 -2.80218,-0.009 -6.3446,-0.0497 -7.87204,-0.091 l -2.77716,-0.075 -0.63458,-0.31204 c -1.07164,-0.52694 -1.91149,-1.54406 -2.38696,-2.89077 -0.14044,-0.3978 -0.15827,-1.40586 -0.20162,-11.39946 l -0.0476,-10.963077 -2.01391,-0.02446 c -1.56472,-0.019 -2.021881,0.0013 -2.049621,0.09098 -0.0196,0.06349 -0.0116,5.192117 0.0179,11.396947 0.0531,11.17199 0.0555,11.28833 0.24866,11.98508 0.461851,1.66574 1.015801,2.61706 2.245661,3.85651 0.89866,0.90566 1.78567,1.5282 2.78072,1.95164 1.18751,0.50533 1.46244,0.53247 4.91176,0.48494 1.72634,-0.0238 5.41103,-0.0542 8.18819,-0.0676 z" id="path-main"/>
    </g>
  </defs>
  <g id="acyl-visual">
    <use id="visible1" style="fill:url(#acyl-gradient)" xlink:href="#acyl-drawing"/>
  </g>
</svg>
