<svg xmlns="http://www.w3.org/2000/svg" xmlns:xlink="http://www.w3.org/1999/xlink" width="48" height="48">
  <defs id="acyl-settings">
    <linearGradient id="acyl-gradient" x1="0%" x2="0%" y1="0%" y2="100%">
      <stop offset="100%" style="stop-color:#A0A0A0;stop-opacity:1.000000"/>
    </linearGradient>
    <g id="acyl-filter">
  </g>
    <g id="acyl-drawing">
      <path d="M 29.16 3 L 10.23 3.008 C 8.993 3.008 8 4.03 8 5.299 L 8 42.71 C 8 43.98 8.993 45 10.23 45 L 37.73 45 C 38.97 45 39.96 43.98 39.96 42.71 L 40 14.11 L 29.16 3 z M 25.14 9.939 C 26.3 9.939 27.8 9.94 27.8 11.42 C 27.81 12.57 25.92 13.37 26.03 15.24 L 32.5 15.24 L 32.5 20.54 C 29.76 20.54 29.92 19.37 28.39 19.37 C 26.89 19.37 26.03 20.24 26.03 21.43 C 26.03 23.72 27.19 24.66 28.68 24.66 C 29.86 24.66 30.14 23.49 32.5 23.49 L 32.5 32.9 L 26.62 32.9 C 26.62 31.37 27.2 30.31 27.2 29.37 C 27.2 27.84 25.54 27.6 23.67 27.6 C 22.52 27.6 21.91 27.93 21.91 29.08 C 21.91 30.61 23.67 30.99 23.67 32.9 L 17.8 32.9 L 17.8 25.24 C 15.9 25.23 15.94 25.84 14.86 25.84 C 13.36 25.83 12.5 25.24 12.5 22.94 C 12.5 22.19 12.78 20.66 14.27 20.54 C 15.06 20.52 16.23 22.31 17.8 22.31 L 17.8 15.24 L 23.09 15.24 C 23.1 13.72 22.5 12.79 22.5 12.01 C 22.5 10.53 24.37 9.939 25.14 9.939 z M 31.84 38.47 C 32.44 38.47 32.92 38.68 33.28 39.09 C 33.64 39.5 33.82 40.05 33.82 40.74 C 33.82 41.43 33.64 41.98 33.28 42.4 C 32.92 42.8 32.44 43.01 31.84 43.01 C 31.24 43.01 30.76 42.8 30.39 42.4 C 30.03 41.99 29.85 41.44 29.85 40.74 C 29.85 40.05 30.03 39.5 30.39 39.09 C 30.76 38.68 31.24 38.47 31.84 38.47 z M 18.14 38.55 L 18.79 38.55 L 20.42 42.93 L 19.82 42.93 L 19.43 41.8 L 17.5 41.8 L 17.11 42.93 L 16.5 42.93 L 18.14 38.55 z M 21.05 38.55 L 22.25 38.55 C 23.07 38.55 23.68 38.73 24.07 39.09 C 24.46 39.44 24.65 39.99 24.65 40.73 C 24.65 41.49 24.46 42.04 24.07 42.4 C 23.68 42.75 23.07 42.93 22.25 42.93 L 21.05 42.93 L 21.05 38.55 z M 25.57 38.55 L 26.77 38.55 C 27.59 38.55 28.2 38.73 28.59 39.09 C 28.98 39.44 29.18 39.99 29.18 40.73 C 29.18 41.49 28.98 42.04 28.59 42.4 C 28.2 42.75 27.59 42.93 26.77 42.93 L 25.57 42.93 L 25.57 38.55 z M 34.73 38.55 L 35.51 38.55 L 37.4 42.21 L 37.4 38.55 L 37.97 38.55 L 37.97 42.93 L 37.18 42.93 L 35.28 39.27 L 35.28 42.93 L 34.73 42.93 L 34.73 38.55 z M 31.84 38.96 C 31.42 38.96 31.08 39.11 30.83 39.43 C 30.58 39.75 30.46 40.19 30.46 40.74 C 30.46 41.3 30.58 41.73 30.83 42.05 C 31.08 42.37 31.42 42.53 31.84 42.53 C 32.26 42.53 32.59 42.37 32.84 42.05 C 33.08 41.73 33.21 41.3 33.21 40.74 C 33.21 40.19 33.08 39.75 32.84 39.43 C 32.59 39.11 32.26 38.96 31.84 38.96 z M 21.63 39.04 L 21.63 42.44 L 22.33 42.44 C 22.92 42.44 23.35 42.3 23.63 42.03 C 23.9 41.76 24.04 41.32 24.04 40.73 C 24.04 40.15 23.9 39.72 23.63 39.45 C 23.35 39.18 22.92 39.04 22.33 39.04 L 21.63 39.04 z M 26.16 39.04 L 26.16 42.44 L 26.86 42.44 C 27.45 42.44 27.88 42.3 28.16 42.03 C 28.43 41.76 28.56 41.32 28.56 40.73 C 28.56 40.15 28.43 39.72 28.16 39.45 C 27.88 39.18 27.45 39.04 26.86 39.04 L 26.16 39.04 z M 18.46 39.14 L 17.68 41.31 L 19.26 41.31 L 18.46 39.14 z" id="path-main"/>
    </g>
  </defs>
  <g id="acyl-visual">
    <use id="visible1" style="fill:url(#acyl-gradient)" xlink:href="#acyl-drawing"/>
  </g>
</svg>
