<svg xmlns="http://www.w3.org/2000/svg" xmlns:xlink="http://www.w3.org/1999/xlink" width="48" height="48">
  <defs id="acyl-settings">
    <linearGradient id="acyl-gradient" x1="0%" x2="0%" y1="0%" y2="100%">
      <stop offset="100%" style="stop-color:#A0A0A0;stop-opacity:1.000000"/>
    </linearGradient>
    <g id="acyl-filter">
  </g>
    <g id="acyl-drawing">
      <path id="path-main" d="M 29.16 3 L 10.23 3.008 C 8.993 3.008 8 4.03 8 5.299 L 8 42.71 C 8 43.98 8.993 45 10.23 45 L 37.73 45 C 38.97 45 39.96 43.98 39.96 42.71 L 40 14.11 L 29.16 3 z M 15.42 17 L 32.58 17 C 32.82 17 33 17.22 33 17.47 L 33 20.67 C 33 20.93 32.82 21.15 32.58 21.15 L 15.42 21.15 C 15.18 21.15 15 20.93 15 20.67 L 15 17.47 C 15 17.22 15.18 17 15.42 17 z M 15.42 25.11 L 23.22 25.11 C 23.46 25.11 23.66 25.32 23.66 25.57 L 23.66 34.54 C 23.66 34.8 23.46 35 23.22 35 L 15.42 35 C 15.18 35 15 34.8 15 34.54 L 15 25.57 C 15 25.32 15.18 25.11 15.42 25.11 z M 26.57 25.11 L 32.58 25.11 C 32.82 25.11 33 25.32 33 25.57 L 33 28.32 C 33 28.58 32.82 28.78 32.58 28.78 L 26.57 28.78 C 26.34 28.78 26.14 28.58 26.14 28.32 L 26.14 25.57 C 26.14 25.32 26.34 25.11 26.57 25.11 z M 26.57 31.21 L 32.58 31.21 C 32.82 31.21 33 31.42 33 31.67 L 33 34.41 C 33 34.67 32.82 34.88 32.58 34.88 L 26.57 34.88 C 26.34 34.88 26.14 34.67 26.14 34.41 L 26.14 31.67 C 26.14 31.42 26.34 31.21 26.57 31.21 z"/>
    </g>
  </defs>
  <g id="acyl-visual">
    <use id="visible1" style="fill:url(#acyl-gradient)" xlink:href="#acyl-drawing"/>
  </g>
</svg>
