<svg xmlns="http://www.w3.org/2000/svg" xmlns:xlink="http://www.w3.org/1999/xlink" width="48" height="48">
  <defs id="acyl-settings">
    <linearGradient id="acyl-gradient" x1="0%" x2="0%" y1="0%" y2="100%">
      <stop offset="100%" style="stop-color:#A0A0A0;stop-opacity:1.000000"/>
    </linearGradient>
    <g id="acyl-filter">
  </g>
    <g id="acyl-drawing">
      <path id="path-main" d="M 29.16 3 L 10.23 3.008 C 8.993 3.008 8 4.03 8 5.299 L 8 42.71 C 8 43.98 8.993 45 10.23 45 L 37.73 45 C 38.97 45 39.96 43.98 39.96 42.71 L 40 14.11 L 29.16 3 z M 15.65 14 L 23.28 14 L 23.28 17.54 L 15.65 17.54 C 15.29 17.54 14.99 17.24 14.99 16.86 L 14.99 14.68 C 14.99 14.3 15.29 14 15.65 14 z M 24.74 14 L 32.35 14 C 32.72 14 33.01 14.3 33.01 14.68 L 33.01 16.86 C 33.01 17.24 32.72 17.54 32.35 17.54 L 24.74 17.54 L 24.74 14 z M 15.65 19.23 L 23.28 19.23 L 23.28 22.77 L 15.65 22.77 C 15.29 22.77 14.99 22.47 14.99 22.09 L 14.99 19.91 C 14.99 19.53 15.29 19.23 15.65 19.23 z M 24.74 19.23 L 32.35 19.23 C 32.72 19.23 33.01 19.53 33.01 19.91 L 33.01 22.09 C 33.01 22.47 32.72 22.77 32.35 22.77 L 24.74 22.77 L 24.74 19.23 z M 15.65 24.46 L 23.28 24.46 L 23.28 28 L 15.65 28 C 15.29 28 14.99 27.7 14.99 27.32 L 14.99 25.14 C 14.99 24.76 15.29 24.46 15.65 24.46 z M 24.74 24.46 L 32.35 24.46 C 32.72 24.46 33.01 24.76 33.01 25.14 L 33.01 27.32 C 33.01 27.7 32.72 28 32.35 28 L 24.74 28 L 24.74 24.46 z M 15 31.6 L 33 31.6 L 33 33.6 L 15 33.6 L 15 31.6 z M 15 36 L 33 36 L 33 38 L 15 38 L 15 36 z"/>
    </g>
  </defs>
  <g id="acyl-visual">
    <use id="visible1" style="fill:url(#acyl-gradient)" xlink:href="#acyl-drawing"/>
  </g>
</svg>
