<svg xmlns="http://www.w3.org/2000/svg" xmlns:xlink="http://www.w3.org/1999/xlink" width="48" height="48">
  <defs id="acyl-settings">
    <linearGradient id="acyl-gradient" x1="0%" x2="0%" y1="0%" y2="100%">
      <stop offset="100%" style="stop-color:#A0A0A0;stop-opacity:1.000000"/>
    </linearGradient>
    <g id="acyl-filter">
  </g>
    <g id="acyl-drawing">
      <path id="path-main" d="M 29.16 3 L 10.23 3.008 C 8.993 3.008 8 4.03 8 5.299 L 8 42.71 C 8 43.98 8.993 45 10.23 45 L 37.73 45 C 38.97 45 39.96 43.98 39.96 42.71 L 40 14.11 L 29.16 3 z M 18.42 14.21 L 19.56 14.21 C 19.9 14.21 20.19 14.5 20.19 14.86 L 20.19 18.62 C 20.19 18.98 19.9 19.26 19.56 19.26 L 18.42 19.26 C 18.08 19.26 17.8 18.98 17.8 18.62 L 17.8 14.86 C 17.8 14.5 18.08 14.21 18.42 14.21 z M 28.41 14.21 L 29.55 14.21 C 29.89 14.21 30.17 14.5 30.17 14.86 L 30.17 18.62 C 30.17 18.98 29.89 19.26 29.55 19.26 L 28.41 19.26 C 28.07 19.26 27.79 18.98 27.79 18.62 L 27.79 14.86 C 27.79 14.5 28.07 14.21 28.41 14.21 z M 21.41 16.32 L 26.59 16.32 L 26.59 18.62 C 26.59 19.66 27.42 20.5 28.42 20.5 L 29.57 20.5 C 30.58 20.5 31.4 19.66 31.4 18.62 L 31.4 16.32 C 32.28 16.35 33 17.1 33 18.03 L 33 31.49 C 33 32.43 32.26 33.2 31.35 33.2 L 16.65 33.2 C 15.74 33.2 15 32.43 15 31.49 L 15 18.03 C 15 17.1 15.73 16.35 16.61 16.32 L 16.61 18.62 C 16.61 19.66 17.42 20.5 18.43 20.5 L 19.58 20.5 C 20.58 20.5 21.41 19.66 21.41 18.62 L 21.41 16.32 z M 17.82 22.96 C 17.43 22.96 17.11 23.29 17.11 23.69 L 17.11 30.65 C 17.11 31.05 17.43 31.38 17.82 31.38 L 30.15 31.38 C 30.54 31.38 30.86 31.05 30.86 30.65 L 30.86 23.69 C 30.86 23.29 30.54 22.96 30.15 22.96 L 17.82 22.96 z M 19.63 24.25 L 21.09 24.25 C 21.32 24.25 21.51 24.45 21.51 24.69 L 21.51 26.19 C 21.51 26.43 21.32 26.62 21.09 26.62 L 19.63 26.62 C 19.4 26.62 19.21 26.43 19.21 26.19 L 19.21 24.69 C 19.21 24.45 19.4 24.25 19.63 24.25 z M 23.27 24.25 L 24.73 24.25 C 24.96 24.25 25.15 24.45 25.15 24.69 L 25.15 26.19 C 25.15 26.43 24.96 26.62 24.73 26.62 L 23.27 26.62 C 23.04 26.62 22.86 26.43 22.86 26.19 L 22.86 24.69 C 22.86 24.45 23.04 24.25 23.27 24.25 z M 26.92 24.25 L 28.37 24.25 C 28.6 24.25 28.79 24.45 28.79 24.69 L 28.79 26.19 C 28.79 26.43 28.6 26.62 28.37 26.62 L 26.92 26.62 C 26.69 26.62 26.5 26.43 26.5 26.19 L 26.5 24.69 C 26.5 24.45 26.69 24.25 26.92 24.25 z M 19.63 27.81 L 21.09 27.81 C 21.32 27.81 21.51 28 21.51 28.25 L 21.51 29.75 C 21.51 29.98 21.32 30.18 21.09 30.18 L 19.63 30.18 C 19.4 30.18 19.21 29.98 19.21 29.75 L 19.21 28.25 C 19.21 28 19.4 27.81 19.63 27.81 z M 23.27 27.81 L 24.73 27.81 C 24.96 27.81 25.15 28 25.15 28.25 L 25.15 29.75 C 25.15 29.98 24.96 30.18 24.73 30.18 L 23.27 30.18 C 23.04 30.18 22.86 29.98 22.86 29.75 L 22.86 28.25 C 22.86 28 23.04 27.81 23.27 27.81 z M 26.92 27.81 L 28.37 27.81 C 28.6 27.81 28.79 28 28.79 28.25 L 28.79 29.75 C 28.79 29.98 28.6 30.18 28.37 30.18 L 26.92 30.18 C 26.69 30.18 26.5 29.98 26.5 29.75 L 26.5 28.25 C 26.5 28 26.69 27.81 26.92 27.81 z M 15 36 L 33 36 L 33 38 L 15 38 L 15 36 z"/>
    </g>
  </defs>
  <g id="acyl-visual">
    <use id="visible1" style="fill:url(#acyl-gradient)" xlink:href="#acyl-drawing"/>
  </g>
</svg>
