<svg xmlns="http://www.w3.org/2000/svg" xmlns:xlink="http://www.w3.org/1999/xlink" width="48" height="48">
  <defs id="acyl-settings">
    <linearGradient id="acyl-gradient" x1="0%" x2="0%" y1="0%" y2="100%">
      <stop offset="100%" style="stop-color:#A0A0A0;stop-opacity:1.000000"/>
    </linearGradient>
    <g id="acyl-filter">
  </g>
    <g id="acyl-drawing">
      <path id="path-main" d="M 3.871 2.244 C 3.259 2.243 2.764 2.386 2.451 2.725 C 1.097 3.976 2.974 8.247 4.641 11.17 C 6.204 8.559 8.286 6.372 10.79 4.809 C 8.6 3.558 5.708 2.249 3.871 2.244 z M 24.64 3.244 C 12.87 3.244 3.389 12.73 3.389 24.5 C 3.389 36.18 12.87 45.76 24.64 45.76 C 36.42 45.76 46.01 36.28 46.01 24.5 C 46.01 21.17 45.17 18.04 43.92 15.23 C 43.3 16.17 42.78 16.9 42.36 17.42 C 41.63 18.25 40.48 19.09 39.23 19.09 C 37.36 18.98 34.96 17.84 32.88 15.75 C 30.9 13.77 29.65 11.38 29.65 9.496 C 29.65 8.142 30.17 7.31 30.69 6.893 C 31.11 6.476 32.04 5.747 33.29 5.018 C 30.58 3.871 27.77 3.244 24.64 3.244 z M 43.79 3.461 C 40.69 3.225 33.8 7.634 32.98 8.455 C 31.94 9.393 32.88 11.79 34.86 13.77 C 36.94 15.86 39.34 16.69 40.27 15.75 C 41.21 14.81 46.84 5.953 44.86 3.869 C 44.6 3.622 44.23 3.495 43.79 3.461 z M 28.08 3.639 C 28.08 3.669 27.98 3.728 27.98 3.766 C 27.87 3.826 27.79 3.88 27.73 3.943 L 28.08 3.639 z M 24.64 7.412 C 25.08 7.412 25.47 7.503 25.9 7.539 C 25.73 8.185 25.48 8.791 25.48 9.496 C 25.48 13.23 27.39 16.15 29.93 18.7 C 32.61 21.37 35.64 23.06 39 23.24 A 4.168 4.168 0 0 0 39.23 23.24 C 40.14 23.24 40.92 23.08 41.64 22.84 C 41.74 23.39 41.84 23.93 41.84 24.49 C 41.84 34.01 34.18 41.58 24.64 41.58 C 15.13 41.58 7.557 33.91 7.557 24.5 C 7.557 14.97 15.11 7.412 24.64 7.412 z"/>
    </g>
  </defs>
  <g id="acyl-visual">
    <use id="visible1" style="fill:url(#acyl-gradient)" xlink:href="#acyl-drawing"/>
  </g>
</svg>
