<svg xmlns="http://www.w3.org/2000/svg" xmlns:xlink="http://www.w3.org/1999/xlink" width="48" height="48">
  <defs id="acyl-settings">
    <linearGradient id="acyl-gradient" x1="0%" x2="0%" y1="0%" y2="100%">
      <stop offset="100%" style="stop-color:#A0A0A0;stop-opacity:1.000000"/>
    </linearGradient>
    <g id="acyl-filter">
  </g>
    <g id="acyl-drawing">
      <path id="path-main" d="M 3.869 2.207 C 3.247 2.199 2.739 2.343 2.414 2.693 C 1.114 3.993 3.015 8.292 4.715 11.19 C 6.215 8.592 8.315 6.393 10.82 4.893 C 8.642 3.618 5.735 2.23 3.869 2.207 z M 24.62 3.193 C 12.92 3.193 3.314 12.69 3.314 24.49 C 3.314 36.29 12.92 45.79 24.62 45.79 C 36.42 45.79 46.02 36.29 46.02 24.49 C 46.02 21.19 45.22 17.99 43.82 15.19 C 43.32 16.09 42.72 16.89 42.32 17.49 C 41.62 18.29 40.52 19.19 39.22 19.09 C 37.32 18.99 34.92 17.89 32.92 15.79 C 30.82 13.79 29.62 11.39 29.62 9.492 C 29.62 8.092 30.22 7.293 30.62 6.893 C 31.02 6.493 32.02 5.792 33.22 4.992 C 30.62 3.792 27.72 3.193 24.62 3.193 z M 43.78 3.475 C 40.72 3.219 33.79 7.605 32.92 8.393 C 32.02 9.393 32.82 11.79 34.92 13.79 C 36.92 15.89 39.32 16.69 40.22 15.79 C 41.22 14.79 46.82 5.893 44.82 3.893 C 44.57 3.643 44.21 3.511 43.78 3.475 z"/>
    </g>
  </defs>
  <g id="acyl-visual">
    <use id="visible1" style="fill:url(#acyl-gradient)" xlink:href="#acyl-drawing"/>
  </g>
</svg>
