<svg xmlns="http://www.w3.org/2000/svg" xmlns:xlink="http://www.w3.org/1999/xlink" width="48" height="48">
  <defs id="acyl-settings">
    <linearGradient id="acyl-gradient" x1="0%" x2="0%" y1="0%" y2="100%">
      <stop offset="100%" style="stop-color:#94C952;stop-opacity:0.847059"/>
    </linearGradient>
    <g
       id="acyl-filter" />
    <g
       id="acyl-drawing">
      <path
         id="path-main"
         d="m-14.721 132.03c-1.8181-0.4566-5.6283-2.2741-8.4672-4.0388l-5.1617-3.2087-4.5328 2.2279c-24.46 12.022-51.799 0.49995-61.196-25.792-3.0064-8.4112-2.9741-21.564 0.07519-30.589 5.5726-16.493 20.787-28.773 37.593-30.343l6.2069-0.57961 2.6966-5.4982c1.4831-3.024 5.1263-8.0455 8.096-11.159l5.3994-5.6607-1.5553-5.3056c-5.4301-18.524 11.056-37.169 29.258-33.09 2.5556 0.57271 5.4592 1.4763 6.4526 2.0079 1.4106 0.75491 1.9408 0.54219 2.4212-0.97129 1.1718-3.692 11.303-12.829 17.737-15.996 17.733-8.7299 36.95-5.1923 50.504 9.2971 3.7695 4.0296 6.9652 8.7163 8.7731 12.866l2.8438 6.5277 6.7317 0.48165c17.92 1.2785 34.56 16.48 38.34 35.022l1.2721 6.2362 5.4126 0.77665c16.155 2.318 32.691 17.182 37.269 33.501l1.6688 5.9477 5.3595 0.55315c6.8553 0.70753 12.27 3.4936 17.03 8.762 5.2347 5.7941 6.9111 10.227 6.9815 18.462 0.19406 22.701-24.218 35.552-41.906 22.061l-3.5055-2.6738-5.7425 3.527c-7.6911 4.7238-13.351 6.6192-21.742 7.2814-11.582 0.91385-24.951-3.5903-33.452-11.271l-3.8801-3.5054-6.834 4.5849c-4.1121 2.7588-10.129 5.6127-15.107 7.1654-7.4152 2.313-9.4366 2.5307-19.5 2.0995-13-0.55697-21.12-3.1307-30.868-9.7847-3.2227-2.1998-5.8595-3.6272-5.8595-3.1719 0 2.0079-7.3392 9.1269-11.355 11.015-5.1725 2.4314-12.783 3.4052-17.45 2.233zm14.676-7.683c3.2893-1.6392 6.2015-4.0404 7.7645-6.4021l2.501-3.7792-3.7154-4.8479c-4.2837-5.6-10.127-17.274-11.019-22.029-0.74828-3.9887-2.792-4.759-8.6874-3.2745-16.074 4.0475-21.31 25.523-9.0554 37.144 6.5098 6.1736 14.044 7.2529 22.212 3.1822zm70.231-0.79506c31.944-11.03 46.454-49.901 30.174-80.875-6.672-12.701-19.333-23.038-33.207-27.114-6.882-2.021-19.895-2.051-27.527-0.064-16.779 4.371-31.502 18.39-37.541 35.746-2.7325 7.853-3.678 21.551-2.0668 29.939 1.5357 7.9953 7.7854 20.916 13.048 26.976 4.6263 5.327 15.321 12.71 22.047 15.22 10.872 4.0575 23.631 4.1193 35.074 0.16972zm73.455-0.53527c16.961-8.3496 26.816-27.587 23.635-46.135-3.2597-19.009-16.676-32.822-35.004-36.04-6.7918-1.1923-16.073-0.01741-21.328 2.6999l-2.6656 1.3784 2.0125 6.2746c5.9782 18.639 1.9005 41.534-10.259 57.599l-3.8667 5.1087 4.2093 3.409c9.1054 7.3744 16.346 9.7754 27.986 9.2798 7.4044-0.31526 9.7939-0.87434 15.28-3.575zm-181.29-0.31274c3.1516-1.4428 5.7302-3.0433 5.7302-3.5566 0-0.51326-0.70345-2.6168-1.5632-4.6745-1.0077-2.4119-1.4841-6.181-1.3406-10.607l0.22267-6.8656-4.9471-5.2652c-9.5961-10.213-13.445-19.824-13.467-33.631-0.0076-4.7782 0.2838-9.4632 0.64756-10.411 0.87022-2.2678-3.1766-2.3213-10.525-0.1392-28.169 8.3652-37.115 45.196-16.213 66.746 8.0397 8.2893 16.81 11.815 28.205 11.34 5.5006-0.22938 9.0584-1.018 13.25-2.937zm222.01-0.0811c6.8459-2.866 12.697-12.088 12.712-20.037 0.021-10.834-9.6422-21.522-19.523-21.594l-3.0284-0.022-1.1636 8.5336c-1.2248 8.982-4.1053 16.446-9.2105 23.866l-3.0706 4.463 2.896 2.0621c1.5928 1.1342 3.9556 2.4865 5.2508 3.0053 3.5004 1.402 11.475 1.256 15.137-0.27718zm-212.05-36.305c5.0275-5.4752 10.625-8.2966 16.521-8.3271l4.25-0.02196 0.01736-7.25c0.02471-10.318 2.3218-19.982 7.0102-29.494l4.0636-8.2442-2.4663-4.2558c-1.3565-2.3407-3.2288-6.6183-4.1607-9.5058-1.569-4.8617-1.9262-5.2491-4.8292-5.2381-9.0662 0.03433-21.243 5.7236-28.224 13.187-12.335 13.187-15.333 32.686-7.575 49.264 2.4175 5.1662 9.3535 14.537 10.76 14.537 0.19967 0 2.2848-2.0929 4.6336-4.651zm143.77-50.341c6.2307-1.7018 6.4854-1.8936 6.1474-4.628-1.05-8.478-8.2-20.436-15.22-25.432-5.17-3.6834-14.057-6.8986-19.135-6.9242l-4.7096-0.023735-0.29044 8.25-0.29044 8.25 5.5 4.0717c5.9416 4.3986 10.541 9.2662 14.715 15.574 2.1184 3.2011 3.0544 3.8594 4.7141 3.3157 1.139-0.37312 4.9959-1.4773 8.5709-2.4538zm-89.495-21.557c10.53-5.1607 18.25-6.7846 29.499-6.2051 5.8979 0.30378 11.663 1.2629 15.203 2.5293l5.7026 2.04 0.63282-4.2199c2.2124-14.754-7.8797-32.7-22.412-39.854-5.9619-2.935-7.4364-3.2398-15.605-3.2256-7.6531 0.01334-9.8881 0.41975-14.739 2.6801-18.759 8.7406-28.185 31.238-21.284 50.797 0.86819 2.4607 2.2578 5.5108 3.0881 6.7779l1.5096 2.3039 5.7024-5.0966c3.1363-2.8031 8.8524-6.6404 12.702-8.5273zm-47.5-3.4548c2.475-0.96136 7.0379-2.055 10.14-2.4303l5.6397-0.68236 0.70522-6.5852c0.38787-3.6219 1.316-8.3164 2.0625-10.432 1.2483-3.5382 1.2038-3.9291-0.55463-4.8702-7.8923-4.2238-19.845-0.51671-24.623 7.6369-3.1417 5.361-4.0511 11.771-2.3857 16.817 0.93686 2.8387 1.5965 3.5269 2.8667 2.9907 0.9074-0.38304 3.6748-1.483 6.1498-2.4444z" />
    </g>
  </defs>
  <g
     id="acyl-visual"
     transform="matrix(0.14725505,0,0,0.14725505,16.182452,17.219408)">
    <use
       id="visible1"
       style="fill:url(#acyl-gradient)"
       xlink:href="#acyl-drawing"
       x="0"
       y="0"
       width="100%"
       height="100%" />
  </g>
</svg>
