<svg xmlns="http://www.w3.org/2000/svg" xmlns:xlink="http://www.w3.org/1999/xlink" width="48" height="48">
  <defs id="acyl-settings">
    <linearGradient id="acyl-gradient" x1="0%" x2="0%" y1="0%" y2="100%">
      <stop offset="100%" style="stop-color:#A0A0A0;stop-opacity:1.000000"/>
    </linearGradient>
    <g id="acyl-filter">
  </g>
    <g id="acyl-drawing">
      <path d="M 20.5,3.3125 C 19.703454,3.3285898 19.014671,3.7414261 18.59375,4.25 C 18.172829,4.7585739 17.939506,5.3439734 17.9375,5.96875 L 17.90625,7 L 14.34375,7 C 11.946296,7 10,8.9462958 10,11.34375 L 10,41.40625 C 10,43.780141 11.914518,45.74379 14.28125,45.78125 C 14.304719,45.781621 14.320171,45.78125 14.34375,45.78125 L 33.5625,45.78125 C 35.959955,45.78125 37.9375,43.803704 37.9375,41.40625 L 37.9375,11.34375 C 37.9375,8.9462958 35.959954,7 33.5625,7 L 30.15625,7 L 30.15625,5.875 L 30.15625,5.84375 C 30.116993,4.5077703 29.061219,3.3327522 27.65625,3.34375 L 20.5,3.3125 z" id="path-main"/>
    </g>
  </defs>
  <g id="acyl-visual">
    <use id="visible1" style="fill:url(#acyl-gradient)" xlink:href="#acyl-drawing"/>
  </g>
</svg>
