<svg xmlns="http://www.w3.org/2000/svg" xmlns:xlink="http://www.w3.org/1999/xlink" width="48" height="48">
  <defs id="acyl-settings">
    <linearGradient id="acyl-gradient" x1="0%" x2="0%" y1="0%" y2="100%">
      <stop offset="100%" style="stop-color:#A0A0A0;stop-opacity:1.000000"/>
    </linearGradient>
    <g id="acyl-filter">
  </g>
    <g id="acyl-drawing">
      <path d="m 17.599,45.952 c -0.3245,-0.078 -0.6482,-0.4154 -0.7278,-0.7587 -0.036,-0.1542 -0.066,-1.9637 -0.067,-4.0212 l 0,-3.7411 -0.5289,0 c -0.3,0 -0.6901,-0.052 -0.9017,-0.1205 -0.491,-0.1584 -1.0073,-0.6267 -1.2269,-1.1125 l -0.1708,-0.378 0,-16.1096 0,-16.10977 0.1708,-0.378 c 0.2264,-0.50083 0.7652,-0.98448 1.256,-1.1271 0.3242,-0.0943 1.4482,-0.10575 8.7447,-0.0891 8.3632,0.019 8.373,0.0192 8.7012,0.17104 0.4193,0.19395 0.829,0.60367 1.023,1.023 l 0.152,0.32859 0,16.18137 0,16.1812 -0.152,0.3287 c -0.3583,0.7746 -0.9879,1.1492 -2.0116,1.1968 l -0.66,0.031 -0.02,3.9244 c -0.02,3.8357 -0.024,3.9287 -0.168,4.122 -0.081,0.1086 -0.2365,0.264 -0.3453,0.3451 -0.1958,0.1464 -0.2552,0.1478 -6.5109,0.1592 -3.4723,0.01 -6.4223,-0.014 -6.5554,-0.047 z m 12.5928,-4.7263 0,-3.7947 -6.1934,0 -6.1932,0 0,3.7947 0,3.7949 6.1932,0 6.1934,0 0,-3.7949 z m -10.4535,-0.1073 0,-1.8973 1.8975,0 1.8972,0 0,1.8973 0,1.8974 -1.8972,0 -1.8975,0 0,-1.8974 z m 4.7256,0 0,-1.8973 1.9332,0 1.933,0 0,1.8973 0,1.8974 -1.933,0 -1.9332,0 0,-1.8974 z m 8.1933,-4.8603 C 33.166,35.87 33.1273,37.2323 33.1271,19.6947 33.1271,4.71983 33.12,3.80123 33.0019,3.56626 32.933,3.42922 32.7672,3.24396 32.6334,3.15456 l -0.2433,-0.16252 -8.3843,0 c -8.2816,0 -8.3874,0.002 -8.6213,0.14468 -0.1367,0.0834 -0.295,0.27238 -0.3743,0.44724 -0.1341,0.29563 -0.1375,0.67666 -0.139,16.06344 0,8.6684 0.018,15.8588 0.042,15.9786 0.062,0.3106 0.3744,0.6492 0.7082,0.7677 0.2419,0.086 1.5639,0.099 8.5257,0.086 l 8.2395,-0.016 0.2705,-0.2063 z M 15.872,19.7104 l 0,-15.78817 8.1444,0.0182 8.1443,0.0182 0,15.75177 0,15.7518 -8.1443,0.018 -8.1444,0.018 0,-15.7881 z m 9.8689,4.9296 c 0.7939,-0.833 1.4437,-1.5421 1.4437,-1.576 0,-0.034 -0.6289,-0.6894 -1.3977,-1.457 -0.7686,-0.7675 -1.3889,-1.4347 -1.3783,-1.4826 0.011,-0.048 0.6444,-0.7348 1.4082,-1.5264 l 1.3885,-1.4392 -0.3201,-0.3352 C 26.7091,16.6393 25.8909,15.767 25.067,14.8852 l -1.4982,-1.6033 -0.036,2.9886 -0.036,2.9885 -1.3525,-1.3741 -1.3527,-1.3741 -0.2923,0.2923 -0.2922,0.2923 0.3552,0.3766 c 0.1953,0.2072 0.8546,0.8843 1.4649,1.5046 l 1.1101,1.1276 -1.218,1.2351 c -0.6699,0.6793 -1.3284,1.3559 -1.4633,1.5037 l -0.2455,0.2688 0.2807,0.2875 0.2808,0.2875 1.3804,-1.3789 1.3802,-1.379 0,3.0057 0,3.0057 0.382,-0.393 c 0.2102,-0.2161 1.0317,-1.0745 1.8259,-1.9073 z m -1.3486,-1.5366 0,-1.6723 0.8193,0.8171 0.8195,0.8171 -0.7112,0.7654 c -0.3914,0.421 -0.76,0.8059 -0.8195,0.8551 -0.096,0.08 -0.1081,-0.099 -0.1081,-1.5824 z m 0,-5.9736 0,-1.7154 0.813,0.8592 0.8131,0.8592 -0.486,0.537 c -0.2672,0.2953 -0.6335,0.6806 -0.8139,0.8562 l -0.3282,0.3192 0,-1.7154 z" id="path-main"/>
    </g>
  </defs>
  <g id="acyl-visual">
    <use id="visible1" style="fill:url(#acyl-gradient)" xlink:href="#acyl-drawing"/>
  </g>
</svg>
