<svg xmlns="http://www.w3.org/2000/svg" xmlns:xlink="http://www.w3.org/1999/xlink" width="48" height="48">
  <defs id="acyl-settings">
    <linearGradient id="acyl-gradient" x1="0%" x2="0%" y1="0%" y2="100%">
      <stop offset="100%" style="stop-color:#A0A0A0;stop-opacity:1.000000"/>
    </linearGradient>
    <g id="acyl-filter">
      <filter id="filter"/>
    </g>
    <g id="acyl-drawing">
      <path d="M 3.5625,11 C 3.2572681,11 3,11.214494 3,11.5 L 3,30.5 C 3,30.785506 3.2572681,31 3.5625,31 L 15,31 L 15,34 L 12.25,34 C 12.108918,34 12,34.108916 12,34.25 L 12,35.75 C 12,35.891082 12.108918,36 12.25,36 L 21.75,36 C 21.891082,36 22,35.891084 22,35.75 L 22,34.25 C 22,34.108918 21.891082,34 21.75,34 L 19,34 L 19,31 L 30.4375,31 C 30.742732,31 31,30.785506 31,30.5 L 31,11.5 C 31,11.214494 30.742733,11 30.4375,11 L 3.5625,11 z M 36,11 C 35.437566,11 35,11.470289 35,12.0625 L 35,34.9375 C 35,35.529712 35.437566,36 36,36 L 44,36 C 44.562434,36 45,35.529711 45,34.9375 L 45,12.0625 C 45,11.470288 44.562434,11 44,11 L 36,11 z" id="path-main"/>
    </g>
  </defs>
  <g id="acyl-visual">
    <use id="visible1" style="fill:url(#acyl-gradient);filter:url(#filter)" xlink:href="#acyl-drawing"/>
  </g>
</svg>
