<svg xmlns="http://www.w3.org/2000/svg" xmlns:xlink="http://www.w3.org/1999/xlink" width="48" height="48">
  <defs id="acyl-settings">
    <linearGradient id="acyl-gradient" x1="0%" x2="0%" y1="0%" y2="100%">
      <stop offset="100%" style="stop-color:#A0A0A0;stop-opacity:1.000000"/>
    </linearGradient>
    <g id="acyl-filter">
  </g>
    <g id="acyl-drawing">
      <path d="M 10.8,2 C 5.9,2 2,5.6 2,9.9 V 34 c 0,4.4 3.9,7.9 8.8,7.9 h 1.3 V 46 h 23.8 v -4.1 h 1.3 C 42.1,41.9 46,38.4 46,34 V 9.9 C 46,5.6 42.1,2 37.2,2 Z m 2.5,6.8 h 3.6 c 1,0 1.7,0.8 1.7,1.8 v 3.6 c 0,1 -0.7,1.7 -1.7,1.7 h -3.6 c -1,0 -1.8,-0.7 -1.8,-1.7 v -3.6 c 0,-1 0.8,-1.8 1.8,-1.8 z m 8.9,0 h 3.6 c 1,0 1.8,0.8 1.8,1.8 v 3.6 c 0,1 -0.8,1.7 -1.8,1.7 h -3.6 c -0.9,0 -1.8,-0.7 -1.8,-1.7 v -3.6 c 0,-1 0.9,-1.8 1.8,-1.8 z m 9,0 h 3.5 c 1,0 1.8,0.8 1.8,1.8 v 3.6 c 0,1 -0.8,1.7 -1.8,1.7 h -3.5 c -1,0 -1.8,-0.7 -1.8,-1.7 v -3.6 c 0,-1 0.8,-1.8 1.8,-1.8 z m -17.9,8.9 h 3.6 c 1,0 1.7,0.8 1.7,1.8 v 3.6 c 0,1 -0.7,1.8 -1.7,1.8 h -3.6 c -1,0 -1.8,-0.8 -1.8,-1.8 v -3.6 c 0,-1 0.8,-1.8 1.8,-1.8 z m 8.9,0 h 3.6 c 1,0 1.8,0.8 1.8,1.8 v 3.6 c 0,1 -0.8,1.8 -1.8,1.8 h -3.6 c -0.9,0 -1.8,-0.8 -1.8,-1.8 v -3.6 c 0,-1 0.9,-1.8 1.8,-1.8 z m 9,0 h 3.5 c 1,0 1.8,0.8 1.8,1.8 v 3.6 c 0,1 -0.8,1.8 -1.8,1.8 h -3.5 c -1,0 -1.8,-0.8 -1.8,-1.8 v -3.6 c 0,-1 0.8,-1.8 1.8,-1.8 z m -17.9,9 h 3.6 c 1,0 1.7,0.8 1.7,1.8 V 32 c 0,1 -0.7,1.8 -1.7,1.8 h -3.6 c -1,0 -1.8,-0.8 -1.8,-1.8 v -3.5 c 0,-1 0.8,-1.8 1.8,-1.8 z m 8.9,0 h 3.6 c 1,0 1.8,0.8 1.8,1.8 V 32 c 0,1 -0.8,1.8 -1.8,1.8 H 22.2 C 21.3,33.8 20.4,33 20.4,32 v -3.5 c 0,-1 0.9,-1.8 1.8,-1.8 z m 9,0 h 3.5 c 1,0 1.8,0.8 1.8,1.8 V 32 c 0,1 -0.8,1.8 -1.8,1.8 h -3.5 c -1,0 -1.8,-0.8 -1.8,-1.8 v -3.5 c 0,-1 0.8,-1.8 1.8,-1.8 z" id="path-main"/>
    </g>
  </defs>
  <g id="acyl-visual">
    <use id="visible1" style="fill:url(#acyl-gradient)" xlink:href="#acyl-drawing"/>
  </g>
</svg>
