<svg xmlns="http://www.w3.org/2000/svg" xmlns:xlink="http://www.w3.org/1999/xlink" width="48" height="48">
  <defs id="acyl-settings">
    <linearGradient id="acyl-gradient" x1="0%" x2="0%" y1="0%" y2="100%">
      <stop offset="100%" style="stop-color:#A0A0A0;stop-opacity:1.000000"/>
    </linearGradient>
    <g id="acyl-filter">
  </g>
    <g id="acyl-drawing">
      <path d="M 14.29,2 C 10.11,2 6.68,5.421 6.68,9.604 V 38.39 c 0,4.18 3.43,7.61 7.61,7.61 h 19.42 c 4.19,0 7.61,-3.43 7.61,-7.61 V 9.604 C 41.32,5.421 37.9,2 33.71,2 Z m 9.7,4.212 c 0.93,-0.01 1.7,0.779 1.7,1.706 v 7.832 c 0,0.94 -0.77,1.76 -1.7,1.76 -0.94,0 -1.67,-0.82 -1.67,-1.76 V 7.918 c 0,-0.927 0.74,-1.706 1.67,-1.706 z m -4.13,3.267 c 0.75,-0.01 1.43,0.498 1.61,1.221 0.18,0.72 -0.17,1.48 -0.83,1.83 -2.78,1.45 -3.39,3.98 -2.65,6.39 0.71,2.4 2.78,4.42 5.99,4.42 3.18,0 5.31,-1.93 6.06,-4.26 0.72,-2.32 0.2,-4.84 -2.79,-6.57 -0.78,-0.43 -1.08,-1.44 -0.65,-2.22 0.45,-0.765 1.49,-1.014 2.25,-0.562 4.14,2.412 5.43,6.762 4.27,10.362 -1.16,3.58 -4.6,6.5 -9.14,6.5 -4.65,0 -8.02,-3.09 -9.1,-6.72 -1.08,-3.65 0.18,-8.04 4.25,-10.187 0.22,-0.07 0.47,-0.192 0.72,-0.192 z m -4.6,21.661 h 17.48 a 1.71,1.71 0 1 1 0,3.42 H 15.26 a 1.71,1.71 0 1 1 0,-3.42 z m 0,6 h 17.48 a 1.707,1.707 0 0 1 0,3.41 H 15.26 a 1.707,1.707 0 0 1 0,-3.41 z" id="path-main"/>
    </g>
  </defs>
  <g id="acyl-visual">
    <use id="visible1" style="fill:url(#acyl-gradient)" xlink:href="#acyl-drawing"/>
  </g>
</svg>
