<svg xmlns="http://www.w3.org/2000/svg" xmlns:xlink="http://www.w3.org/1999/xlink" width="48" height="48">
  <defs id="acyl-settings">
    <linearGradient id="acyl-gradient" x1="0%" x2="0%" y1="0%" y2="100%">
      <stop offset="100%" style="stop-color:#A0A0A0;stop-opacity:1.000000"/>
    </linearGradient>
    <g id="acyl-filter">
  </g>
    <g id="acyl-drawing">
      <path d="m 21.677675,45.904366 c -2.67228,-0.28069 -4.63361,-0.84034 -7.07392,-2.01849 -6.44152,-3.10987 -11.03384,-9.2393 -12.28039,-16.39078 -0.74027,-4.24694 -0.2243,-8.00369 1.70065,-12.38238 2.32507,-5.2888696 6.49129,-9.3433996 11.90024,-11.5812096 4.45588,-1.84351 10.87445,-1.94235 15.45985,-0.23807 3.66314,1.3615 7.70021,4.27709 9.77797,7.0616896 2.28086,3.0568 4.03945,7.25109 4.67376,11.14707 0.21726,1.33442 0.21915,3.63296 0.004,4.93533 -0.36546,2.21277 -1.13366,4.75774 -2.04384,6.77102 -2.01544,4.45805 -5.43465,8.06357 -9.82413,10.35947 -3.13219,1.63828 -5.82537,2.27403 -9.91472,2.34045 -1.11485,0.0181 -2.18564,0.0163 -2.37953,-0.004 z m 4.18955,-7.57444 c 3.43261,-0.49616 5.93846,-1.68023 8.36818,-3.95415 4.27273,-3.99874 5.74298,-9.95566 3.86255,-15.6497 -0.70417,-2.13225 -1.78735,-3.83515 -3.56512,-5.60481 -2.55051,-2.53886 -5.12332,-3.8244496 -8.63423,-4.3143596 -1.2738,-0.17775 -3.62895,-0.13559 -4.83785,0.0866 -3.75996,0.69107 -7.36644,3.1679096 -9.59813,6.5917596 -1.34525,2.06388 -2.10527,4.27378 -2.43302,7.0745 -0.0567,0.48472 -0.14398,0.93088 -0.1939,0.99147 -0.0671,0.0814 -0.5483,0.11017 -1.8426,0.11017 -0.9635,0 -1.75182,0.03 -1.75182,0.0667 0,0.12655 5.17877,5.24285 5.27365,5.21003 0.18951,-0.0656 5.21391,-5.03001 5.21391,-5.1517 0,-0.10381 -0.30432,-0.12499 -1.79589,-0.12499 -1.33117,0 -1.81859,-0.0285 -1.88361,-0.11017 -0.13118,-0.16473 0.27984,-2.40401 0.63737,-3.47247 1.66706,-4.98195 6.16904,-8.23181 11.41456,-8.23987 3.26954,-0.005 6.08317,1.21119 8.41688,3.63827 3.491,3.63067 4.2714,9.04999 1.95747,13.59329 -1.5741,3.09067 -4.66269,5.42161 -8.25921,6.23319 -2.9695,0.67008 -6.16626,-0.0892 -9.38593,-2.22939 -1.23145,-0.81856 -1.26543,-0.83094 -1.68844,-0.61514 -0.49024,0.25011 -1.52834,1.36893 -1.52834,1.64719 0,0.64399 1.81137,1.92724 4.45061,3.153 1.33636,0.62065 1.80508,0.79552 2.68746,1.00266 1.26299,0.29647 3.34332,0.32411 5.11545,0.068 z m 2.48567,-10.13645 c 0.0279,-0.0279 -0.0255,-0.27576 -0.11867,-0.55081 -0.14704,-0.4341 -0.34494,-0.68431 -1.49964,-1.89602 -1.18293,-1.24136 -1.32492,-1.4225 -1.28226,-1.63582 0.0777,-0.38851 -0.0782,-0.86959 -0.39611,-1.222 l -0.2968,-0.32906 -0.33949,-3.65743 c -0.18672,-2.01158 -0.37102,-3.71575 -0.40956,-3.78704 -0.10492,-0.19409 -0.14058,0.10763 -0.47168,3.99129 -0.2676,3.13878 -0.31772,3.52944 -0.4749,3.70149 -0.48146,0.527 -0.57387,1.09277 -0.27822,1.70349 0.24279,0.50154 0.67958,0.76715 1.27757,0.77689 l 0.46019,0.007 1.41075,1.37488 c 1.47375,1.43627 1.38022,1.37317 2.31669,1.56295 0.0283,0.006 0.0742,-0.0124 0.10213,-0.0403 z" id="path-main"/>
    </g>
  </defs>
  <g id="acyl-visual">
    <use id="visible1" style="fill:url(#acyl-gradient)" xlink:href="#acyl-drawing"/>
  </g>
</svg>
