<svg xmlns="http://www.w3.org/2000/svg" xmlns:xlink="http://www.w3.org/1999/xlink" width="48" height="48">
  <defs id="acyl-settings">
    <linearGradient id="acyl-gradient" x1="0%" x2="0%" y1="0%" y2="100%">
      <stop offset="100%" style="stop-color:#A0A0A0;stop-opacity:1.000000"/>
    </linearGradient>
    <g id="acyl-filter">
  </g>
    <g id="acyl-drawing">
      <path id="path-main" d="M 22 2.0957 C 17.4451 2.51166 13.2797 4.33037 9.94336 7.11523 L 13.9043 11.0762 C 16.1973 9.2799 18.9707 8.07831 22 7.70703 L 22 2.0957 z M 26 2.0957 L 26 7.70703 C 29.0293 8.07831 31.8027 9.2799 34.0957 11.0762 L 38.0566 7.11523 C 34.7203 4.33037 30.5549 2.51166 26 2.0957 z M 7.11523 9.94336 C 4.33037 13.2797 2.51166 17.4451 2.0957 22 L 7.70703 22 C 8.07831 18.9707 9.2799 16.1973 11.0762 13.9043 L 7.11523 9.94336 z M 40.8848 9.94336 L 36.9238 13.9043 C 38.7201 16.1973 39.9217 18.9707 40.293 22 L 45.9043 22 C 45.4883 17.4451 43.6696 13.2797 40.8848 9.94336 z M 23.7676 19.0195 C 23.0994 19.0659 22.4434 19.2509 21.8652 19.5742 C 20.1177 20.5734 19.7253 22.7873 19.8809 24.6348 C 19.8536 26.378 20.8696 28.1904 22.5781 28.7539 C 24.3965 29.2192 26.5627 28.9806 27.9727 27.6445 L 27.9727 23.6699 L 24.0176 23.6699 L 24.0176 25.2715 L 25.584 25.2715 C 25.7164 25.4742 25.5989 25.9289 25.6387 26.2246 C 25.7881 27.1209 24.6403 27.2996 23.9824 27.1543 C 22.9124 27.1232 22.3244 26.0248 22.2695 25.0645 C 22.2241 23.8127 22.0464 22.3518 22.9141 21.3184 C 23.7733 20.2771 25.7746 20.9183 25.7188 22.3203 L 27.7461 22.3203 C 28.2868 21.9022 27.437 20.4343 26.8965 19.9375 C 26.028 19.2495 24.8811 18.9422 23.7676 19.0195 z M 13.8262 19.1523 C 12.9405 19.1564 12.0537 19.1924 11.1719 19.1641 L 11.1719 28.8418 L 13.5039 28.8418 L 13.5039 25.4258 L 14.7676 25.4258 C 15.3192 26.5291 15.8702 27.631 16.4219 28.7344 C 16.633 28.9737 17.1138 28.7784 17.4336 28.8418 C 17.9427 28.7847 18.5275 28.9732 18.9746 28.7422 L 16.9551 24.8398 C 18.0457 24.4264 18.6846 23.2387 18.6543 22.1055 C 18.7437 20.7857 17.7163 19.6264 16.4688 19.3301 C 15.5958 19.1766 14.7118 19.1483 13.8262 19.1523 z M 32.0547 19.1523 C 31.1461 19.1534 30.234 19.1986 29.332 19.1641 L 29.332 28.8418 C 30.2303 28.8317 31.1472 28.8418 32.0527 28.8418 C 33.4799 28.8495 35.1603 28.9738 36.2266 27.8281 C 37.1918 26.7272 37.0598 24.5628 35.5605 23.9941 C 35.7509 23.4679 37.0657 22.5091 36.6074 21.5195 C 36.5705 20.4861 35.6897 19.6951 34.7539 19.4062 C 33.8681 19.1935 32.9633 19.1513 32.0547 19.1523 z M 14.5918 20.8867 C 15.7022 20.8451 16.7705 21.7702 16.1855 22.9668 C 15.6584 23.9407 14.399 23.536 13.5039 23.623 L 13.5039 21.8418 C 13.5121 21.351 13.3339 20.6764 14.1172 20.9648 C 14.2728 20.9173 14.4332 20.8927 14.5918 20.8867 z M 32.4453 20.916 C 33.4289 20.8645 34.6143 21.2903 34.25 22.4922 C 33.8157 23.4933 32.5258 23.1264 31.6641 23.1992 L 31.6641 21.9004 C 31.7448 21.5433 31.4165 20.7775 32.041 20.9648 C 32.1682 20.9388 32.3048 20.9234 32.4453 20.916 z M 33.1738 24.6738 C 34.089 24.6815 34.882 25.5651 34.3691 26.5039 C 33.7541 27.3561 32.5566 26.9499 31.6641 27.0469 L 31.6641 24.7266 C 32.0273 24.7262 32.4075 24.7266 32.7773 24.7266 C 32.9097 24.6896 33.0431 24.6727 33.1738 24.6738 z M 2.0957 26 C 2.51166 30.5549 4.33037 34.7203 7.11523 38.0566 L 11.0762 34.0957 C 9.2799 31.8027 8.07831 29.0293 7.70703 26 L 2.0957 26 z M 40.293 26 C 39.9217 29.0293 38.7201 31.8027 36.9238 34.0957 L 40.8848 38.0566 C 43.6696 34.7203 45.4883 30.5549 45.9043 26 L 40.293 26 z M 13.9043 36.9238 L 9.94336 40.8848 C 13.2797 43.6696 17.4451 45.4883 22 45.9043 L 22 40.293 C 18.9707 39.9217 16.1973 38.7201 13.9043 36.9238 z M 34.0957 36.9238 C 31.8027 38.7201 29.0293 39.9217 26 40.293 L 26 45.9043 C 30.5549 45.4883 34.7203 43.6696 38.0566 40.8848 L 34.0957 36.9238 z "/>
    </g>
  </defs>
  <g id="acyl-visual">
    <use id="visible1" style="fill:url(#acyl-gradient)" xlink:href="#acyl-drawing"/>
  </g>
</svg>
