<svg xmlns="http://www.w3.org/2000/svg" xmlns:xlink="http://www.w3.org/1999/xlink" width="48" height="48">
  <defs id="acyl-settings">
    <linearGradient id="acyl-gradient" x1="0%" x2="0%" y1="0%" y2="100%">
      <stop offset="100%" style="stop-color:#A0A0A0;stop-opacity:1.000000"/>
    </linearGradient>
    <g id="acyl-filter">
      <filter/>
    </g>
    <g id="acyl-drawing">
      <path d="m 13.97,45.99 c 0,-0.13 0.8,-1.68 2.94,-5.71 2.85,-5.34 3.05,-5.69 3.13,-5.69 0,0 0.49,0.12 1.01,0.25 0.72,0.19 1.26,0.25 2.34,0.29 1.6,0 2.64,-0.1 4.01,-0.41 0.55,-0.14 0.95,-0.21 1,-0.16 0.15,0.16 5.42,10.49 5.53,10.83 0.1,0.2 0.16,0.38 0.2,0.42 0,0 0.1,0.1 0,0.14 -0.1,0.1 -20.2,0.13 -20.2,0 z M 8.109,45.57 C 6.676,45.06 5.493,44.3 4.495,43.25 2.962,41.64 2.192,39.95 1.965,37.7 1.904,37.09 1.876,34.75 1.894,31.64 l 0.03,-5.06 3.986,-0 3.983,-0 1.779,1.76 c 0.99,0.98 2.36,2.27 3.08,2.88 0.94,0.81 1.27,1.15 1.23,1.26 -0.1,0.2 -5.92,11.05 -6.636,12.32 -0.313,0.55 -0.614,1 -0.667,1 -0.05,-0 -0.31,-0.1 -0.568,-0.18 z M 39,45.17 C 38.27,44 31.98,32.42 32.03,32.32 c 0,-0.1 0.6,-0.58 1.26,-1.15 0.68,-0.56 2.04,-1.84 3.06,-2.83 l 1.83,-1.81 2.78,-0 c 4.41,-0 4.96,-0 5.06,0.1 0,0.1 0.1,2.28 0,5.9 -0.1,5.45 -0.1,5.86 -0.26,6.57 -0.42,1.62 -1.09,2.84 -2.2,4.04 -0.85,0.9 -2.03,1.73 -3.08,2.16 -1.15,0.49 -1.12,0.49 -1.49,-0.1 z M 23.61,30.65 c -1.61,-0.18 -2.85,-0.8 -4.07,-2.01 -1.36,-1.34 -1.98,-2.69 -2.07,-4.5 -0.19,-3.37 1.93,-6.24 5.26,-7.18 0.29,-0.1 0.93,-0.13 1.69,-0.13 1.01,0 1.34,0 1.92,0.21 5.12,1.6 6.71,7.92 2.92,11.65 -1.5,1.47 -3.59,2.2 -5.65,1.96 z m 1.86,-4.13 c 1.13,-0.42 1.9,-1.56 1.9,-2.8 0,-1.15 -0.6,-2.13 -1.65,-2.64 -0.53,-0.26 -0.71,-0.31 -1.33,-0.31 -0.88,0 -1.47,0.24 -2.06,0.82 -0.51,0.49 -0.72,0.9 -0.85,1.62 -0.42,2.31 1.78,4.13 3.99,3.31 z m 3.39,-6.15 c 0.1,-0.48 -1.46,-1.71 -2.11,-1.71 -0.57,0 -0.42,0.46 0.33,1.15 0.86,0.76 1.71,1.03 1.78,0.56 z m 10.92,1.11 -1.24,-0.1 -1.39,-1.27 c -1.5,-1.38 -3.73,-3.29 -4.48,-3.86 -0.94,-0.67 -1.21,0.1 2.44,-6.596 2.87,-5.255 3.67,-6.687 4.05,-7.235 0.1,-0.141 0.15,-0.146 0.55,-0.04 0.78,0.206 1.92,0.804 2.74,1.421 1.72,1.304 2.98,3.294 3.39,5.374 0.15,0.75 0.18,1.584 0.23,6.504 0,4.42 0,5.66 -0.1,5.72 -0.13,0.1 -4.44,0.11 -6.22,0 z M 1.919,21.26 C 1.891,21.14 1.905,18.45 1.951,15.28 2.031,9.863 2.048,9.469 2.234,8.786 2.668,7.184 3.522,5.738 4.738,4.547 5.789,3.518 7.5,2.523 8.47,2.378 c 0.275,-0.04 0.319,-0 0.633,0.5 0.186,0.299 1.557,2.801 3.037,5.56 1.49,2.752 2.96,5.502 3.29,6.092 0.32,0.59 0.55,1.13 0.53,1.18 -0,0.1 -0.58,0.53 -1.19,1.02 -1.19,0.98 -3.47,2.98 -4.64,4.07 l -0.708,0.66 -3.725,0 -3.724,0 -0.05,-0.21 z M 27.8,13.44 c -0.66,-0.24 -2.18,-0.5 -3.22,-0.57 -1.17,-0.1 -2.6,0.1 -3.77,0.41 -0.44,0.11 -0.82,0.17 -0.86,0.15 -0,-0 -1.24,-2.26 -2.65,-4.947 C 15.87,5.802 14.64,3.518 14.58,3.405 14.5,3.293 14.36,2.997 14.27,2.749 14.17,2.5 14.05,2.223 14.02,2.133 13.95,1.977 14.47,1.969 24.09,1.969 c 5.58,0 10.13,0.03 10.11,0.07 -0,0.04 -0.11,0.282 -0.22,0.539 -0.24,0.617 -5.38,10.642 -5.56,10.852 -0.16,0.19 -0.14,0.19 -0.62,0 z " id="path-main"/>
    </g>
  </defs>
  <g id="acyl-visual">
    <use id="visible1" style="fill:url(#acyl-gradient);filter:url(#filter)" xlink:href="#acyl-drawing"/>
  </g>
</svg>
