<svg xmlns="http://www.w3.org/2000/svg" xmlns:xlink="http://www.w3.org/1999/xlink" width="48" height="48">
  <defs id="acyl-settings">
    <linearGradient id="acyl-gradient" x1="0%" x2="0%" y1="0%" y2="100%">
      <stop offset="100%" style="stop-color:#A0A0A0;stop-opacity:1.000000"/>
    </linearGradient>
    <g id="acyl-filter">
      <filter/>
    </g>
    <g id="acyl-drawing">
      <path d="m 20.24,44.54 c -4.5,-0.4 -9,-2.3 -13.596,-5.8 -2.4,-1.8 -4.5,-3.6 -4.6,-4 -0.2,-0.5 0.4,-1.2 0.9,-1.2 0.2,0 1.3,0.5 2.3,1.1 3,1.7 7.096,3.6 9.096,4.3 3.3,1 5.1,1.3 8.5,1.3 4.6,0 9,-0.9 14.1,-2.8 2.5,-1 3.1,-1.1 3.6,-0.5 0.9,0.8 0.2,1.7 -2.4,3.2 -4.2,2.5 -8.8,4 -13.6,4.4 -2.2,0.3 -2.3,0.3 -4.3,0 z m 21.4,-4.1 c -0.2,-0.3 -0.1,-0.6 0.2,-1.7 0.7,-1.8 1,-3.3 0.8,-3.6 -0.1,-0.3 -0.4,-0.3 -1.5,-0.3 -0.7,0 -1.8,0.1 -2.5,0.1 -0.9,0.2 -1.1,0.2 -1.5,0 -1.9,-1.3 3.4,-3.6 6.8,-3 1.4,0.3 1.8,0.6 2,1.4 0.2,0.9 -0.2,2.9 -0.8,4.4 -0.7,1.6 -2.1,3.2 -2.8,3.2 -0.4,0 -0.6,-0.1 -0.7,-0.5 z m -25.6,-5.5 c -2.8,-0.7 -4.8,-2.5 -5.8,-5.3 -0.496,-1.7 -0.496,-4.8 0.1,-6.5 1.4,-4 4.6,-6.1 10.5,-7.1 1.1,-0.1 2.7,-0.3 3.6,-0.4 1,-0.1 1.7,-0.2 1.8,-0.4 0.2,-0.1 0.2,-0.8 0.2,-1.8 -0.1,-2.2 -0.6,-3.2 -1.9,-3.903 -0.9,-0.4 -1.1,-0.5 -2.3,-0.4 -2.2,0.1 -3.7,1.203 -4.3,3.103 -0.2,0.6 -0.4,1 -0.7,1.1 -0.5,0.2 -5.7,-0.4 -6.1,-0.8 -0.4,-0.3 -0.3,-1.1 0.1,-2.4 1.6,-4.303 5.8,-6.903 11.7,-6.903 4.8,0 8.4,1.6 10.1,4.4 0.9,1.6 1,1.8 1.1,10.403 0.1,9 0.1,8.7 1.6,10.8 0.8,1.1 0.9,1.5 0.7,1.9 -0.1,0.1 -1.2,1.1 -2.4,2.1 -2.7,2.3 -2.9,2.4 -4.2,1.2 -0.4,-0.4 -1.1,-1.2 -1.5,-1.7 -0.4,-0.6 -0.8,-1 -0.9,-1 -0.1,0 -0.8,0.4 -1.5,1 -0.6,0.6 -1.7,1.3 -2.4,1.7 -2,1 -5.2,1.4 -7.5,0.9 z m 6.6,-5.5 c 1,-0.4 1.8,-1 2.5,-2.1 0.9,-1.5 1.2,-2.5 1.2,-5 l 0,-2.3 -1.3,-0.1 c -3.6,-0.1 -6.3,1.5 -7,4.1 -0.3,1.1 -0.3,1.9 0.1,3.1 0.6,2.1 2.4,3 4.5,2.3 z " id="path-main"/>
    </g>
  </defs>
  <g id="acyl-visual">
    <use id="visible1" style="fill:url(#acyl-gradient);filter:url(#filter)" xlink:href="#acyl-drawing"/>
  </g>
</svg>
