<svg xmlns="http://www.w3.org/2000/svg" xmlns:xlink="http://www.w3.org/1999/xlink" width="48" height="48">
  <defs id="acyl-settings">
    <linearGradient id="acyl-gradient" x1="0%" x2="0%" y1="0%" y2="100%">
      <stop offset="100%" style="stop-color:#A0A0A0;stop-opacity:1.000000"/>
    </linearGradient>
    <g id="acyl-filter">
  </g>
    <g id="acyl-drawing">
      <path d="m 16.1451,43.6886 c -0.04,-0.11 -0.06,-0.761 -0.03,-1.447 l 0.04,-1.247 2.335,-0.04 2.335,-0.04 0,-2.516 0,-2.516 -9.235,0 c -6.98495,0 -9.27895,-0.04 -9.41295,-0.178 -0.136,-0.136 -0.178,-3.816 -0.178,-15.66 0,-14.57001 0.01,-15.49201 0.259,-15.67801 0.401,-0.304 42.98795,-0.3 43.40395,0 0.282,0.206 0.289,0.56 0.328,15.45401 0.03,11.105 0,15.353 -0.129,15.649 l -0.168,0.406 -9.284,0.04 -9.284,0.04 -0.04,2.479 -0.04,2.479 2.339,0.04 2.338,0.04 0,1.408 0,1.408 -7.75,0.04 c -6.374,0.03 -7.762,0 -7.825,-0.161 z m 26.956,-10.234 c 0.263,-0.111 0.611,-0.351 0.774,-0.534 0.291,-0.327 0.296,-0.542 0.296,-13.077 l 0,-12.74501 -0.484,-0.432 -0.484,-0.433 -19.157,0 c -17.92695,0 -19.17695,0.02 -19.47295,0.26 -0.173,0.141 -0.39,0.402 -0.481,0.58 -0.119,0.231 -0.166,3.90101 -0.166,12.79201 0,13.443 -0.02,13.064 0.766,13.449 0.19,0.09 0.446,0.202 0.568,0.242 0.122,0.04 8.57895,0.08 18.79295,0.09 15.359,0.01 18.654,-0.02 19.048,-0.19 z m -37.69295,-13.584 0,-12.30301 18.67795,0 18.677,0 0,12.30301 0,12.304 -18.677,0 -18.67795,0 0,-12.304 z m 23.40895,8.382 c 0.539,-0.279 0.953,-1.138 0.827,-1.714 -0.05,-0.238 -0.284,-0.636 -0.515,-0.882 -0.351,-0.377 -0.531,-0.449 -1.115,-0.449 -0.595,0 -0.771,0.07 -1.201,0.504 -0.413,0.413 -0.504,0.616 -0.504,1.126 0,0.511 0.09,0.714 0.504,1.127 0.568,0.568 1.268,0.669 2.004,0.288 z m -3.358,-1.656 c 0.145,-0.04 0.354,-0.296 0.466,-0.565 0.113,-0.269 0.453,-0.678 0.756,-0.909 0.458,-0.35 0.701,-0.423 1.421,-0.428 l 0.87,0 0.583,-0.776 c 0.593,-0.79 1.15,-2.215 1.231,-3.152 l 0.04,-0.519 -1.179,0 -1.179,0 -0.174,0.601 c -0.42,1.451 -1.169,2.377 -2.475,3.06 -0.671,0.352 -2.295,0.459 -3.395,0.226 l -0.546,-0.116 -0.529,0.945 c -0.29,0.52 -0.528,0.979 -0.528,1.02 0,0.154 1.142,0.57 1.927,0.702 0.767,0.128 2.123,0.09 2.707,-0.08 z m -4.495,-2.336 0.362,-0.663 -0.632,-0.686 c -0.898,-0.974 -1.196,-1.714 -1.2,-2.977 0,-1.359 0.293,-2.197 1.112,-3.133 0.365,-0.417 0.663,-0.793 0.663,-0.835 0,-0.226 -1.099,-1.877 -1.25,-1.877 -0.1,0 -0.494,0.319 -0.881,0.708 -1.402,1.411 -2.12,2.866 -1.723,3.493 0.704,1.111 0.753,1.98 0.16,2.783 -0.169,0.229 -0.308,0.542 -0.308,0.695 0,0.579 0.956,2.172 1.826,3.042 l 0.891,0.89 0.309,-0.388 c 0.17,-0.214 0.472,-0.687 0.671,-1.052 z m -4.057,-3.213 c 1.164,-1.094 0.42,-2.901 -1.177,-2.859 -0.484,0.01 -0.687,0.115 -1.086,0.55 -0.55,0.601 -0.631,1.172 -0.266,1.877 0.467,0.904 1.787,1.129 2.529,0.432 z m 13.9,-2.177 c -0.121,-0.86 -0.344,-1.519 -0.823,-2.433 -0.661,-1.258 -0.985,-1.503 -2.005,-1.519 -1.03,-0.02 -1.527,-0.327 -1.978,-1.237 -0.21,-0.426 -0.439,-0.664 -0.706,-0.733 -0.69,-0.181 -2.441,-0.1 -3.285,0.154 -1.247,0.373 -1.265,0.397 -0.883,1.153 0.181,0.357 0.452,0.825 0.603,1.038 l 0.273,0.389 0.904,-0.209 c 1.554,-0.359 3.127,0.1 4.221,1.222 0.591,0.608 1.257,1.94 1.257,2.514 0,0.173 0.251,0.217 1.25,0.217 l 1.251,0 -0.08,-0.556 z m -1.862,-4.72 c 0.194,-0.128 0.453,-0.47 0.575,-0.762 0.19,-0.455 0.193,-0.605 0.02,-1.061 -0.226,-0.593 -1.014,-1.202 -1.555,-1.202 -0.544,0 -1.201,0.4 -1.451,0.884 -0.819,1.584 0.913,3.122 2.411,2.141 z" id="path-main"/>
    </g>
  </defs>
  <g id="acyl-visual">
    <use id="visible1" style="fill:url(#acyl-gradient)" xlink:href="#acyl-drawing"/>
  </g>
</svg>
