<svg xmlns="http://www.w3.org/2000/svg" xmlns:xlink="http://www.w3.org/1999/xlink" width="48" height="48">
  <defs id="acyl-settings">
    <linearGradient id="acyl-gradient" x1="0%" x2="0%" y1="0%" y2="100%">
      <stop offset="100%" style="stop-color:#A0A0A0;stop-opacity:1.000000"/>
    </linearGradient>
    <g id="acyl-filter">
      <filter id="filter"/>
    </g>
    <g id="acyl-drawing">
      <path d="m 23.345083,44.818498 0,-1.1814 -2.88178,-0.4167 c -4.98391,-0.7206 -8.646761,-2.6226 -11.9646804,-6.2128 -5.52429,-5.9777 -6.64163,-14.4473 -2.89951,-21.9786 2.79833,-5.6319 10.0107804,-10.2906 15.9314304,-10.2906 l 1.47152,0 0,-1.3721 c 0,-1.2696 0.0705,-1.3716 0.9433,-1.3661 2.08498,0.013 5.90337,1.088 8.66126,2.438 5.61592,2.7491 10.06751,8.3703 11.51106,14.5355 0.82167,3.5093 0.53804,9.1652 -0.61483,12.2601 -2.97941,7.9984 -10.19238,13.8356 -17.99702,14.5644 l -2.16075,0.2018 0,-1.1815 z m -0.34302,-11.0949 c 0,-4.929 -0.007,-4.9738 -0.7718,-4.9751 -0.99789,0 -2.82342,-1.1196 -3.47194,-2.1262 -0.95073,-1.4757 -0.99908,-3.0568 -0.14474,-4.7329 0.66139,-1.2976 1.07314,-1.6529 2.58381,-2.2296 l 1.79704,-0.6861 0.004,-4.888 0.004,-4.888 -1.37208,0 -1.37208,0 0,2.6752 0,2.6753 -1.23898,0.448 -1.23899,0.448 -1.85204,-1.829 -1.85203,-1.829 -1.789091,1.789 -1.789079,1.7891 1.844119,1.8673 c 1.777971,1.8004 1.828971,1.9039 1.421821,2.8869 -0.486611,1.1748 -1.146441,1.4167 -3.8820804,1.4232 l -1.97237,0 0,2.3867 0,2.3867 2.6452404,0.1002 2.645229,0.1002 0.496141,1.3064 0.49614,1.3064 -1.770341,1.7926 -1.770359,1.7926 1.716759,1.691 1.716751,1.6909 1.82087,-1.7982 1.82089,-1.7983 1.2657,0.5288 1.2657,0.5289 0,2.568 0,2.5681 1.37208,0 1.37208,0 0,-4.9738 z m 1.73679,-9.2929 c 2.49949,-4.0938 3.05848,-5.3437 2.69426,-6.0242 -0.60387,-1.1283 -1.16647,-0.6857 -2.89981,2.2816 l -1.70275,2.9149 -0.72601,-0.8908 c -0.83264,-1.0216 -1.97299,-1.0009 -2.10461,0.038 -0.0476,0.3754 0.38338,1.4256 0.95762,2.3338 1.3977,2.2107 2.10743,2.088 3.7813,-0.6536 z" id="path-main"/>
    </g>
  </defs>
  <g id="acyl-visual">
    <use id="visible1" style="fill:url(#acyl-gradient);filter:url(#filter)" xlink:href="#acyl-drawing"/>
  </g>
</svg>
