<svg xmlns="http://www.w3.org/2000/svg" xmlns:xlink="http://www.w3.org/1999/xlink" width="48" height="48">
  <defs id="acyl-settings">
    <linearGradient id="acyl-gradient" x1="0%" x2="0%" y1="0%" y2="100%">
      <stop offset="100%" style="stop-color:#A0A0A0;stop-opacity:1.000000"/>
    </linearGradient>
    <g id="acyl-filter">
      <filter id="filter"/>
    </g>
    <g id="acyl-drawing">
      <path d="M 19.744152,45.606062 C 12.905727,44.171883 7.406773,39.982728 4.313252,33.850657 1.712405,28.695179 1.277153,22.349705 3.147334,16.852924 3.857916,14.764402 4.457538,13.573749 5.838382,11.509362 7.1176,9.5969116 9.772054,6.9503554 11.67417,5.6909392 c 2.56234,-1.6965594 5.799577,-2.9599963 8.869651,-3.4616701 1.571064,-0.2567227 5.282524,-0.2567227 6.853589,0 4.416485,0.721687 8.523264,2.7545754 11.716539,5.7997826 4.938484,4.7094963 7.374996,11.0715443 6.804416,17.7672123 -0.857601,10.063805 -8.307942,18.164044 -18.311163,19.90846 -2.182823,0.380652 -5.793625,0.335346 -7.86305,-0.09866 z m 4.584077,-3.291533 c 0.372067,-0.41113 1.771235,-0.929741 2.50836,-0.929741 0.987881,0 1.094193,-0.131585 0.968737,-1.199031 -0.09328,-0.793646 -0.03761,-1.135859 0.297348,-1.827782 0.226663,-0.468223 0.360288,-0.90314 0.296946,-0.966482 -0.06334,-0.06334 -0.549885,0.06501 -1.081203,0.285229 -0.531318,0.220219 -1.085343,0.400399 -1.231165,0.400399 -0.145824,0 -0.618244,-0.346552 -1.049822,-0.770115 l -0.784691,-0.770115 -0.428545,0.402596 c -0.527808,0.495851 -0.680496,0.506154 -0.680496,0.04592 0,-0.561442 -0.321023,-0.620835 -1.020163,-0.188741 -0.726564,0.449041 -1.552466,1.555494 -1.552466,2.079826 0,0.190598 0.248075,0.629085 0.551277,0.974413 0.303203,0.345329 0.551278,0.707684 0.551278,0.805236 0,0.09755 0.190191,0.177365 0.422647,0.177365 0.506787,0 0.863668,0.318916 0.863668,0.771789 0,0.337104 0.608716,1.065804 0.890316,1.065804 0.0854,0 0.300492,-0.160459 0.477974,-0.356574 z m 10.325358,-1.388008 c 0.289489,-0.150978 0.702778,-0.275016 0.91842,-0.275639 0.475093,-0.0013 1.721155,-1.325514 1.721155,-1.829007 0,-0.196207 0.196933,-0.58569 0.437631,-0.865517 0.368488,-0.428394 0.405802,-0.578629 0.236174,-0.950919 -0.183132,-0.401933 -0.116218,-0.519538 0.735771,-1.293126 l 0.937223,-0.85098 -0.09133,-1.758824 c -0.08097,-1.559297 -0.04502,-1.851145 0.316891,-2.57263 0.224521,-0.447593 0.604516,-1.023666 0.844434,-1.280162 0.489588,-0.52342 1.360944,-2.531929 1.360944,-3.137034 0,-0.372894 -0.05992,-0.388125 -1.075064,-0.273276 -1.206727,0.136526 -1.232347,0.119514 -1.772121,-1.176713 -0.189388,-0.454805 -0.40751,-0.901165 -0.484715,-0.991911 -0.0772,-0.09075 -0.539631,0.249248 -1.027615,0.755539 -0.487983,0.506294 -1.091807,0.983107 -1.341832,1.059586 -0.720755,0.220469 -1.061537,0.623745 -1.195093,1.414261 -0.07895,0.467312 -0.411808,1.087869 -0.914653,1.705227 -0.434792,0.533808 -1.001798,1.305227 -1.260015,1.714268 -0.258215,0.409041 -0.555524,0.796889 -0.660688,0.861883 -0.279555,0.172774 -0.233417,1.135659 0.08381,1.749112 0.186857,0.361344 0.224199,0.667673 0.116489,0.955611 -0.08719,0.233082 -0.214866,0.882996 -0.283723,1.444252 -0.106235,0.865918 -0.04384,1.241629 0.411992,2.480751 0.295454,0.803156 0.598331,1.832395 0.673061,2.2872 0.07473,0.454804 0.172559,0.888935 0.2174,0.964736 0.126123,0.213208 0.518407,0.16426 1.095448,-0.136688 z M 13.954878,37.252457 c 0.165806,-0.436103 0.224192,-0.451879 1.268419,-0.342737 1.651518,0.172618 1.682515,0.14254 1.373286,-1.332659 -0.173658,-0.828457 -0.197657,-1.278887 -0.07227,-1.356382 0.103253,-0.06381 0.780273,-0.05271 1.504489,0.02467 0.724217,0.07738 1.385767,0.09804 1.470113,0.04592 0.08434,-0.05213 0.154622,-0.52403 0.156169,-1.04867 0.0015,-0.52464 0.06517,-1.051944 0.141372,-1.17179 0.07621,-0.119844 0.550418,-0.243882 1.053802,-0.275639 l 0.915245,-0.05774 0,-1.13887 c 0,-0.626381 0.08269,-1.217898 0.183759,-1.314486 0.106893,-0.102153 0.549497,-0.118271 1.058106,-0.03853 1.059981,0.166186 1.195593,0.03964 1.273072,-1.187965 0.07452,-1.180707 0.414926,-1.246868 1.87882,-0.365165 l 1.08609,0.65415 0.441294,-0.414574 c 0.38741,-0.363954 0.426775,-0.520122 0.3224,-1.27902 -0.193741,-1.408667 -0.06057,-1.503002 2.143298,-1.518202 1.74715,-0.01206 2.006052,-0.0616 3.148697,-0.602639 4.721921,-2.235803 5.82221,-8.347369 2.161808,-12.007771 -1.946885,-1.946885 -4.836211,-2.6466659 -7.573699,-1.834312 -1.073453,0.318546 -2.831036,1.598764 -3.562013,2.594556 -1.093741,1.489971 -1.424388,2.560299 -1.442931,4.670877 l -0.01615,1.837594 -0.712737,0.05844 c -0.392006,0.03214 -0.953411,-0.04125 -1.247569,-0.163092 -0.474891,-0.196705 -0.585514,-0.173923 -0.987037,0.203289 -0.558417,0.524607 -0.558257,0.555679 0.0072,1.388919 0.277862,0.409452 0.459398,0.936246 0.459398,1.333113 0,0.612773 -0.326356,0.984639 -4.93656,5.624954 l -4.936561,4.968803 -0.1098,1.376028 c -0.06489,0.813274 -0.03585,1.449975 0.07101,1.556838 0.118574,0.118574 2.25124,-1.888906 6.195883,-5.83219 3.30829,-3.307151 6.076629,-6.013001 6.151864,-6.013001 0.494325,0 -0.508664,1.106356 -5.748352,6.340772 -4.270312,4.266016 -5.871207,5.978801 -5.834357,6.242139 0.06769,0.483697 0.791464,0.825483 1.755106,0.828808 0.669002,0.0023 0.811309,-0.0651 0.959332,-0.454437 z M 31.978243,15.366515 c -0.470747,-0.396108 -0.565377,-0.608671 -0.565377,-1.26998 0,-0.66131 0.09463,-0.873873 0.565377,-1.269981 0.765802,-0.644379 1.520371,-0.623366 2.205147,0.06141 0.397675,0.397673 0.537143,0.711477 0.537143,1.20857 0,0.497092 -0.139468,0.810896 -0.537143,1.20857 -0.684776,0.684777 -1.439345,0.70579 -2.205147,0.06141 z M 8.322829,26.545993 c 0.04693,-0.07593 3.68e-4,-0.567649 -0.103438,-1.09271 C 8.069085,24.693111 7.950963,24.487237 7.639576,24.442728 7.314829,24.396308 7.257268,24.279396 7.300112,23.753216 7.388492,22.667797 7.219712,22.512153 6.599099,23.106741 6.129787,23.556371 5.981014,23.605508 5.547914,23.453938 5.097661,23.296364 5.037497,23.175721 4.988416,22.332034 c -0.04855,-0.834529 0.0053,-1.001723 0.459398,-1.426315 0.282916,-0.264536 0.721121,-0.52473 0.97379,-0.57821 0.252669,-0.05348 0.602986,-0.174933 0.778484,-0.269896 0.506297,-0.273961 1.029235,-0.202534 1.426628,0.194858 0.516641,0.516641 0.700942,0.460486 0.835062,-0.254429 0.0719,-0.383265 0.397758,-0.894541 0.849102,-1.332256 0.402834,-0.390668 0.846227,-0.97958 0.985316,-1.308693 0.144852,-0.342744 0.462165,-0.677952 0.742742,-0.784626 0.269417,-0.102433 0.720052,-0.432674 1.001411,-0.733869 0.281357,-0.301196 0.666713,-0.547628 0.856344,-0.547628 0.459681,0 1.161597,-0.505976 1.161597,-0.837336 0,-0.158685 -0.180178,-0.26522 -0.448552,-0.26522 -0.246705,0 -0.497097,-0.07854 -0.556425,-0.17454 -0.150955,-0.244247 0.506199,-0.560497 1.164693,-0.560497 1.298116,0 2.063863,-0.713114 1.369503,-1.275374 -0.203313,-0.164633 -0.450982,-0.544537 -0.550375,-0.844234 -0.111423,-0.335971 -0.328374,-0.566715 -0.565821,-0.601793 -0.211808,-0.03129 -0.51733,-0.258691 -0.678939,-0.505338 -0.161609,-0.2466453 -0.450567,-0.448446 -0.642128,-0.448446 -0.367556,0 -1.113308,1.025705 -1.113308,1.531238 0,0.161383 -0.186056,0.392532 -0.413458,0.513664 -0.227402,0.121133 -0.504241,0.343353 -0.615197,0.493824 -0.175765,0.238358 -0.248953,0.228578 -0.568439,-0.07595 C 11.238159,12.048721 10.812119,11.750564 10.493087,11.578396 9.601719,11.097362 9.742717,10.674552 11.083709,9.8073154 12.460552,8.9168933 12.973742,8.0663213 12.391159,7.640325 11.888906,7.2730674 11.68253,7.326365 11.228402,7.9406042 11.004234,8.243807 10.71066,8.491882 10.576012,8.491882 c -0.403594,0 -3.173795,3.017847 -4.167522,4.540087 -1.074349,1.645737 -1.979033,3.504403 -2.530627,5.199154 -0.450987,1.385645 -0.947685,3.670243 -0.947685,4.358953 0,1.019866 1.664931,2.447291 3.177137,2.72391 0.488802,0.08941 0.837658,0.312602 1.170306,0.748725 0.452131,0.592774 0.860765,0.781721 1.045208,0.483287 z M 20.821893,9.6847173 c 0.05851,-0.1524798 0.02601,-0.4886288 -0.07222,-0.7469998 -0.28987,-0.7624136 -0.229352,-0.816312 0.888189,-0.7910506 1.429182,0.032307 2.123656,-0.3453756 2.652562,-1.4425691 0.305055,-0.6328284 0.554548,-0.8971661 0.94031,-0.996262 0.706593,-0.18151 1.220631,-0.6754292 1.220631,-1.1728582 0,-0.3298222 -0.20713,-0.4859753 -1.075294,-0.8106467 -1.235141,-0.461912 -2.561214,-0.409638 -4.602938,0.1814476 -0.988209,0.2860893 -1.252455,0.303166 -1.653833,0.1068744 -0.522117,-0.2553391 -1.059551,-0.2018431 -1.488381,0.1481504 -0.151601,0.1237306 -0.647751,0.3309982 -1.102555,0.4605944 -0.454804,0.1295962 -1.074992,0.3703282 -1.378195,0.53496 -0.303203,0.1646336 -0.675315,0.3002682 -0.826917,0.3014112 -0.151601,0.0011 -0.302842,0.1940883 -0.336092,0.4287655 -0.03325,0.2346771 -0.262693,0.7247024 -0.509875,1.0889446 -0.499878,0.7366119 -0.486113,1.0890677 0.03883,0.9940678 0.609438,-0.1102905 1.073654,-0.093107 1.402808,0.051928 C 15.448142,8.2546635 15.566335,7.5887787 15.0631,7.209189 L 14.643028,6.8923256 15.055516,6.6034082 C 15.52107,6.27732 15.72084,6.3258876 16.916209,7.0557647 c 0.931017,0.5684685 1.410196,0.6504509 1.55754,0.2664767 0.09407,-0.2451514 -1.131461,-1.6359188 -1.611773,-1.8290792 -0.191677,-0.077085 -0.184658,-0.1375769 0.03391,-0.2921496 0.47807,-0.3380969 0.874432,-0.2224149 1.9219,0.5609306 1.088459,0.8139985 1.2157,1.1552009 0.715483,1.9186288 -0.286278,0.4369134 -0.279562,0.5116207 0.12329,1.3717299 0.429568,0.9171444 0.948093,1.1985421 1.165337,0.6324149 z" id="path-main"/>
    </g>
  </defs>
  <g id="acyl-visual">
    <use id="visible1" style="fill:url(#acyl-gradient);filter:url(#filter)" xlink:href="#acyl-drawing"/>
  </g>
</svg>
