<svg xmlns="http://www.w3.org/2000/svg" xmlns:xlink="http://www.w3.org/1999/xlink" width="48" height="48">
  <defs id="acyl-settings">
    <linearGradient id="acyl-gradient" x1="0%" x2="0%" y1="0%" y2="100%">
      <stop offset="100%" style="stop-color:#A0A0A0;stop-opacity:1.000000"/>
    </linearGradient>
    <g id="acyl-filter">
      <filter/>
    </g>
    <g id="acyl-drawing">
      <path d="M 10.79,43.42 C 8.182,42.69 5.852,40.75 4.725,38.38 3.749,36.33 3.672,35.59 3.731,28.87 l 0.05,-6.02 2.336,2.34 c 3.687,3.68 7.209,8.05 10.579,13.13 0.99,1.51 1.86,2.68 1.93,2.61 0.1,-0.1 0.91,-1.49 1.87,-3.18 6.59,-11.58 14.66,-20.96 21.97,-25.54 1.13,-0.72 1.58,-0.92 1.69,-0.75 0.22,0.36 0.18,23.5 -0,24.62 -0.72,3.48 -3.63,6.5 -7.1,7.4 -0.97,0.25 -2.71,0.29 -13.12,0.27 -10.82,0 -12.13,-0 -13.1,-0.33 z M 17.18,27.97 C 15.28,24.86 11.24,20.3 6.536,15.97 L 3.65,13.31 3.749,12.13 C 4.037,8.709 6.089,5.72 9.176,4.233 9.966,3.852 11.09,3.455 11.68,3.349 c 1.48,-0.268 23.12,-0.263 24.66,0 0.63,0.109 1.14,0.255 1.14,0.323 0,0.07 -0.58,0.602 -1.28,1.186 -1.94,1.619 -5.7,5.592 -7.96,8.422 -3.63,4.56 -6.52,8.86 -10.02,14.96 l -0.42,0.73 -0.62,-1 z " id="path-main"/>
    </g>
  </defs>
  <g id="acyl-visual">
    <use id="visible1" style="fill:url(#acyl-gradient);filter:url(#filter)" xlink:href="#acyl-drawing"/>
  </g>
</svg>
