<svg xmlns="http://www.w3.org/2000/svg" xmlns:xlink="http://www.w3.org/1999/xlink" width="48" height="48">
  <defs id="acyl-settings">
    <linearGradient id="acyl-gradient" x1="0%" x2="0%" y1="0%" y2="100%">
      <stop offset="100%" style="stop-color:#A0A0A0;stop-opacity:1.000000"/>
    </linearGradient>
    <g id="acyl-filter">
      <filter id="filter"/>
    </g>
    <g id="acyl-drawing">
      <path d="m 3.880635,45.854275 c -0.58846,-0.25568 -0.54633,1.42945 -0.54633,-21.8523 0,-23.35828966 -0.0455,-21.6006997 0.56561,-21.8560397 0.46567,-0.19456 39.73451,-0.19456 40.20017,0 0.6111,0.25534 0.56561,-1.50224996 0.56561,21.8560397 0,23.35829 0.0455,21.60071 -0.56561,21.85604 -0.45896,0.19177 -39.77789,0.18811 -40.21945,-0.004 z m 38.84731,-1.88433 c 0.12723,-0.23774 0.12723,-39.6981997 0,-39.9359297 -0.0896,-0.16735 -0.39218,-0.1701 -18.72794,-0.1701 -18.33577,0 -18.63838,0.003 -18.72795,0.1701 -0.12723,0.23773 -0.12723,39.6981897 0,39.9359297 0.0896,0.16735 0.39218,0.17009 18.72795,0.17009 18.33576,0 18.63838,-0.003 18.72794,-0.17009 z m -29.16158,-1.26682 c -0.29555,-0.16226 -5.11981,-4.29747 -5.17189,-4.43319 -0.0259,-0.0674 -0.009,-0.19332 0.0372,-0.27988 0.0463,-0.0866 1.19492,-1.10269 2.55244,-2.25806 2.47816,-2.10915 2.8821,-2.37889 3.02088,-2.01724 0.0762,0.19867 0.18465,8.41183 0.11471,8.69047 -0.0768,0.30616 -0.30985,0.4316 -0.55336,0.2979 z m 8.49898,-0.49775 -4.08917,-0.044 -0.0242,-1.48837 c -0.0133,-0.8186 0.0105,-1.52303 0.0528,-1.56539 0.0429,-0.0429 4.90963,-0.0904 10.98873,-0.10728 9.56075,-0.0265 10.91787,-0.0142 10.96154,0.0996 0.0274,0.0714 0.0498,0.78082 0.0498,1.57643 0,1.07832 -0.028,1.45626 -0.10992,1.48464 -0.17382,0.0602 -13.31476,0.0929 -17.82966,0.0443 z m -3.42963,-5.53402 -0.65954,-0.0501 0,-1.53894 0,-1.53893 8.74994,0 8.74994,0 0,1.53893 0,1.53894 -1.14321,0.0559 c -1.403,0.0686 -14.78243,0.0637 -15.69713,-0.006 z M 8.276485,25.303475 c -0.11498,-0.11498 -0.12792,-1.09801 -0.0308,-2.34347 l 0.0572,-0.73419 9.0992,-0.0309 c 7.01145,-0.0238 9.1146,-0.007 9.16631,0.0746 0.0369,0.0581 0.0677,0.76418 0.0684,1.56914 0.001,1.25428 -0.0185,1.4712 -0.13775,1.51695 -0.0765,0.0294 -4.18414,0.0534 -9.12808,0.0534 -6.87418,0 -9.01381,-0.0248 -9.09451,-0.10553 z m 0.59799,-5.4285 -0.65955,-0.0501 -0.0304,-0.30778 c -0.0167,-0.16929 -0.003,-0.8717 0.0311,-1.56092 l 0.0615,-1.25314 10.23409,0 10.23409,0 0.0488,0.19787 c 0.0269,0.10882 0.0375,0.81123 0.0237,1.56092 l -0.0252,1.36305 -2.0226,0.0544 c -2.51156,0.0676 -16.99559,0.0641 -17.89561,-0.004 z m 24.96675,-0.32352 c -0.0933,-0.11245 -0.1248,-1.02967 -0.1533,-4.46799 -0.033,-3.97592 -0.0238,-4.33855 0.11295,-4.4753 0.0819,-0.0818 0.20373,-0.14882 0.27084,-0.14882 0.0671,0 1.29105,0.99394 2.71984,2.20874 2.21784,1.88568 2.5978,2.24345 2.5978,2.44608 0,0.20255 -0.37434,0.55547 -2.5542,2.40807 -1.4048,1.1939 -2.62671,2.17072 -2.71534,2.17072 -0.0886,0 -0.214,-0.0637 -0.27859,-0.1415 z m -25.61676,-5.27361 c -0.0294,-0.0767 -0.0535,-0.74675 -0.0535,-1.48902 0,-1.10964 0.0246,-1.37415 0.13819,-1.48777 0.12417,-0.12417 1.2612,-0.13819 11.20147,-0.13819 9.30785,0 11.07929,0.0193 11.16417,0.12155 0.0693,0.0835 0.0933,0.58556 0.0767,1.60489 l -0.0242,1.48334 -11.22469,0.0223 c -10.17867,0.0202 -11.22967,0.009 -11.27819,-0.11711 z m 0.0525,-5.4185297 c -0.12157,-0.12157 -0.15141,-2.85304 -0.0332,-3.03922 0.0556,-0.0875 1.7452,-0.10573 8.15501,-0.0879 l 8.08492,0.0224 0,1.58291 0,1.5829 -8.05037,0.0224 c -6.18852,0.0172 -8.07488,-0.002 -8.15635,-0.0835 z" id="path-main"/>
    </g>
  </defs>
  <g id="acyl-visual">
    <use id="visible1" style="fill:url(#acyl-gradient);filter:url(#filter)" xlink:href="#acyl-drawing"/>
  </g>
</svg>
