<svg xmlns="http://www.w3.org/2000/svg" xmlns:xlink="http://www.w3.org/1999/xlink" width="48" height="48">
  <defs id="acyl-settings">
    <linearGradient id="acyl-gradient" x1="0%" x2="0%" y1="0%" y2="100%">
      <stop offset="100%" style="stop-color:#A0A0A0;stop-opacity:1.000000"/>
    </linearGradient>
    <g id="acyl-filter">
      <filter/>
    </g>
    <g id="acyl-drawing">
      <path d="m 25.568696,45.798446 c -2.481266,-0.66547 -4.475487,-3.23126 -4.920685,-6.331022 l -0.26578,-1.85053 -6.870803,-0.171875 C 6.184644,37.261738 5.487375,37.109158 3.821095,35.324551 2.067069,33.445967 2,32.868152 2,19.635126 2,7.3890941 2.0056,7.2925941 2.799827,5.7881481 3.239734,4.9548961 4.25785,3.8090821 5.062311,3.2418941 c 1.416583,-0.998768 1.603683,-1.03484 5.940024,-1.145235 2.462553,-0.06269 4.8849,-0.0117 5.382991,0.113312 0.504755,0.126686 2.740268,2.041069 5.050409,4.324922 l 4.14479,4.0976259 4.726808,0 c 3.437691,0 4.979963,0.134104 5.65505,0.491718 1.002832,0.531231 8.549338,8.072478 9.474183,9.467581 C 45.925138,21.328813 46,22.7261 46,31.108064 c 0,9.455593 -0.01743,9.699349 -0.799827,11.181332 -0.439907,0.83325 -1.458225,1.97906 -2.262931,2.54625 l -1.463103,1.03125 -7.619882,0.055 c -4.190935,0.0303 -7.919436,-0.0253 -8.285561,-0.12349 z m 15.936178,-4.08711 1.057626,-0.889932 0,-9.569889 c 0,-11.212242 0.180465,-10.650246 -3.419962,-10.650246 -1.641303,0 -2.465041,-0.151139 -2.759862,-0.506378 -0.231142,-0.278508 -0.520786,-1.627866 -0.643654,-2.998574 -0.197495,-2.203238 -0.323038,-2.542501 -1.082772,-2.926055 -0.877436,-0.442976 -5.691604,-0.612709 -6.67501,-0.23534 -0.472374,0.181266 -0.54374,1.173858 -0.54374,7.5625 0,4.975401 0.118477,7.353847 0.366317,7.353847 0.201472,0 1.551348,-0.92403 2.999723,-2.0534 1.448375,-1.12937 2.744204,-1.94148 2.879618,-1.804688 0.135416,0.136792 0.293743,1.099494 0.351838,2.139338 l 0.105629,1.890625 2.40625,0.171875 2.40625,0.171875 0.105146,1.449567 c 0.118845,1.638391 -0.04069,1.73305 -3.198896,1.898107 l -1.71875,0.08983 -0.103983,2.006416 c -0.123549,2.383963 -0.0787,2.387366 -3.614856,-0.274162 -1.391425,-1.047271 -2.702194,-1.904129 -2.912824,-1.904129 -0.210626,0 -0.629382,0.519303 -0.930569,1.154006 -0.301187,0.634704 -1.004537,1.591769 -1.563004,2.126813 -0.839805,0.804585 -1.013282,1.244038 -1.00321,2.541306 0.0067,0.862675 0.217089,1.938193 0.467528,2.390039 0.879518,1.586839 1.628068,1.731399 9.032981,1.744399 l 6.934564,0.0122 1.057622,-0.88993 z M 21.358257,33.983281 C 24.058472,33.233468 24,33.483081 24,22.70586 24,15.450626 23.895631,13.040094 23.570313,12.781836 23.333984,12.594224 22.063801,12.358441 20.747685,12.257875 17.70084,12.025061 17.125,11.436712 17.125,8.5564911 c 0,-2.92376 -0.253612,-3.080222 -4.992756,-3.080222 -2.301172,0 -4.283585,0.169125 -4.813723,0.410673 C 5.50053,6.7152741 5.4375,7.1889271 5.4375,20.022216 c 0,15.238479 -0.633284,14.244613 9.109375,14.296134 3.025,0.016 6.090122,-0.134784 6.811382,-0.335069 z m -7.738486,-7.760744 -0.104146,-2.011893 -2.225462,-0.104339 c -2.356017,-0.110461 -2.745135,-0.369076 -2.75365,-1.830133 -0.0074,-1.2716 0.579937,-1.620875 2.928502,-1.741477 l 2.05061,-0.105301 0.103091,-1.976562 c 0.06076,-1.164976 0.260744,-1.976563 0.487042,-1.976563 0.677992,0 7.454016,5.309066 7.45845,5.84375 0.0045,0.543875 -6.215189,5.489437 -7.24109,5.757717 -0.511394,0.133731 -0.614464,-0.138132 -0.703347,-1.855199 z" id="path-main"/>
    </g>
  </defs>
  <g id="acyl-visual">
    <use id="visible1" style="fill:url(#acyl-gradient);filter:url(#filter)" xlink:href="#acyl-drawing"/>
  </g>
</svg>
