<svg xmlns="http://www.w3.org/2000/svg" xmlns:xlink="http://www.w3.org/1999/xlink" width="48" height="48">
  <defs id="acyl-settings">
    <linearGradient id="acyl-gradient" x1="0%" x2="0%" y1="0%" y2="100%">
      <stop offset="100%" style="stop-color:#A0A0A0;stop-opacity:1.000000"/>
    </linearGradient>
    <g id="acyl-filter">
  </g>
    <g id="acyl-drawing">
      <path id="path-main" d="m 17.78,8.95 c -1.03,0 -5.53,0.3 -10.3,3.78 0,0 -5.48,9.39 -5.48,20.92 0,0 3.02,5.1 11.37,5.4 0,0 1.18,-1.59 2.41,-2.99 -4.66,-1.39 -6.45,-4.2 -6.45,-4.2 l 1.53,0.81 c 4.56,1.84 9.4,4.17 18.03,2.77 1.81,-0.39 3.63,-0.77 5.42,-1.58 1.2,-0.6 2.66,-1.19 4.23,-2.21 0,0 -1.82,2.81 -6.67,4.2 1.01,1.38 2.41,2.99 2.41,2.99 C 42.6,38.66 45.7,33.38 46,33.68 46,22.15 40.51,12.75 40.51,12.75 35.59,9.15 31,9 30.14,9 l -0.57,0.55 c 6.29,1.78 9.33,4.58 9.33,4.58 -9.12,-4.49 -18.95,-4.74 -27.98,-1.2 -1.39,0.6 -2.21,1 -2.21,1 0,0 3.02,-2.99 9.76,-4.58 l -0.41,-0.4 z m -0.77,13.17 c 2.17,0 3.86,1.78 3.86,3.96 0,2.2 -1.74,4 -3.86,4 -2.1,0 -3.84,-1.8 -3.84,-3.97 0,-2.21 1.74,-3.99 3.84,-3.99 z m 13.78,0 c 2.12,0 3.85,1.78 3.85,3.96 0,2.2 -1.73,4 -3.85,4 -2.11,0 -3.84,-1.8 -3.84,-3.97 0,-2.21 1.73,-3.99 3.84,-3.99 z"/>
    </g>
  </defs>
  <g id="acyl-visual">
    <use id="visible1" style="fill:url(#acyl-gradient)" xlink:href="#acyl-drawing"/>
  </g>
</svg>
