<svg xmlns="http://www.w3.org/2000/svg" xmlns:xlink="http://www.w3.org/1999/xlink" width="48" height="48">
  <defs id="acyl-settings">
    <linearGradient id="acyl-gradient" x1="0%" x2="0%" y1="0%" y2="100%">
      <stop offset="100%" style="stop-color:#A0A0A0;stop-opacity:1.000000"/>
    </linearGradient>
    <g id="acyl-filter">
  </g>
    <g id="acyl-drawing">
      <path d="M 24.0001,2 C 19.568,2 15.4498,3.313 11.9963,5.568 l -3.9016,0 c -1.4046,0 -2.5272,1.122 -2.5272,2.527 l 0,3.902 C 3.3129,15.45 2.0001,19.568 2.0001,24 c 0,4.432 1.3128,8.55 3.5674,12.003 l 0,3.902 c 0,1.405 1.1226,2.528 2.5272,2.528 l 3.9016,0 C 15.4498,44.687 19.568,46 24.0001,46 c 4.4322,0 8.5501,-1.313 12.0035,-3.567 l 3.9017,0 c 1.4044,0 2.5267,-1.123 2.5267,-2.528 l 0,-3.902 C 44.6867,32.55 45.9999,28.432 45.9999,24 c 0,-4.432 -1.3132,-8.55 -3.5679,-12.003 l 0,-3.902 c 0,-1.405 -1.1223,-2.527 -2.5267,-2.527 l -3.9017,0 C 32.5502,3.313 28.4323,2 24.0001,2 Z m 0,4.162 c 9.8446,0 17.8371,7.994 17.8371,17.838 0,9.844 -7.9925,17.837 -17.8371,17.837 -9.8445,0 -17.8368,-7.993 -17.8368,-17.837 0,-9.844 7.9923,-17.838 17.8368,-17.838 z m 0,1.19 C 14.7983,7.352 7.3523,14.798 7.3523,24 c 0,9.202 7.446,16.648 16.6478,16.648 9.2018,0 16.6478,-7.446 16.6478,-16.648 0,-9.202 -7.446,-16.648 -16.6478,-16.648 z m 0,9.959 A 6.68916,6.68916 0 0 1 30.6891,24 6.68916,6.68916 0 0 1 24.0001,30.689 6.68916,6.68916 0 0 1 17.3108,24 6.68916,6.68916 0 0 1 24.0001,17.311 Z m -0.037,1.429 a 5.36524,5.21898 0 0 0 -5.3652,5.219 5.36524,5.21898 0 0 0 5.3652,5.219 5.36524,5.21898 0 0 0 5.3652,-5.219 5.36524,5.21898 0 0 0 -5.3652,-5.219 z" id="path-main"/>
    </g>
  </defs>
  <g id="acyl-visual">
    <use id="visible1" style="fill:url(#acyl-gradient)" xlink:href="#acyl-drawing"/>
  </g>
</svg>
