<svg xmlns="http://www.w3.org/2000/svg" xmlns:xlink="http://www.w3.org/1999/xlink" width="48" height="48">
  <defs id="acyl-settings">
    <linearGradient id="acyl-gradient" x1="0%" x2="0%" y1="0%" y2="100%">
      <stop offset="100%" style="stop-color:#A0A0A0;stop-opacity:1.000000"/>
    </linearGradient>
    <g id="acyl-filter">
      <filter/>
    </g>
    <g id="acyl-drawing">
      <path d="M 24.005417,4.7838454 3.0507163,23.919778 c -1.990087,1.817076 -0.966742,4.725689 1.507868,4.72569 l 3.264457,0 0,8.876212 c 0,2.73952 2.2037967,4.94332 4.9433187,4.94332 l 22.726835,0 c 2.739522,0 4.94332,-2.2038 4.94332,-4.94332 l 0,-8.876212 3.015736,0 c 2.47461,0 3.482409,-2.908614 1.492323,-4.72569 l -6.870904,-6.280192 0,-10.8659756 c 0,-0.442416 -0.350381,-0.792797 -0.792796,-0.792797 l -4.259338,0 c -0.442416,0 -0.792797,0.350381 -0.792797,0.792797 l 0,5.5184846 -8.223322,-7.5082496 z" id="path-main"/>
    </g>
  </defs>
  <g id="acyl-visual">
    <use id="visible1" style="fill:url(#acyl-gradient);filter:url(#filter)" xlink:href="#acyl-drawing"/>
  </g>
</svg>
