<svg xmlns="http://www.w3.org/2000/svg" xmlns:xlink="http://www.w3.org/1999/xlink" width="48" height="48">
  <defs id="acyl-settings">
    <linearGradient id="acyl-gradient" x1="0%" x2="0%" y1="0%" y2="100%">
      <stop offset="100%" style="stop-color:#A0A0A0;stop-opacity:1.000000"/>
    </linearGradient>
    <g id="acyl-filter">
      <filter id="filter"/>
    </g>
    <g id="acyl-drawing">
      <path d="m 1.99983,24 0,-22.04597 1.81159,0 c 1.28889,0 1.83176,0.0325 1.8814,0.11286 0.0383,0.0622 0.0947,9.11121 0.1252,20.10921 l 0.0555,19.996 20.03738,0.048 20.0373,0.048 0.026,1.8889 0.026,1.889 -22,0 -22.00003,0 0,-22.0457 z M 9.74265,39.4702 C 9.31723,38.9573 8.92911,38.4656 8.88023,38.3774 c -0.1074,-0.1938 -0.57271,0.2069 5.96317,-5.1346 2.7767,-2.2692 5.1179,-4.1259 5.2028,-4.1259 0.085,0 2.0195,1.0362 4.2993,2.3027 2.2799,1.2664 4.2071,2.2886 4.2827,2.2715 0.075,-0.017 2.6794,-2.1831 5.7865,-4.8133 3.1071,-2.6302 5.7277,-4.7949 5.8235,-4.8104 0.1208,-0.019 0.4219,0.2684 0.9813,0.9383 0.4439,0.5315 0.8071,1.0176 0.8071,1.0803 0,0.1023 -12.6039,10.8556 -12.9678,11.0636 -0.1133,0.065 -1.2137,-0.5039 -4.3518,-2.249 -2.3101,-1.2847 -4.2649,-2.3368 -4.3439,-2.3381 -0.079,0 -2.2955,1.7607 -4.9256,3.9157 -2.6301,2.155 -4.8133,3.9197 -4.8517,3.9214 -0.038,0 -0.4177,-0.4165 -0.84315,-0.9294 z M 9.65848,34.5759 C 9.173,34.0492 8.78985,33.5599 8.80726,33.4886 8.86177,33.2627 21.7158,21.4654 21.9071,21.4654 c 0.099,0 1.389,0.6051 2.8673,1.3446 1.4783,0.7395 2.7153,1.3186 2.7491,1.2869 0.034,-0.032 2.6437,-3.0335 5.7999,-6.6705 3.1562,-3.637 5.7845,-6.6274 5.8407,-6.6451 0.1705,-0.054 2.0021,1.5871 2.0021,1.7938 0,0.2073 -12.7184,14.9666 -12.9762,15.0584 -0.099,0.035 -1.2272,-0.477 -2.9507,-1.3391 -1.5349,-0.7679 -2.85,-1.383 -2.9224,-1.3671 -0.073,0.016 -2.6961,2.3963 -5.8304,5.2895 -3.1342,2.8931 -5.754,5.2729 -5.8219,5.2884 -0.068,0.015 -0.5205,-0.4027 -1.00612,-0.9293 z M 15.5531,15.7812 c -1.1987,-0.4309 -2.1253,-1.6562 -2.636,-3.4857 -0.1083,-0.3879 -0.2237,-0.7322 -0.2564,-0.7651 -0.032,-0.033 -0.863,-0.081 -1.845,-0.1076 l -1.78569,-0.048 0,-0.7652 0,-0.76514 1.78339,-0.026 c 1.3696,-0.02 1.8085,-0.056 1.8921,-0.1571 0.06,-0.072 0.1946,-0.4402 0.2991,-0.81766 0.4133,-1.49109 1.2218,-2.66406 2.216,-3.21496 l 0.5044,-0.27966 2.0085,0 2.0085,0 0.048,0.76514 0.048,0.76515 1.6585,0.0478 c 1.6,0.0459 1.665,0.0555 1.8412,0.27364 0.287,0.35493 0.2039,0.84788 -0.1734,1.02874 -0.094,0.045 -0.8802,0.10377 -1.7482,0.13084 l -1.5781,0.0488 0,2.19981 0,2.1998 1.5781,0.048 c 0.983,0.03 1.655,0.092 1.782,0.1647 0.3658,0.2097 0.4263,0.6418 0.1396,0.9964 -0.1762,0.2178 -0.2412,0.2275 -1.8412,0.2736 l -1.6585,0.048 -0.048,0.7653 -0.048,0.765 -1.9128,0.021 c -1.4194,0.015 -2.0066,-0.013 -2.2761,-0.1099 z" id="path-main"/>
    </g>
  </defs>
  <g id="acyl-visual">
    <use id="visible1" style="fill:url(#acyl-gradient);filter:url(#filter)" xlink:href="#acyl-drawing"/>
  </g>
</svg>
