<svg xmlns="http://www.w3.org/2000/svg" xmlns:xlink="http://www.w3.org/1999/xlink" width="48" height="48">
  <defs id="acyl-settings">
    <linearGradient id="acyl-gradient" x1="0%" x2="0%" y1="0%" y2="100%">
      <stop offset="100%" style="stop-color:#A0A0A0;stop-opacity:1.000000"/>
    </linearGradient>
    <g id="acyl-filter">
  </g>
    <g id="acyl-drawing">
      <path d="M 38.125092,2 C 28.971666,2 27.255075,15.037109 32.404389,15.037109 37.552958,15.037109 47.27889,2 38.125092,2 Z M 23.982514,3.597656 c -0.14535,-5e-4 -0.299905,0.0084 -0.460938,0.0293 -5.151174,0.668595 -3.338531,9.627494 -0.595703,9.794922 2.656034,0.162196 5.562484,-9.808697 1.056641,-9.824219 z m -8.765626,3.546875 c -0.314788,-0.02056 -0.664652,0.04103 -1.052735,0.201172 -4.140286,1.708507 -0.628017,8.761116 1.691407,8.287109 2.103664,-0.428893 2.404278,-8.289586 -0.638672,-8.488281 z m -6.7578119,5.525391 c -0.359977,-0.01211 -0.749588,0.10637 -1.164063,0.392578 -3.314313,2.290039 1.114485,7.822818 3.0644529,6.964844 1.706222,-0.751053 0.619443,-7.27262 -1.9003899,-7.357422 z M 27.386811,16.902344 C 20.281365,16.782136 10.909102,20.347395 9.3106381,27.505859 7.5794421,35.252553 16.43585,46 25.677826,46 30.224402,46 35.468188,41.894036 36.449311,36.693359 21.512962,28.999578 36.118242,28.67481 35.558686,21.119141 35.096726,18.374163 31.650078,16.974468 27.386811,16.902344 Z m -9.765625,5.80664 c 0.983995,6.86e-4 1.968413,0.37271 2.71875,1.123047 1.031711,1.031713 1.355641,2.501438 0.96875,3.808594 l 7.93164,7.9375 c 0.682023,0.68202 0.682018,1.780871 0,2.462891 l -0.167968,0.167968 c -0.682018,0.682014 -1.778915,0.682019 -2.460938,0 L 18.652436,30.25 c -1.290852,0.357606 -2.731337,0.03038 -3.746095,-0.984375 -0.607493,-0.607491 -0.971706,-1.364486 -1.087891,-2.154297 l 2.853517,1.150391 c 0.635079,0.256278 1.355045,-0.04851 1.611328,-0.683594 l 0.292969,-0.738281 c 0.256284,-0.635079 -0.04851,-1.349185 -0.683594,-1.605469 l -3.125001,-1.261719 c 0.0432,-0.04762 0.09269,-0.09465 0.138672,-0.140625 0.750337,-0.750338 1.73085,-1.123747 2.714845,-1.123047 z m 10.615234,1.464844 c 0.399327,6.02e-4 0.795292,0.15464 1.101563,0.460938 0.612631,0.612597 0.618457,1.59834 0.0059,2.210937 l -3.931641,3.925781 -0.601562,-0.597656 4.117187,-4.117187 c 0.06425,-0.06426 0.06425,-0.164266 0,-0.228516 -0.06426,-0.06425 -0.174031,-0.06425 -0.238281,0 l -4.107422,4.107422 -0.544922,-0.537109 4.115235,-4.115235 c 0.06425,-0.06426 0.06425,-0.166219 0,-0.230469 -0.06426,-0.06425 -0.166219,-0.06425 -0.230469,0 l -4.115234,4.115235 -0.605469,-0.607422 3.925781,-3.925781 c 0.3063,-0.306298 0.710045,-0.461522 1.109375,-0.460938 z m -7.99414,8.669922 0.886718,0.886719 -1.849609,1.847656 -0.230469,1.207031 -3.123048,1.939453 -0.675781,-0.677734 1.945313,-3.123047 1.207032,-0.230469 z" id="path-main"/>
    </g>
  </defs>
  <g id="acyl-visual">
    <use id="visible1" style="fill:url(#acyl-gradient)" xlink:href="#acyl-drawing"/>
  </g>
</svg>
