<svg xmlns="http://www.w3.org/2000/svg" xmlns:xlink="http://www.w3.org/1999/xlink" width="48" height="48">
  <defs id="acyl-settings">
    <linearGradient id="acyl-gradient" x1="0%" x2="0%" y1="0%" y2="100%">
      <stop offset="100%" style="stop-color:#A0A0A0;stop-opacity:1.000000"/>
    </linearGradient>
    <g id="acyl-filter">
  </g>
    <g id="acyl-drawing">
      <path d="M 3.35 2 A 1.349 1.349 0 0 0 2 3.35 L 2 44.65 A 1.349 1.349 0 0 0 3.35 46 L 44.65 46 A 1.349 1.349 0 0 0 46 44.65 L 46 3.35 A 1.349 1.349 0 0 0 44.65 2 L 3.35 2 z M 4.699 4.699 L 43.3 4.699 L 43.3 43.3 L 4.699 43.3 L 4.699 4.699 z M 24 8.246 C 15.32 8.246 8.246 15.32 8.246 24 C 8.246 32.68 15.32 39.75 24 39.75 C 32.68 39.75 39.75 32.68 39.75 24 C 39.75 15.32 32.68 8.246 24 8.246 z M 24 11.67 C 30.83 11.67 36.33 17.17 36.33 24 C 36.33 30.83 30.83 36.33 24 36.33 C 17.17 36.33 11.67 30.83 11.67 24 C 11.67 17.17 17.17 11.67 24 11.67 z M 19.03 17.32 A 2.674 2.674 0 0 0 16.36 19.99 A 2.674 2.674 0 0 0 19.03 22.66 A 2.674 2.674 0 0 0 21.7 19.99 A 2.674 2.674 0 0 0 19.03 17.32 z M 28.97 17.32 A 2.674 2.674 0 0 0 26.3 19.99 A 2.674 2.674 0 0 0 28.97 22.66 A 2.674 2.674 0 0 0 31.64 19.99 A 2.674 2.674 0 0 0 28.97 17.32 z M 18.14 26.22 C 17.39 26.32 16.85 27.15 17.19 27.86 C 18.19 29.66 19.2 31.05 20.31 32.06 C 21.42 33.05 22.65 33.66 23.94 33.67 C 25.25 33.67 26.5 33.08 27.61 32.09 C 28.72 31.1 29.75 29.69 30.77 27.86 C 31.18 27.12 30.65 26.22 29.81 26.22 L 18.14 26.22 z" id="path-main"/>
    </g>
  </defs>
  <g id="acyl-visual">
    <use id="visible1" style="fill:url(#acyl-gradient)" xlink:href="#acyl-drawing"/>
  </g>
</svg>
