<svg xmlns="http://www.w3.org/2000/svg" xmlns:xlink="http://www.w3.org/1999/xlink" width="48" height="48">
  <defs id="acyl-settings">
    <linearGradient id="acyl-gradient" x1="0%" x2="0%" y1="0%" y2="100%">
      <stop offset="100%" style="stop-color:#A0A0A0;stop-opacity:1.000000"/>
    </linearGradient>
    <g id="acyl-filter">
  </g>
    <g id="acyl-drawing">
      <path id="path-main" d="M 19.6,3.256 19.43,3.36 14.1,5.611 15.2,11.11 10.14,13.42 7.506,11.11 2.008,16.6 5.15,20.01 v 11.39 0.12 h 7.07 c 0.44,0 0.79,0.35 0.79,0.79 v 2.36 h 6.28 v -2.36 c 0,-0.43 0.35,-0.79 0.78,-0.79 H 24 27.93 c 0.43,0 0.78,0.36 0.78,0.79 v 2.36 h 6.28 v -2.36 c 0,-0.44 0.35,-0.79 0.79,-0.79 h 7.07 v -1 -10.51 L 45.99,16.6 40.5,11.11 37.86,13.42 32.8,11.11 33.9,5.611 28.4,3.256 26.51,6.399 H 21.47 Z M 13,18.96 c 2.61,0 4.72,2.11 4.72,4.71 0,2.61 -2.11,4.72 -4.72,4.72 -2.6,0 -4.709,-2.11 -4.709,-4.72 0,-2.6 2.109,-4.71 4.709,-4.71 z m 22,0 c 2.6,0 4.71,2.11 4.71,4.71 0,2.61 -2.11,4.72 -4.71,4.72 -2.61,0 -4.72,-2.11 -4.72,-4.72 0,-2.6 2.11,-4.71 4.72,-4.71 z m -22,2.46 c -1.24,0 -2.25,1.01 -2.25,2.25 0,3 4.5,3 4.5,0 0,-1.24 -1.01,-2.25 -2.25,-2.25 z m 22,0 c -1.24,0 -2.25,1.01 -2.25,2.25 0,3 4.5,3 4.5,0 0,-1.24 -1.01,-2.25 -2.25,-2.25 z M 24,22.1 c 0.86,0 1.57,0.71 1.57,1.57 v 3.15 c 0,0.86 -0.71,1.57 -1.57,1.57 -0.86,0 -1.57,-0.71 -1.57,-1.57 v -3.15 c 0,-0.86 0.71,-1.57 1.57,-1.57 z M 5.15,33.73 v 1.11 c 0,0 3.142,9.9 18.85,9.9 15.71,0 18.85,-9.9 18.85,-9.9 v -1.11 h -6.28 v 2.37 c 0,0.44 -0.35,0.79 -0.79,0.79 h -7.85 c -0.44,0 -0.79,-0.35 -0.79,-0.79 V 33.73 H 24 20.86 v 2.37 c 0,0.44 -0.35,0.79 -0.79,0.79 h -7.85 c -0.44,0 -0.79,-0.35 -0.79,-0.79 v -2.37 z"/>
    </g>
  </defs>
  <g id="acyl-visual">
    <use id="visible1" style="fill:url(#acyl-gradient)" xlink:href="#acyl-drawing"/>
  </g>
</svg>
