<svg xmlns="http://www.w3.org/2000/svg" xmlns:xlink="http://www.w3.org/1999/xlink" width="48" height="48">
  <defs id="acyl-settings">
    <linearGradient id="acyl-gradient" x1="0%" x2="0%" y1="0%" y2="100%">
      <stop offset="100%" style="stop-color:#A0A0A0;stop-opacity:1.000000"/>
    </linearGradient>
    <g id="acyl-filter">
  </g>
    <g id="acyl-drawing">
      <path d="m 32.3085,45.9551 c -0.405,-0.101 -0.781,-0.384 -0.993,-0.746 -0.174,-0.296 -0.207,-0.455 -0.237,-1.12 l -0.03,-0.775 -0.455,-0.176 -0.456,-0.177 -0.468,0.458 c -0.734,0.719 -1.248,0.899 -1.927,0.673 -0.314,-0.104 -0.577,-0.33 -1.756,-1.512 -1.512,-1.516 -1.672,-1.757 -1.588,-2.399 0.06,-0.467 0.229,-0.755 0.748,-1.285 l 0.458,-0.468 -0.177,-0.456 -0.176,-0.455 -0.775,-0.03 c -0.95,-0.04 -1.351,-0.233 -1.686,-0.805 l -0.212,-0.359 0,-2.018 0,-2.017 0.212,-0.36 c 0.335,-0.571 0.736,-0.762 1.686,-0.804 l 0.775,-0.04 0.175,-0.451 0.175,-0.452 -0.453,-0.472 c -0.522,-0.543 -0.69,-0.833 -0.75,-1.288 -0.08,-0.643 0.08,-0.883 1.588,-2.399 1.179,-1.182 1.442,-1.408 1.756,-1.512 0.679,-0.226 1.193,-0.05 1.927,0.672 l 0.469,0.458 0.455,-0.176 0.455,-0.177 0.03,-0.774 c 0.04,-0.95 0.234,-1.351 0.805,-1.687 l 0.359,-0.211 2.018,0 2.017,0 0.36,0.211 c 0.571,0.336 0.762,0.737 0.804,1.687 l 0.04,0.774 0.451,0.175 0.452,0.176 0.472,-0.453 c 0.756,-0.726 1.254,-0.9 1.933,-0.674 0.32,0.106 0.573,0.326 1.787,1.55 1.328,1.339 1.42,1.45 1.506,1.822 0.144,0.616 0.03,0.981 -0.561,1.76 -0.505,0.667 -0.519,0.709 -0.374,1.101 l 0.127,0.34 0.776,0.04 c 0.953,0.04 1.353,0.233 1.689,0.804 l 0.211,0.36 0,2.017 0,2.018 -0.211,0.359 c -0.336,0.572 -0.736,0.763 -1.687,0.805 l -0.774,0.03 -0.177,0.455 -0.176,0.456 0.458,0.468 c 0.691,0.706 0.858,1.142 0.699,1.822 -0.09,0.373 -0.178,0.484 -1.51,1.827 -1.303,1.315 -1.451,1.44 -1.824,1.549 -0.698,0.203 -1.14,0.05 -1.892,-0.677 l -0.472,-0.453 -0.452,0.175 -0.451,0.175 -0.04,0.775 c -0.04,0.95 -0.233,1.351 -0.804,1.686 l -0.36,0.212 -1.865,0.01 c -1.026,0 -1.973,-0.01 -2.104,-0.05 z m 3.701,-5.485 c 2.102,-0.608 3.819,-2.334 4.431,-4.456 0.251,-0.873 0.254,-2.545 0,-3.409 -0.519,-1.796 -1.751,-3.265 -3.406,-4.061 -1.035,-0.499 -1.488,-0.596 -2.778,-0.598 -1.321,0 -1.753,0.1 -2.855,0.643 -1.28,0.635 -2.221,1.576 -2.858,2.858 -0.546,1.099 -0.644,1.533 -0.644,2.854 0,1.326 0.1,1.763 0.646,2.855 0.929,1.855 2.587,3.081 4.721,3.492 0.105,0.02 0.636,0.03 1.18,0.01 0.729,-0.02 1.139,-0.07 1.558,-0.19 z m -2.358,-3.055 c -1.614,-0.315 -2.8,-2.003 -2.521,-3.589 0.303,-1.728 1.955,-2.944 3.605,-2.655 1.367,0.24 2.415,1.288 2.655,2.655 0.284,1.619 -0.914,3.284 -2.589,3.596 -0.47,0.09 -0.671,0.09 -1.15,0 z m 1.446,-1.14 c 1.378,-0.622 1.732,-2.368 0.7,-3.448 -0.841,-0.881 -2.233,-0.881 -3.075,0 -0.824,0.862 -0.796,2.191 0.06,3.012 0.428,0.408 0.883,0.591 1.475,0.591 0.334,0 0.606,-0.05 0.837,-0.155 z m -22.932,5.917 c -1.937,-0.66 -2.938,-2.701 -2.273,-4.633 0.343,-0.997 1.259,-1.937 2.147,-2.203 0.248,-0.07 0.959,-0.759 4.19,-4.038 2.14,-2.172 3.906,-3.935 3.922,-3.918 0.02,0.02 -0.685,2.527 -1.559,5.578 -0.942,3.284 -1.626,5.808 -1.676,6.185 -0.258,1.917 -1.72,3.212 -3.618,3.206 -0.443,0 -0.767,-0.05 -1.133,-0.177 z m -5.531,-7.136 c -0.994,-0.195 -2.054,-1.031 -2.504,-1.975 -0.739,-1.55 -0.328,-3.358 1.008,-4.43 0.706,-0.568 1.759,-0.886 2.591,-0.785 0.327,0.04 1.151,-0.143 5.824,-1.291 2.994,-0.735 5.486,-1.352 5.539,-1.37 0.05,-0.02 0.1,-0.02 0.1,0 0,0.02 -1.9,1.766 -4.221,3.885 -3.315,3.027 -4.268,3.939 -4.444,4.249 -0.739,1.304 -2.358,2.021 -3.888,1.72 z m -1.988,-9.348 c -1.627,-0.526 -2.6,-1.828 -2.597,-3.473 0,-2.054 1.566,-3.626 3.605,-3.623 0.886,0 1.554,0.219 2.212,0.722 0.33,0.252 0.872,0.432 5.671,1.885 2.919,0.883 5.348,1.627 5.397,1.654 0.05,0.03 -2.468,0.578 -5.595,1.225 -4.102,0.849 -5.771,1.224 -5.99,1.347 -0.722,0.403 -1.912,0.518 -2.703,0.263 z m 23.836,-4.905 c 0.184,-0.139 2.144,-1.601 4.357,-3.248 3.855,-2.87 4.036,-3.016 4.365,-3.515 0.428,-0.65 0.827,-1.001 1.509,-1.328 1.36,-0.652 2.922,-0.428 4.016,0.576 1.858,1.705 1.462,4.722 -0.774,5.893 -0.659,0.344 -1.296,0.466 -2.047,0.39 -0.322,-0.03 -0.671,-0.06 -0.776,-0.05 -0.105,0 -2.582,0.351 -5.506,0.772 -2.923,0.421 -5.352,0.765 -5.397,0.765 -0.04,0 0.07,-0.113 0.253,-0.252 z m -14.091,-1.921 c -2.91,-0.934 -5.48,-1.719 -5.71,-1.744 -1.184,-0.128 -1.882,-0.421 -2.539,-1.068 -1.388,-1.366 -1.432,-3.597 -0.1,-5.036 0.478,-0.516 1.197,-0.938 1.869,-1.09396 0.553,-0.129 1.531,-0.06 2.081,0.14996 0.942,0.356 1.757,1.179 2.114,2.133 0.16,0.426 0.43,0.728 3.931,4.381 2.067,2.158 3.759,3.939 3.759,3.959 0,0.06 0.145,0.101 -5.405,-1.681 z m 11.768,0.302 c 0.07,-0.164 1.058,-2.525 2.2,-5.247 1.987,-4.73496 2.078,-4.97396 2.118,-5.54396 0.105,-1.501 1.324,-2.859 2.852,-3.177 0.243,-0.05 0.688,-0.07 1.007,-0.05 2.547,0.179 4.092,2.877 2.991,5.22296 -0.304,0.649 -1.141,1.445 -1.811,1.725 -0.447,0.186 -1.234,0.78 -4.872,3.678 -2.387,1.9 -4.4,3.509 -4.474,3.573 -0.129,0.113 -0.13,0.105 -0.01,-0.181 z m -8.25,-4.316 c -1.721,-2.19 -3.19,-4.035 -3.266,-4.101 -0.08,-0.06 -0.317,-0.214 -0.536,-0.331 -0.808,-0.432 -1.557,-1.41596 -1.765,-2.32196 -0.101,-0.439 -0.101,-1.236 0,-1.675 0.388,-1.686 2.142,-2.96 3.837,-2.786 0.674,0.07 1.352,0.32 1.85,0.687 0.547,0.403 0.86,0.792 1.175,1.463 0.21,0.448 0.248,0.624 0.272,1.245 0.01,0.398 0,0.877 -0.05,1.066 -0.07,0.302 0.02,0.945 0.794,5.51196 0.481,2.843 0.861,5.181 0.846,5.196 -0.01,0.01 -1.435,-1.764 -3.155,-3.954 z m 4.908,-1.593 c -0.711,-5.22596 -0.758,-5.51096 -0.977,-5.94396 -0.945,-1.873 -0.232,-4.045 1.63,-4.963 1.386,-0.682 3.085,-0.39 4.169,0.717 1.299,1.328 1.395,3.297 0.235,4.836 -0.231,0.306 -0.682,1.42 -2.252,5.55996 -1.079,2.847 -1.984,5.2 -2.01,5.229 -0.03,0.03 -0.384,-2.416 -0.795,-5.435 z" id="path-main"/>
    </g>
  </defs>
  <g id="acyl-visual">
    <use id="visible1" style="fill:url(#acyl-gradient)" xlink:href="#acyl-drawing"/>
  </g>
</svg>
