<svg xmlns="http://www.w3.org/2000/svg" xmlns:xlink="http://www.w3.org/1999/xlink" width="48" height="48">
  <defs id="acyl-settings">
    <linearGradient id="acyl-gradient" x1="0%" x2="0%" y1="0%" y2="100%">
      <stop offset="100%" style="stop-color:#A0A0A0;stop-opacity:1.000000"/>
    </linearGradient>
    <g id="acyl-filter">
  </g>
    <g id="acyl-drawing">
      <path d="m 9.50265,43.7397 c -0.061,-0.159 -0.1116,-0.637 -0.1116,-1.059 0,-0.732 -0.035,-0.784 -0.7318,-1.057 l -0.7318,-0.288 -0.687,0.621 c -0.3778,0.342 -0.7604,0.621 -0.8499,0.621 -0.2681,0 -2.7678,-2.601 -2.7678,-2.88 0,-0.142 0.2596,-0.525 0.5769,-0.853 0.5602,-0.578 0.5698,-0.614 0.3351,-1.27 -0.3036,-0.848 -0.4467,-0.94 -1.4785,-0.943 -1.0235,0 -1.0558,-0.07 -1.0558,-2.168 0,-1.894 0.1682,-2.161 1.3602,-2.161 0.6966,0 0.8273,-0.06 1.0686,-0.532 0.3991,-0.772 0.3425,-1.139 -0.2657,-1.721 -0.2974,-0.285 -0.5408,-0.647 -0.5408,-0.805 0,-0.421 2.3737,-2.71 2.8099,-2.71 0.2021,0 0.6005,0.243 0.8855,0.54 0.5898,0.616 0.796,0.651 1.5412,0.266 0.4666,-0.241 0.5317,-0.372 0.5317,-1.068 0,-1.193 0.2673,-1.361 2.16135,-1.361 2.0984,0 2.1646,0.03 2.1678,1.056 0,1.032 0.095,1.175 0.9431,1.479 0.656,0.234 0.6922,0.225 1.2703,-0.336 0.3274,-0.317 0.7411,-0.576 0.9195,-0.576 0.3926,0 2.813,2.294 2.813,2.666 0,0.145 -0.2792,0.574 -0.6206,0.951 l -0.6207,0.687 0.2875,0.732 c 0.2776,0.707 0.3155,0.732 1.1164,0.735 1.2818,0 1.2991,0.04 1.2409,2.265 l -0.052,1.968 -0.9596,0.06 c -0.9353,0.05 -0.9681,0.07 -1.2988,0.811 l -0.339,0.757 0.6228,0.638 c 0.3425,0.351 0.6227,0.755 0.6227,0.897 0,0.302 -2.5098,2.881 -2.8033,2.881 -0.1091,0 -0.3949,-0.21 -0.6354,-0.467 -0.6955,-0.744 -0.925,-0.801 -1.7432,-0.435 -0.7266,0.325 -0.7486,0.361 -0.8019,1.294 l -0.055,0.96 -2.0067,0.05 c -1.71025,0.04 -2.02285,0 -2.11795,-0.24 z m 5.00905,-3.204 c 4.6623,-2.135 5.0547,-8.83 0.682,-11.636 -2.6475,-1.699 -5.98505,-1.313 -8.25195,0.954 -1.7386,1.738 -2.382,3.966 -1.8008,6.235 1.0644,4.154 5.45665,6.239 9.37075,4.447 z m -4.4084,-0.367 c -1.60875,-0.434 -3.09725,-1.711 -3.81105,-3.269 -0.3263,-0.713 -0.4131,-1.222 -0.4144,-2.434 0,-1.404 0.05,-1.627 0.6141,-2.668 1.0254,-1.891 2.6384,-2.92 4.79175,-3.056 4.0422,-0.256 7.0687,3.583 5.8889,7.469 -0.6036,1.986 -1.9557,3.311 -4.001,3.918 -1.1268,0.335 -1.9371,0.345 -3.0683,0.04 z m 2.9004,-3.054 c 1.6102,-0.851 2.0816,-2.939 0.9876,-4.373 -1.2402,-1.626 -3.5881,-1.549 -4.85405,0.16 -0.5548,0.749 -0.5319,2.519 0.043,3.325 0.89555,1.256 2.44705,1.616 3.82335,0.888 z m -2.6962,-0.951 c -0.98425,-0.829 -1.06685,-2.241 -0.1826,-3.125 1.3522,-1.352 3.5926,-0.386 3.5926,1.549 0,1.759 -2.0607,2.711 -3.41,1.576 z m 10.2599,3.536 c 0,-0.195 -0.2434,-0.632 -0.5408,-0.97 -0.792,-0.902 -0.723,-1.2 0.2785,-1.2 0.6297,0 0.9219,-0.102 1.2618,-0.442 0.4182,-0.418 0.4426,-0.556 0.4426,-2.499 0,-1.808 -0.045,-2.115 -0.3737,-2.532 -0.3038,-0.386 -0.5238,-0.475 -1.1773,-0.475 -1.0341,0 -1.207,-0.367 -0.514,-1.09 0.3475,-0.363 0.5097,-0.725 0.519,-1.16 l 0.014,-0.633 12.7612,0 12.7609,0 -0.05,5.243 -0.05,5.244 -0.506,0.435 -0.506,0.434 -12.1574,0 c -11.9662,0 -12.1582,0 -12.1582,-0.355 z m 21.6346,-2.802 c 0.754,-0.39 0.898,-0.78 0.898,-2.434 0,-1.382 -0.03,-1.498 -0.527,-1.995 l -0.527,-0.527 -4.442,0 c -5.7157,0 -5.6652,-0.02 -5.6744,2.628 -0.01,1.471 0.035,1.673 0.3998,2.005 0.223,0.203 0.5272,0.413 0.676,0.468 0.1487,0.05 2.1604,0.105 4.4704,0.113 3.4141,0.01 4.2982,-0.04 4.7262,-0.258 z m -39.72835,1.872 c -0.2217,-1.109 -0.1664,-1.24 0.5238,-1.24 0.8582,0 0.9684,0.388 0.3286,1.158 -0.283,0.34 -0.5651,0.625 -0.6271,0.632 -0.062,0 -0.1633,-0.24 -0.2253,-0.55 z m -0.1127,-8.63 c 0,-1.078 0.06,-1.442 0.2392,-1.442 0.1606,0 0.2144,0.169 0.1635,0.515 -0.057,0.389 0.066,0.678 0.501,1.173 0.7042,0.802 0.6163,1.196 -0.2672,1.196 l -0.6365,0 0,-1.442 z m 0.04,-13.896 0.05,-11.55296 0.4255,-0.344 c 0.4136,-0.335 1.0187,-0.345 21.37815,-0.345 l 20.9522,0 0.344,0.38 c 0.329,0.363 0.345,0.861 0.392,11.89696 l 0.05,11.517 -13.1929,0 -13.1925,0 -1.1264,-1.081 c -1.3163,-1.264 -1.7439,-1.347 -2.6839,-0.522 -0.8047,0.707 -1.1775,0.596 -1.1775,-0.35 0,-0.437 -0.1408,-0.881 -0.3737,-1.177 -0.3672,-0.467 -0.4108,-0.475 -2.5824,-0.475 -2.07575,0 -2.23235,0.03 -2.60075,0.417 -0.2745,0.293 -0.3919,0.645 -0.3919,1.178 0,1.006 -0.3558,1.129 -1.1774,0.407 -0.9401,-0.825 -1.3677,-0.742 -2.6839,0.522 -0.9617,0.923 -1.2238,1.081 -1.7922,1.081 l -0.6659,0 0.05,-11.552 z m 35.47145,3.666 0.6309,-0.315 0,-2.794 0,-2.794 -0.6309,-0.316 c -0.5833,-0.291 -1.6184,-0.315 -13.6998,-0.315 -12.0814,0 -13.1166,0.02 -13.7,0.315 l -0.63095,0.316 0,2.794 0,2.794 0.63095,0.315 c 0.5834,0.291 1.6186,0.315 13.7,0.315 12.0814,0 13.1165,-0.02 13.6998,-0.315 z M 13.134,17.9647 c -0.911,-0.502 -0.8858,-1.856 0.044,-2.337 0.6459,-0.334 1.3438,-0.199 1.7155,0.332 0.852,1.216 -0.4657,2.718 -1.7593,2.005 z m 4.0085,0.148 c -0.5956,-0.215 -0.9013,-0.66 -0.9013,-1.312 0,-1.446 1.9102,-1.906 2.5038,-0.603 0.2884,0.633 0.2509,0.887 -0.2055,1.389 -0.4382,0.482 -0.9669,0.681 -1.3971,0.526 z m 3.3822,-0.148 c -0.9111,-0.502 -0.8858,-1.856 0.044,-2.337 0.6459,-0.334 1.3438,-0.199 1.7155,0.332 0.8519,1.216 -0.4658,2.718 -1.7593,2.005 z m 4.0084,0.148 c -0.5956,-0.215 -0.9014,-0.66 -0.9014,-1.312 0,-1.446 1.9103,-1.906 2.5038,-0.603 0.2885,0.633 0.2511,0.887 -0.2055,1.389 -0.4381,0.482 -0.9668,0.681 -1.397,0.526 z m 3.3822,-0.148 c -0.911,-0.502 -0.8859,-1.856 0.044,-2.337 0.6458,-0.334 1.3439,-0.199 1.7156,0.332 0.8519,1.216 -0.4658,2.718 -1.7594,2.005 z m 4.0084,0.148 c -0.5956,-0.215 -0.9013,-0.66 -0.9013,-1.312 0,-0.74 0.3509,-1.164 1.1221,-1.357 0.3975,-0.1 0.5951,-0.02 1.0366,0.423 0.6497,0.65 0.6878,1.117 0.1397,1.72 -0.4382,0.482 -0.9669,0.681 -1.3971,0.526 z" id="path-main"/>
    </g>
  </defs>
  <g id="acyl-visual">
    <use id="visible1" style="fill:url(#acyl-gradient)" xlink:href="#acyl-drawing"/>
  </g>
</svg>
