<svg xmlns="http://www.w3.org/2000/svg" xmlns:xlink="http://www.w3.org/1999/xlink" width="48" height="48">
  <defs id="acyl-settings">
    <linearGradient id="acyl-gradient" x1="0%" x2="0%" y1="0%" y2="100%">
      <stop offset="100%" style="stop-color:#A0A0A0;stop-opacity:1.000000"/>
    </linearGradient>
    <g id="acyl-filter">
  </g>
    <g id="acyl-drawing">
      <path d="m 4.9674413,45.68929 c -0.1558301,-0.4061 -0.1558301,-42.972477 0,-43.378581 C 5.0750213,2.03036 6.9347212,2 24.000001,2 c 17.06528,0 18.92497,0.03036 19.03255,0.310709 0.15584,0.406104 0.15584,42.972481 0,43.378581 C 42.925181,45.9691 41.323091,46 26.925411,46 c -9.6556,0 -15.98791,-0.0719 -15.98791,-0.18157 0,-0.27113 6.82622,-6.78075 7.19311,-6.85948 0.17385,-0.0373 0.91327,0.20742 1.64316,0.54385 4.67851,2.15647 10.32177,0.57133 13.35802,-3.75214 2.67915,-3.81496 2.65333,-8.98832 -0.0638,-12.7961 -1.5993,-2.24122 -3.96069,-3.77026 -6.72801,-4.35652 -1.70774,-0.36178 -2.57929,-0.36178 -4.28703,0 -3.94432,0.8356 -7.0801,3.6456 -8.26935,7.41026 -0.68901,2.18109 -0.68214,4.79454 0.0177,6.73277 0.27306,0.75625 0.54766,1.58125 0.61024,1.83334 0.0971,0.39104 -0.42161,0.99661 -3.53314,4.125 -2.0058098,2.01666 -3.7411797,3.91549 -3.8563898,4.21963 -0.29066,0.76731 -0.26158,1.62469 0.0773,2.2801 0.15775,0.30504 0.2314101,0.61003 0.1636901,0.67774 C 7.1953013,45.94458 6.6779112,46 6.1132812,46 5.3583613,46 5.0551213,45.9178 4.9674513,45.68929 z M 40.893801,44.15085 c 0.65825,-0.65826 0.78318,-1.32537 0.39956,-2.13377 -0.96628,-2.0363 -4.03037,-0.98443 -3.54674,1.21755 0.29214,1.33008 2.18288,1.88052 3.14718,0.91622 z m 0.0928,-6.50382 c 1.14547,-1.14478 0.27633,-3.12917 -1.37054,-3.12917 -1.52547,0 -2.4681,1.75294 -1.56204,2.90482 0.81668,1.03824 2.02565,1.13073 2.93258,0.22435 z M 9.9062413,31.36175 c 1.2540197,-1.44325 -0.21541,-3.63371 -2.03481,-3.03325 -1.56245,0.51565 -1.69944,2.90308 -0.2031,3.53944 0.68878,0.29293 1.75266,0.0523 2.23791,-0.50619 z m 30.9299397,0.12264 c 0.52239,-0.46677 0.63702,-0.71419 0.63702,-1.375 0,-2.40895 -3.36596,-2.55426 -3.75416,-0.16208 -0.10346,0.63756 -0.037,0.80086 0.57574,1.41355 0.88511,0.88511 1.64756,0.92217 2.5414,0.12353 z M 9.7740313,25.19368 c 0.7674097,-0.76741 0.8000497,-1.89637 0.0758,-2.62066 -0.89074,-0.89074 -1.9473,-0.86192 -2.82202,0.077 -1.02925,1.10478 -0.0902,3.11786 1.45435,3.11786 0.53137,0 0.86681,-0.14909 1.2919,-0.57418 z m 30.9910897,0.0778 c 1.13017,-0.95098 0.90002,-2.58131 -0.44365,-3.14273 -1.58152,-0.6608 -3.12321,0.89143 -2.46461,2.48144 0.47984,1.15843 1.92651,1.48737 2.90826,0.66129 z M 9.7740313,18.90797 C 11.013501,17.66849 10.228661,15.75 8.4821313,15.75 c -1.74653,0 -2.53136,1.91849 -1.29189,3.15797 0.79245,0.79245 1.79133,0.79245 2.58379,0 z m 30.9910897,0.0778 c 0.7465,-0.62814 0.94009,-1.44238 0.53101,-2.23346 -1.09883,-2.12489 -4.35424,-0.63676 -3.43927,1.57218 0.47984,1.15842 1.92651,1.48737 2.90826,0.66128 z M 9.7740313,12.62226 c 0.7525797,-0.752581 0.7771397,-1.708037 0.0656,-2.553608 -0.42341,-0.503202 -0.65063,-0.604357 -1.35754,-0.604357 -0.7069,0 -0.93412,0.101155 -1.35754,0.604357 -0.7115,0.845571 -0.68694,1.801027 0.0657,2.553608 0.79245,0.79246 1.79133,0.79246 2.58379,0 z m 30.8175697,0.28295 c 1.12959,-0.584136 1.20583,-2.402136 0.13225,-3.154095 -1.05186,-0.736758 -2.75148,-0.06807 -2.98454,1.174223 -0.30698,1.636341 1.32542,2.769452 2.85229,1.979872 z M 9.7740313,6.336548 C 10.199121,5.911457 10.348201,5.576017 10.348201,5.044653 c 0,-0.99801 -0.8680597,-1.866072 -1.8660697,-1.866072 -0.99801,0 -1.86607,0.868062 -1.86607,1.866072 0,0.531364 0.14909,0.866804 0.57418,1.291895 0.42509,0.425092 0.76053,0.574176 1.29189,0.574176 0.53137,0 0.86681,-0.149084 1.2919,-0.574176 z M 40.693401,6.599992 c 0.672,-0.44031 0.99445,-1.509094 0.68249,-2.262214 -0.32066,-0.77414 -0.90523,-1.159197 -1.75983,-1.159197 -0.85709,0 -1.4393,0.385356 -1.76304,1.166936 -0.70427,1.700255 1.28115,3.276125 2.84038,2.254475 z M 22.878841,34.9305 c -2.76256,-0.77194 -4.50664,-3.60676 -3.92501,-6.37967 0.47123,-2.24662 2.06349,-3.87991 4.26211,-4.37194 3.49886,-0.783 6.88378,2.2747 6.51393,5.88424 -0.35332,3.44825 -3.62115,5.7699 -6.85103,4.86737 z" id="path-main"/>
    </g>
  </defs>
  <g id="acyl-visual">
    <use id="visible1" style="fill:url(#acyl-gradient)" xlink:href="#acyl-drawing"/>
  </g>
</svg>
