<svg xmlns="http://www.w3.org/2000/svg" xmlns:xlink="http://www.w3.org/1999/xlink" width="48" height="48">
  <defs id="acyl-settings">
    <linearGradient id="acyl-gradient" x1="0%" x2="0%" y1="0%" y2="100%">
      <stop offset="100%" style="stop-color:#A0A0A0;stop-opacity:1.000000"/>
    </linearGradient>
    <g id="acyl-filter">
  </g>
    <g id="acyl-drawing">
      <path d="M 24,2 C 11.875635,2 2,11.875608 2,24 2,36.124228 11.875635,46 24,46 36.124227,46 46,36.124228 46,24 46,11.875607 36.124227,2 24,2 Z m 0,3.1420923 C 34.425827,5.1420923 42.85791,13.574008 42.85791,24 42.85791,34.425827 34.425827,42.85791 24,42.85791 13.574035,42.85791 5.142089,34.425827 5.142089,24 5.142089,13.574008 13.574035,5.1420923 24,5.1420923 Z m -0.982911,4.0283182 c -0.528775,0 -0.956054,0.4179038 -0.956054,0.9345715 v 3.73291 c 0,0.516667 0.427279,0.9292 0.956054,0.9292 h 1.906738 c 0.528778,0 0.956056,-0.412533 0.956056,-0.9292 v -3.73291 c 0,-0.5166677 -0.427278,-0.9345715 -0.956056,-0.9345715 z m -8.4917,3.4375005 c -0.243925,4.9e-5 -0.489805,0.09119 -0.676756,0.273927 l -1.348146,1.321287 c -0.373901,0.365486 -0.37375,0.950582 0,1.315919 l 2.69629,2.642579 c 0.373753,0.365338 0.974242,0.365484 1.348143,0 l 1.353517,-1.321289 c 0.373901,-0.365486 0.373753,-0.95595 0,-1.32129 l -2.70166,-2.637206 c -0.186863,-0.182682 -0.427455,-0.273982 -0.671388,-0.273927 z m 18.895509,0 c -0.243925,-4.7e-5 -0.489883,0.09125 -0.676756,0.273927 l -2.69629,2.637209 c -0.373752,0.365337 -0.373901,0.955803 0,1.321289 l 1.348144,1.321287 c 0.373901,0.365486 0.974393,0.365341 1.348146,0 L 35.4458,15.519047 c 0.373752,-0.365341 0.373903,-0.950433 0,-1.315919 l -1.348144,-1.321287 c -0.186945,-0.182738 -0.432825,-0.273873 -0.676758,-0.27393 z m -13.75,5.064941 v 12.890625 h 1.154785 0.118168 c 0.223025,0.0012 0.44479,-0.04837 0.63916,-0.161122 l 8.9375,-5.15625 c 0.396523,-0.221925 0.596192,-0.674702 0.596192,-1.127929 0,-0.4532 -0.19976,-0.906252 -0.596192,-1.127929 l -8.9375,-5.15625 c -0.19415,-0.1111 -0.415998,-0.162498 -0.63916,-0.161123 H 20.825683 Z M 9.653808,22.23291 c -0.528775,0 -0.956054,0.417698 -0.956054,0.934572 v 1.863768 c 0,0.516876 0.427279,0.934571 0.956054,0.934571 h 3.818848 c 0.528776,0 0.956054,-0.417695 0.956054,-0.934571 v -1.863768 c 0,-0.516874 -0.427278,-0.934572 -0.956054,-0.934572 z m 24.814455,0 c -0.528567,0 -0.950684,0.417698 -0.950684,0.934572 v 1.863768 c 0,0.516876 0.422117,0.934571 0.950684,0.934571 h 3.818845 c 0.528566,0 0.956057,-0.417695 0.956057,-0.934571 v -1.863768 c 0,-0.516874 -0.427491,-0.934572 -0.956057,-0.934572 z m -18.594728,7.530273 c -0.24398,0 -0.489807,0.09119 -0.676758,0.273928 l -2.69629,2.637209 c -0.373898,0.365483 -0.373901,0.955803 0,1.321289 l 1.348146,1.315917 c 0.373901,0.365486 0.974243,0.365483 1.348144,0 l 2.70166,-2.637209 c 0.373901,-0.365483 0.373901,-0.955804 0,-1.32129 l -1.348143,-1.315919 c -0.186945,-0.182737 -0.432779,-0.273927 -0.676759,-0.273925 z m 16.199219,0 c -0.24398,0 -0.489808,0.09119 -0.676758,0.273928 l -1.348144,1.315919 c -0.373901,0.365486 -0.373901,0.955806 0,1.321289 l 2.69629,2.637206 c 0.373898,0.365484 0.979613,0.365487 1.353514,0 L 35.4458,33.995609 c 0.373903,-0.365486 0.373901,-0.955806 0,-1.32129 l -2.701658,-2.637208 c -0.186945,-0.182738 -0.427408,-0.273928 -0.671388,-0.273928 z m -9.055665,3.663086 c -0.528775,0 -0.956054,0.4177 -0.956054,0.93457 v 3.732911 c 0,0.516871 0.427279,0.934571 0.956054,0.934571 h 1.906738 c 0.528778,0 0.956056,-0.4177 0.956056,-0.934571 v -3.732911 c 0,-0.51687 -0.427278,-0.93457 -0.956056,-0.93457 z" id="path-main"/>
    </g>
  </defs>
  <g id="acyl-visual">
    <use id="visible1" style="fill:url(#acyl-gradient)" xlink:href="#acyl-drawing"/>
  </g>
</svg>
