<svg xmlns="http://www.w3.org/2000/svg" xmlns:xlink="http://www.w3.org/1999/xlink" width="48" height="48">
  <defs id="acyl-settings">
    <linearGradient id="acyl-gradient" x1="0%" x2="0%" y1="0%" y2="100%">
      <stop offset="100%" style="stop-color:#A0A0A0;stop-opacity:1.000000"/>
    </linearGradient>
    <g id="acyl-filter">
      <filter id="filter"/>
    </g>
    <g id="acyl-drawing">
      <path d="m 22.107785,44.305559 c -2.48682,-0.26588 -4.51535,-0.96866 -6.39098,-2.21415 -1.11044,-0.73737 -2.75489,-2.38473 -3.58739,-3.59374 l -0.63415,-0.92094 -0.94318,-0.23903 c -3.7797303,-0.95787 -6.4370803,-3.548 -7.7534303,-7.55731 -1.52353,-4.64032 -0.79777,-10.57623 1.58505,-12.96403 0.70593,-0.7074 1.32611,-0.98586 2.19737,-0.98661 0.59168,-5.3e-4 0.73873,0.035 1.27202,0.30749 0.43431,0.22189 0.70268,0.43551 0.95935,0.76363 0.19599,0.25056 0.39596,0.45803 0.44437,0.46105 0.0484,0.003 0.28001,-0.59807 0.51467,-1.33576 1.2342603,-3.88019 2.8463103,-6.8818802 4.7544403,-8.8529002 2.01968,-2.08624 4.20212,-3.14552 7.09164,-3.44204 1.28973,-0.13235 4.10337,-0.11277 5.19931,0.0362 3.44348,0.46801 5.97643,2.08549 8.13715,5.19618 1.33674,1.9244402 2.7085,4.9277102 3.44748,7.5477502 0.13313,0.47201 0.28691,0.85819 0.34175,0.85819 0.0548,0 0.23494,-0.18051 0.40025,-0.40113 0.58487,-0.78059 1.61476,-1.24976 2.53492,-1.15479 0.2704,0.0279 0.71934,0.16637 1.01883,0.31422 3.00003,1.48108 4.25348,8.31507 2.50408,13.65257 -1.37955,4.20908 -4.31404,6.88339 -8.446,7.69716 -0.1605,0.0316 -0.34516,0.22114 -0.62442,0.64089 -2.20048,3.30754 -5.306,5.36168 -9.08193,6.00721 -1.18176,0.20203 -3.83179,0.29852 -4.9412,0.17991 z m 3.0191,-1.32265 c 4.38317,-0.29929 7.50381,-2.0606 9.82404,-5.54475 0.71669,-1.07621 0.84813,-1.34286 1.2818,-2.60057 1.05785,-3.06787 1.52398,-6.18767 1.76829,-11.8351 0.0738,-1.70513 0.0748,-2.42984 0.004,-2.69321 -0.22536,-0.83694 -2.57862,-3.49597 -4.01437,-4.53599 -1.44263,-1.04501 -2.99282,-1.36134 -4.27807,-0.87298 -0.97925,0.37208 -2.34844,1.51929 -3.41473,2.8611 -0.27408,0.3449 -0.89042,1.19 -1.36965,1.87801 -0.47923,0.688 -0.91447,1.25092 -0.96719,1.25092 -0.0527,0 -0.4558,-0.48521 -0.89571,-1.07825 -2.68688,-3.62214 -5.1023,-5.35207 -7.17525,-5.13893 -1.50571,0.15481 -3.06573,1.27456 -4.56621,3.2775 -1.3761903,1.83704 -1.4382303,2.05456 -1.31536,4.61206 0.12775,2.65902 0.25183,4.33985 0.38988,5.28123 0.0674,0.4599 0.14608,1.13326 0.17475,1.49634 0.0601,0.76145 0.49254,2.95591 0.79784,4.04894 0.75794,2.71354 1.53146,4.15582 3.14055,5.85571 2.33926,2.47127 5.13743,3.64457 9.09275,3.81269 0.14523,0.006 0.83047,-0.0274 1.52275,-0.0747 z m -2.40295,-2.28387 c -2.17959,-0.56231 -3.8881,-1.63955 -6.02118,-3.79642 -0.96266,-0.9734 -0.97655,-0.98328 -1.30814,-0.93026 -1.07614,0.17208 -2.05219,-0.87106 -1.77572,-1.89778 0.21103,-0.7837 1.09712,-1.3264 1.83936,-1.12653 0.6949,0.18712 1.14621,0.75927 1.19786,1.51859 0.0265,0.38938 0.0817,0.48727 0.575,1.01898 2.74873,2.96294 5.52087,4.34635 7.96657,3.97562 1.95587,-0.29648 3.80464,-1.44726 5.79545,-3.60743 0.73885,-0.80171 0.75292,-0.82531 0.75482,-1.26667 0.004,-0.85495 0.42262,-1.42052 1.20915,-1.63231 0.53431,-0.14387 1.03437,0.009 1.44743,0.44294 0.51722,0.54318 0.56734,1.38555 0.11751,1.9753 -0.31908,0.41833 -0.70234,0.59864 -1.28871,0.60631 l -0.49313,0.006 -0.78316,0.8487 c -2.55791,2.77198 -4.95988,4.04664 -7.59402,4.02995 -0.68101,-0.004 -1.22891,-0.0596 -1.63909,-0.16543 z m -3.62495,-9.06521 c -1.15275,-0.52337 -1.75097,-2.85294 -1.1921,-4.64223 0.7376,-2.36153 2.92497,-2.39345 3.72922,-0.0544 0.16703,0.48579 0.20586,0.7813 0.20586,1.56692 0,0.78562 -0.0388,1.08113 -0.20586,1.56691 -0.49131,1.4289 -1.48454,2.04071 -2.53712,1.56282 z m 9.43429,0.0329 c -0.88798,-0.46089 -1.45234,-1.67823 -1.45234,-3.13277 0,-1.20416 0.27456,-2.0809 0.85204,-2.72086 1.03816,-1.15045 2.4779,-0.63976 3.08274,1.09348 0.12295,0.35233 0.15738,0.71787 0.15462,1.64154 -0.003,1.03453 -0.0302,1.25568 -0.20993,1.70925 -0.2348,0.59272 -0.79565,1.25263 -1.21402,1.42846 -0.37581,0.15794 -0.88753,0.14989 -1.21311,-0.0191 z m -17.8515,4.07705 c -0.0263,-0.10892 -0.19157,-0.65355 -0.36718,-1.21028 -0.4540303,-1.43943 -0.8722303,-3.43632 -1.1889603,-5.67731 -0.36998,-2.61767 -0.36561,-2.60471 -0.75554,-2.2384 -0.28423,0.26703 -0.27413,0.57375 0.0505,1.53424 0.14523,0.42965 0.26406,0.89259 0.26406,1.02874 0,0.54828 -0.74048,0.81386 -1.1197,0.40159 -0.21843,-0.23747 -0.6961,-1.60582 -0.77663,-2.22475 -0.0331,-0.25444 -0.0141,-0.60367 0.0447,-0.82216 0.12683,-0.47103 0.67543,-1.0823 1.19862,-1.33558 0.29892,-0.1447 0.38892,-0.23696 0.38892,-0.39869 0,-0.30608 -0.25545,-0.896 -0.4144,-0.957 -0.2229,-0.0855 -0.8649,0.35551 -1.21831,0.83695 -0.34765,0.4736 -0.7379,1.32665 -0.74224,1.62247 -0.0109,0.74438 -0.47289,1.21807 -0.98222,1.0071 -0.31974,-0.13244 -0.4277,-0.32499 -0.4277,-0.76277 0,-1.37586 1.20944,-3.31002 2.41487,-3.86188 0.40193,-0.18401 0.60008,-0.22148 1.04312,-0.19725 l 0.54693,0.0299 -0.0277,-0.74817 c -0.0465,-1.25574 -0.1792,-2.48547 -0.31819,-2.94868 -0.53686,-1.78928 -2.10771,-2.17575 -3.18458,-0.7835 -1.12275,1.45159 -1.70235,3.69328 -1.7046,6.59284 -0.004,5.38478 2.36277,9.50834 6.32286,11.01532 0.9209803,0.35047 1.0169303,0.36026 0.9533203,0.0973 z m 27.91393,-0.22344 c 2.90122,-1.20996 4.95909,-3.97121 5.7368,-7.69764 0.77931,-3.73407 0.10434,-8.11333 -1.52532,-9.89644 -0.53239,-0.58252 -0.84469,-0.75308 -1.37893,-0.75308 -0.45049,0 -0.82132,0.15744 -1.11717,0.47432 -0.28915,0.30968 -0.62068,1.10225 -0.73058,1.7465 -0.11495,0.6739 -0.24463,3.41117 -0.16751,3.53581 0.0314,0.0508 0.17567,0.0113 0.35208,-0.0962 0.41918,-0.25555 1.13272,-0.24451 1.70719,0.0264 1.09643,0.51709 2.09487,1.99548 2.34916,3.47841 0.10005,0.58342 0.0953,0.63941 -0.0737,0.86657 -0.29925,0.40231 -0.90436,0.37821 -1.11724,-0.0445 -0.0667,-0.13243 -0.14604,-0.43012 -0.17632,-0.66154 -0.11424,-0.87306 -0.99173,-2.17052 -1.65326,-2.44454 -0.25572,-0.10592 -0.29138,-0.099 -0.44045,0.0851 -0.18742,0.23146 -0.37373,0.8509 -0.29449,0.97911 0.0297,0.048 0.21957,0.17026 0.42203,0.27172 1.23719,0.61997 1.50214,1.58596 0.91069,3.32029 -0.17081,0.50087 -0.37881,0.98609 -0.46222,1.07825 -0.20297,0.22429 -0.68827,0.2198 -0.91655,-0.008 -0.242,-0.242 -0.2226,-0.58461 0.088,-1.55431 0.32185,-1.00476 0.32488,-1.1215 0.0366,-1.4098 -0.32383,-0.32383 -0.42056,-0.17338 -0.60408,0.93965 -0.21505,1.30417 -0.28164,1.5245 -0.53176,1.75947 -0.12157,0.11421 -0.22104,0.28103 -0.22104,0.37072 0,0.65046 -1.04415,5.01158 -1.32596,5.53814 -0.0453,0.0846 -0.0824,0.23648 -0.0824,0.33741 0,0.22844 0.17158,0.1944 1.21639,-0.24134 z" id="path-main"/>
    </g>
  </defs>
  <g id="acyl-visual">
    <use id="visible1" style="fill:url(#acyl-gradient);filter:url(#filter)" xlink:href="#acyl-drawing"/>
  </g>
</svg>
