<svg xmlns="http://www.w3.org/2000/svg" xmlns:xlink="http://www.w3.org/1999/xlink" width="48" height="48">
  <defs id="acyl-settings">
    <linearGradient id="acyl-gradient" x1="0%" x2="0%" y1="0%" y2="100%">
      <stop offset="100%" style="stop-color:#A0A0A0;stop-opacity:1.000000"/>
    </linearGradient>
    <g id="acyl-filter">
      <filter/>
    </g>
    <g id="acyl-drawing">
      <path d="M 22.256517,45.959301 C 17.654886,45.528514 13.697645,43.961747 10.224981,41.195705 9.2759194,40.439767 7.6672702,38.840394 6.8756184,37.865648 4.4618608,34.893677 2.805884,31.161807 2.2005632,27.330058 1.9790873,25.928108 1.9314573,22.984636 2.1058898,21.480065 3.1161482,12.766103 9.1556069,5.5066527 17.541687,2.9261809 c 2.164324,-0.6659767 3.97486,-0.92763 6.433616,-0.9297658 2.621475,-0.00183 4.516738,0.2984208 6.975706,1.1067283 3.330323,1.0947384 6.292788,2.9685977 8.847034,5.596058 3.722721,3.8294296 5.847573,8.6535626 6.162384,13.9907446 0.228314,3.870589 -0.532226,7.606849 -2.257493,11.090302 -3.740202,7.551766 -11.47587,12.314014 -19.853122,12.222036 -0.70664,-0.0073 -1.42362,-0.02713 -1.593295,-0.04299 z m 5.553011,-6.869032 C 31.27978,38.564945 34.464959,36.95526 36.964737,34.463513 41.069204,30.372246 42.712255,24.427855 41.299672,18.78017 39.42485,11.28443 32.368762,6.0217553 24.680449,6.3849661 c -4.262298,0.2013642 -8.000438,1.8415193 -10.97382,4.8149019 -2.512254,2.512253 -4.0279629,5.496031 -4.6361346,9.1266 -0.2036742,1.215802 -0.204545,3.738772 -0.00183,4.976299 0.5886467,3.591729 2.1405266,6.648721 4.6482796,9.156465 3.699713,3.699722 8.9176,5.414411 14.092486,4.631037 z M 24.06345,38.344239 C 21.690649,38.167378 19.049577,37.28625 17.031819,35.998315 13.717225,33.882603 11.319005,30.616592 10.278395,26.801196 9.8105103,25.085691 9.6455744,22.338698 9.9079428,20.631177 11.063099,13.113318 17.132891,7.6218062 24.680449,7.2660478 c 5.608965,-0.2643758 10.951363,2.5821216 13.96385,7.4401252 2.705597,4.363105 3.01225,10.044852 0.794723,14.724757 -0.814844,1.719667 -1.637332,2.899004 -2.981697,4.275361 -2.674898,2.738569 -6.1237,4.345853 -9.969942,4.646409 -1.110844,0.08681 -1.147621,0.08672 -2.423933,-0.0082 z m 0.749577,-3.473057 c 3.716231,-0.560221 6.891766,-3.14699 8.151944,-6.640508 1.74824,-4.846518 -0.383487,-10.303746 -4.936717,-12.638011 -1.714378,-0.878891 -3.072007,-1.17315 -5.110665,-1.1077 -1.638688,0.05262 -2.632667,0.29205 -4.044718,0.974316 -2.938907,1.420008 -5.000811,4.052079 -5.639673,7.199189 -0.826668,4.072301 0.92114,8.305816 4.377395,10.602818 1.348069,0.895922 2.654346,1.376934 4.557777,1.678316 0.524113,0.08296 1.871513,0.04812 2.644657,-0.06838 z M 19.259649,24.675483 c 0,-5.676541 0.0083,-6.001555 0.154248,-5.958875 0.339615,0.09938 10.290711,5.874835 10.290711,5.972561 0,0.116508 -10.118085,5.990325 -10.318771,5.990325 -0.108258,0 -0.126188,-0.853178 -0.126188,-6.004011 z" id="path-main"/>
    </g>
  </defs>
  <g id="acyl-visual">
    <use id="visible1" style="fill:url(#acyl-gradient);filter:url(#filter)" xlink:href="#acyl-drawing"/>
  </g>
</svg>
