<svg xmlns="http://www.w3.org/2000/svg" xmlns:xlink="http://www.w3.org/1999/xlink" width="48" height="48">
  <defs id="acyl-settings">
    <linearGradient id="acyl-gradient" x1="0%" x2="0%" y1="0%" y2="100%">
      <stop offset="100%" style="stop-color:#A0A0A0;stop-opacity:1.000000"/>
    </linearGradient>
    <g id="acyl-filter">
  </g>
    <g id="acyl-drawing">
      <path d="m 8.6005,45.267 0,-0.734 -2.934,0 -2.933,0 0,-21.266 0,-21.267 21.267,0 21.266,0 0,21.267 0,21.266 -2.933,0 -2.933,0 0,0.734 0,0.733 -15.4,0 -15.4,0 0,-0.733 z m 8.922,-2.212 c 0.281,-0.107 0.574,-0.292 0.65,-0.412 0.249,-0.391 0.152,-1.204 -0.164,-1.381 -0.288,-0.161 -0.288,-0.191 0,-0.48 0.406,-0.406 0.389,-0.751 -0.06,-1.199 -0.694,-0.694 -2.384,-0.263 -2.384,0.607 0,0.132 0.114,0.395 0.253,0.585 0.215,0.294 0.215,0.384 0,0.599 -0.139,0.139 -0.253,0.498 -0.253,0.798 0,0.44 0.115,0.596 0.596,0.805 0.732,0.318 0.73,0.318 1.36,0.08 z m -0.942,-0.603 c -0.507,-0.371 -0.286,-0.944 0.364,-0.944 0.423,0 0.56,0.09 0.604,0.4 0.08,0.535 -0.521,0.87 -0.968,0.544 z m -0.02,-1.847 c -0.167,-0.434 0.07,-0.873 0.432,-0.804 0.203,0.04 0.321,0.229 0.321,0.516 0,0.522 -0.579,0.744 -0.753,0.288 z m 7.819,2.462 c 0.09,0 0.33,-0.181 0.535,-0.402 0.549,-0.588 0.534,-2.43 -0.03,-3.024 -0.799,-0.851 -2.351,-0.263 -2.351,0.891 0,0.946 1.196,1.632 1.797,1.031 0.171,-0.171 0.22,-0.138 0.22,0.147 0,0.202 -0.1,0.466 -0.22,0.587 -0.267,0.266 -0.88,0.292 -0.88,0.04 0,-0.101 -0.171,-0.183 -0.38,-0.183 -0.262,0 -0.362,0.1 -0.32,0.316 0.07,0.371 0.866,0.82 1.219,0.69 0.134,-0.05 0.316,-0.09 0.405,-0.09 z m -0.891,-2.135 c -0.365,-0.652 0.276,-1.41 0.815,-0.963 0.31,0.258 0.325,0.751 0.03,1.044 -0.307,0.307 -0.648,0.275 -0.847,-0.08 z m 8.492,1.744 c 0.293,-0.283 0.367,-0.593 0.367,-1.556 0,-1.042 -0.06,-1.249 -0.433,-1.553 -0.58,-0.469 -1.389,-0.447 -1.852,0.05 -0.288,0.309 -0.374,0.648 -0.374,1.479 0,1.216 0.208,1.734 0.791,1.967 0.504,0.201 1.029,0.06 1.501,-0.388 z m -1.444,-0.44 c -0.213,-0.555 -0.122,-2.051 0.137,-2.267 0.647,-0.537 1.22,0.696 0.884,1.906 -0.172,0.621 -0.832,0.855 -1.021,0.361 z m 0.802,-1.003 c 0,-0.203 -0.122,-0.366 -0.275,-0.366 -0.153,0 -0.275,0.163 -0.275,0.366 0,0.204 0.122,0.367 0.275,0.367 0.153,0 0.275,-0.163 0.275,-0.367 z m -16.5,1.559 c 0,-0.171 -0.173,-0.275 -0.458,-0.275 -0.455,0 -0.459,-0.01 -0.459,-1.65 0,-1.858 -0.07,-1.937 -1.171,-1.238 -0.927,0.592 -0.854,1.183 0.08,0.681 0.334,-0.179 0.355,-0.119 0.355,1.009 l 0,1.198 -0.55,0 c -0.367,0 -0.55,0.09 -0.55,0.275 0,0.22 0.275,0.275 1.375,0.275 1.1,0 1.375,-0.06 1.375,-0.275 z m 6.967,0 c 0,-0.21 -0.231,-0.276 -0.963,-0.279 l -0.962,0 0.962,-0.896 c 1.079,-1.003 1.243,-1.63 0.555,-2.112 -0.657,-0.461 -1.519,-0.366 -1.981,0.218 l -0.398,0.504 0.385,0.06 c 0.212,0.03 0.515,-0.07 0.673,-0.229 0.361,-0.361 0.523,-0.362 0.82,0 0.202,0.243 0.08,0.439 -0.803,1.335 -1.444,1.46 -1.4,1.681 0.337,1.681 1.1,0 1.375,-0.06 1.375,-0.275 z m 7.15,0 c 0,-0.171 -0.173,-0.275 -0.459,-0.275 -0.455,0 -0.458,-0.01 -0.458,-1.65 0,-1.858 -0.07,-1.937 -1.171,-1.238 -0.927,0.592 -0.855,1.183 0.08,0.681 0.334,-0.179 0.355,-0.119 0.355,1.009 l 0,1.198 -0.55,0 c -0.367,0 -0.55,0.09 -0.55,0.275 0,0.22 0.275,0.275 1.375,0.275 1.1,0 1.375,-0.06 1.375,-0.275 z m 6.967,0 c 0,-0.209 -0.227,-0.275 -0.944,-0.275 l -0.943,0 0.943,-0.998 c 0.519,-0.548 0.944,-1.126 0.944,-1.283 0,-0.506 -0.693,-1.019 -1.375,-1.019 -0.622,0 -1.375,0.502 -1.375,0.916 0,0.286 0.727,0.216 1.042,-0.1 0.34,-0.339 0.676,-0.263 0.761,0.174 0.04,0.193 -0.303,0.667 -0.871,1.212 -0.529,0.507 -0.932,1.057 -0.932,1.271 0,0.347 0.109,0.377 1.375,0.377 1.1,0 1.375,-0.06 1.375,-0.275 z m -27.317,-3.025 0,-2.567 2.016,0 c 1.89,0 2.017,-0.02 2.017,-0.364 0,-0.263 0.317,-0.523 1.146,-0.937 2.832,-1.416 5.228,-3.13 6.065,-4.337 0.86,-1.243 0.576,-2.442 -1.089,-4.596 -0.493,-0.638 -1.037,-1.376 -1.209,-1.64 -0.484,-0.744 -0.595,-2.198 -0.255,-3.343 0.186,-0.627 0.292,-1.685 0.293,-2.921 0,-1.065 0.09,-2.255 0.197,-2.644 0.441,-1.588 3.134,-3.518 5.208,-3.732 2.174,-0.224 6.031,1.068 7.216,2.418 0.741,0.844 0.942,1.661 0.944,3.828 0,1.056 0.122,2.274 0.293,2.933 0.304,1.172 0.241,2.575 -0.148,3.313 -0.11,0.209 -0.555,0.776 -0.988,1.26 -1.002,1.12 -1.906,2.919 -1.906,3.792 0,1.455 2.369,3.529 6.096,5.337 0.777,0.378 0.871,0.488 0.871,1.028 l 0,0.605 2.016,0 2.017,0 0,2.567 0,2.566 1.833,0 1.833,0 0,-18.948 0,-18.949 -1.237,-0.117 c -0.681,-0.06 -9.261,-0.117 -19.067,-0.118 l -17.829,0 0,18.964 0,18.964 0.688,0.07 c 0.378,0.04 1.203,0.09 1.833,0.103 l 1.146,0.03 0,-2.567 z" id="path-main"/>
    </g>
  </defs>
  <g id="acyl-visual">
    <use id="visible1" style="fill:url(#acyl-gradient)" xlink:href="#acyl-drawing"/>
  </g>
</svg>
