<svg xmlns="http://www.w3.org/2000/svg" xmlns:xlink="http://www.w3.org/1999/xlink" width="48" height="48">
  <defs id="acyl-settings">
    <linearGradient id="acyl-gradient" x1="0%" x2="0%" y1="0%" y2="100%">
      <stop offset="100%" style="stop-color:#A0A0A0;stop-opacity:1.000000"/>
    </linearGradient>
    <g id="acyl-filter">
  </g>
    <g id="acyl-drawing">
      <path d="m 21.8476,45.9505 c -1.868,-0.268 -3.378,-0.596 -4.663,-1.014 -6.552,-2.129 -11.72101,-7.184 -13.97901,-13.67 -0.95,-2.729 -1.149,-4.007 -1.142,-7.328 0,-2.473 0.06,-3.166 0.317,-4.353 2.068,-9.381 9.42401,-16.22202 18.78001,-17.46902 1.822,-0.242 5.782,-0.09 7.431,0.292 2.935,0.674 5.31,1.689 7.706,3.295 4.786,3.207 8.036,8.04602 9.322,13.88202 0.262,1.187 0.313,1.88 0.317,4.353 0,3.321 -0.192,4.599 -1.142,7.328 -2.558,7.35 -8.816,12.791 -16.498,14.345 -1.375,0.278 -5.398,0.489 -6.449,0.339 z m -3.443,-9.923 c 1.049,-0.538 1.814,-1.306 2.253,-2.26 0.327,-0.712 0.33,-0.771 0.371,-7.469 l 0.04,-6.751 4.801,-0.716 4.802,-0.716 0,4.542 0,4.542 -0.991,0.07 c -2.518,0.181 -4.757,2.212 -4.571,4.149 0.08,0.832 0.658,1.761 1.346,2.162 1.812,1.059 4.904,0.253 6.128,-1.597 0.821,-1.24 0.831,-1.369 0.784,-10.529 -0.04,-8.019 -0.05,-8.405 -0.315,-8.694 -0.157,-0.173 -0.449,-0.302 -0.686,-0.302 -0.227,0 -2.816,0.321 -5.753,0.712 -8.174,1.091 -7.593,0.989 -7.959,1.39 l -0.323,0.354 0,7.352 0,7.353 -1.055,0.152 c -1.955,0.282 -3.466,1.248 -4.174,2.669 -0.464,0.931 -0.463,1.577 10e-4,2.512 0.6,1.202 1.496,1.628 3.29,1.56 0.948,-0.04 1.298,-0.12 2.009,-0.486 z" id="path-main"/>
    </g>
  </defs>
  <g id="acyl-visual">
    <use id="visible1" style="fill:url(#acyl-gradient)" xlink:href="#acyl-drawing"/>
  </g>
</svg>
