<svg xmlns="http://www.w3.org/2000/svg" xmlns:xlink="http://www.w3.org/1999/xlink" width="48" height="48">
  <defs id="acyl-settings">
    <linearGradient id="acyl-gradient" x1="0%" x2="0%" y1="0%" y2="100%">
      <stop offset="100%" style="stop-color:#A0A0A0;stop-opacity:1.000000"/>
    </linearGradient>
    <g id="acyl-filter">
  </g>
    <g id="acyl-drawing">
      <path d="m 4.57066,45.928 c -0.123,-0.05 -0.299,-0.198 -0.391,-0.33 -0.152,-0.217 -0.167,-2.148 -0.164,-21.632 0,-16.65296 0.03,-21.42996 0.13,-21.55796 0.07,-0.09 0.23,-0.22 0.355,-0.287 0.17,-0.09 5.059,-0.121 19.55004,-0.121 l 19.324,0 0.305,0.305 0.305,0.305 -0.03,21.44696 -0.03,21.447 -0.237,0.237 -0.237,0.237 -19.332,0.02 c -10.757,0.01 -19.43004,-0.02 -19.55404,-0.07 z m 37.61704,-21.939 0.03,-20.21896 -18.215,0 -18.21604,0 0,20.17596 c 0,11.097 0.03,20.207 0.07,20.246 0.04,0.04 8.22404,0.06 18.19004,0.04 l 18.12,-0.03 z m -19.179,15.212 c -1.107,-0.11 -2.594,-0.403 -3.487,-0.688 -5.221,-1.666 -9.047,-5.918 -10.21904,-11.355 -0.33,-1.528 -0.33,-4.445 0,-5.973 0.679,-3.151 2.15404,-5.769 4.48704,-7.966 1.171,-1.102 2.324,-1.884 3.867,-2.623 2.082,-0.99796 3.958,-1.41296 6.393,-1.41296 2.559,0 4.374,0.426 6.662,1.56296 1.739,0.864 2.908,1.717 4.187,3.055 2.009,2.101 3.369,4.729 3.952,7.636 0.277,1.385 0.25,4.307 -0.05,5.721 -1.163,5.414 -5.019,9.691 -10.246,11.365 -1.564,0.501 -4.143,0.816 -5.542,0.678 z m 1.406,-14.397 0,-0.478 3.032,-3.018 c 1.667,-1.66 3.044,-3.012 3.008,-2.946 0.177,0.298 0.396,0.72 0.472,1.047 0.07,0.326 0.08,0.33 0.18,0.104 0.156,-0.436 1.476,-3.417 1.895,-4.467 -0.855,0.434 -3.235,1.476 -4.424,2.05 0.539,0.208 0.85,0.404 1.249,0.674 0,0 -1.363,1.368 -3.03,3.034 -2.867,2.867 -3.052,3.031 -3.417,3.036 -0.359,0 -0.481,-0.09 -1.678,-1.289 l -1.292,-1.294 1.326,0 c 0.94,0 1.325,-0.03 1.325,-0.122 0,-0.07 -0.03,-0.09 -0.07,-0.05 -2.049,-1.067 -4.741,-2.601 -6.866,-3.727 -0.27,-0.205 -0.344,-0.193 -0.325,0.05 1.448,2.58 2.52,4.52 3.816,6.974 0.07,0 0.111,-0.447 0.111,-1.274 l 0,-1.274 1.347,1.345 c 1.028,1.025 1.327,1.383 1.258,1.505 0.453,1.143 1.672,1.261 2.079,0.122 z" id="path-main"/>
    </g>
  </defs>
  <g id="acyl-visual">
    <use id="visible1" style="fill:url(#acyl-gradient)" xlink:href="#acyl-drawing"/>
  </g>
</svg>
