<svg xmlns="http://www.w3.org/2000/svg" xmlns:xlink="http://www.w3.org/1999/xlink" width="48" height="48">
  <defs id="acyl-settings">
    <linearGradient id="acyl-gradient" x1="0%" x2="0%" y1="0%" y2="100%">
      <stop offset="100%" style="stop-color:#A0A0A0;stop-opacity:1.000000"/>
    </linearGradient>
    <g id="acyl-filter">
  </g>
    <g id="acyl-drawing">
      <path d="M 9.70854,2 C 6.61352,2 4.07496,4.53861 4.07496,7.63354 l 0,32.73296 c 0,3.095 2.53856,5.6335 5.63358,5.6335 l 28.58296,0 c 3.0949,0 5.6335,-2.5385 5.6335,-5.6335 l 0,-32.73296 C 43.925,4.53861 41.3864,2 38.2915,2 L 9.70854,2 Z m 0,3.10223 28.58296,0 c 1.4291,0 2.5293,1.10222 2.5293,2.53131 l 0,32.73296 c 0,1.4291 -1.1002,2.5313 -2.5293,2.5313 l -28.58296,0 c -1.4292,0 -2.52931,-1.1022 -2.52931,-2.5313 l 0,-32.73296 c 0,-1.42909 1.10009,-2.53131 2.52931,-2.53131 z m 4.18056,4.43028 c -1.6003,0 -2.8873,1.28909 -2.8873,2.88939 l 0,23.1562 c -10e-5,1.6003 1.287,2.8894 2.8873,2.8894 l 20.2218,0 c 1.6003,0 2.8874,-1.2891 2.8873,-2.8894 l 0,-23.1562 c 2e-4,-1.6003 -1.287,-2.88939 -2.8873,-2.88939 l -20.2218,0 z m 3.5811,4.12749 7.0127,0 c 0.8016,0 1.4979,0.021 2.0934,0.061 0.6182,0.042 1.2587,0.1492 1.9235,0.315 0.7054,0.1514 1.3016,0.3817 1.7865,0.7347 0.4946,0.3266 0.8984,0.7853 1.1991,1.3363 0.3493,0.6026 0.5116,1.3083 0.5116,2.077 l 0,3.9944 c 0,1.8302 -0.8139,3.336 -2.3144,4.1438 -1.4287,0.7589 -3.3324,1.0928 -5.7318,1.0928 l -2.1363,0 0,6.9268 -4.3443,0 0,-20.6822 z m 4.3156,3.2782 0.01,0 0,7.199 2.5476,0 c 1.0551,0 1.8985,-0.1903 2.5579,-0.5362 0.5869,-0.317 0.8206,-0.7169 0.8206,-1.5695 l 0,-3.493 c 0,-0.4055 -0.093,-0.6452 -0.2476,-0.833 l -0.01,-0.01 -0.01,-0.012 c -0.1691,-0.2174 -0.404,-0.3754 -0.7961,-0.4809 -0.4804,-0.1291 -0.8722,-0.1972 -1.152,-0.2129 l -0.023,0 -0.022,0 c -0.2924,-0.035 -0.6926,-0.053 -1.1868,-0.053 l -2.4884,0 z" id="path-main"/>
    </g>
  </defs>
  <g id="acyl-visual">
    <use id="visible1" style="fill:url(#acyl-gradient)" xlink:href="#acyl-drawing"/>
  </g>
</svg>
