<svg xmlns="http://www.w3.org/2000/svg" xmlns:xlink="http://www.w3.org/1999/xlink" width="48" height="48">
  <defs id="acyl-settings">
    <linearGradient id="acyl-gradient" x1="0%" x2="0%" y1="0%" y2="100%">
      <stop offset="100%" style="stop-color:#A0A0A0;stop-opacity:1.000000"/>
    </linearGradient>
    <g id="acyl-filter">
      <filter id="filter"/>
    </g>
    <g id="acyl-drawing">
      <path d="m 5.6206711,45.867789 c -0.16214,-0.0802 -0.38447,-0.27148 -0.49406,-0.42512 l -0.19926,-0.27934 -0.0232,-18.99902 c -0.0225,-18.3758997 -0.0178,-19.0092397 0.14386,-19.3105397 0.0919,-0.17133 0.27709,-0.39366 0.41152,-0.49406 0.23775,-0.17757 0.39229,-0.18378 5.6652099,-0.22747 2.98144,-0.0247 5.43979,-0.0651 5.46302,-0.0898 0.0232,-0.0247 0.39461,-0.75232 0.8253,-1.616934 0.43069,-0.864612 0.88199,-1.703441 1.00288,-1.864064 0.43677,-0.58031 0.24661,-0.561343 5.62748,-0.561343 l 4.8869,0 0.30524,0.202118 c 0.24497,0.162213 0.49145,0.565688 1.24844,2.04363 l 0.94322,1.841513 5.4347,0.0449 5.43471,0.0449 0.28009,0.19979 c 0.56559,0.40344 0.52838,-0.98385 0.52838,19.6975297 0,20.68138 0.0372,19.29409 -0.52838,19.69753 l -0.28009,0.19979 -18.19055,0.0209 c -16.6264699,0.0191 -18.2158999,0.008 -18.4853599,-0.12489 z m 34.9691399,-19.79331 0,-17.3820797 -3.84267,-0.0234 c -3.25598,-0.0198 -3.85017,-0.004 -3.89174,0.10442 -0.027,0.0703 0.22677,0.667 0.56389,1.3259597 l 0.61294,1.19811 1.52711,0.0469 c 1.02917,0.0316 1.60625,0.0869 1.76981,0.16965 0.55654,0.28157 0.5248,-0.65271 0.49923,14.69551 l -0.0233,13.98304 -0.29337,0.26212 -0.29336,0.26211 -13.15444,0 c -10.00739,0 -13.21078,-0.0257 -13.38997,-0.10732 -0.52034,-0.23708 -0.49155,0.61367 -0.49155,-14.52626 0,-10.33088 0.0268,-13.98259 0.10367,-14.15141 0.21902,-0.4807 0.43779,-0.53994 2.12351,-0.575 l 1.55345,-0.0323 0.63132,-1.26022 c 0.36467,-0.7279697 0.59784,-1.2936997 0.55206,-1.3394797 -0.044,-0.044 -1.7732,-0.0688 -3.89153,-0.0558 l -3.8122899,0.0234 -0.0231,17.2922497 c -0.0127,9.51074 -0.004,17.34289 0.0197,17.40478 0.0341,0.0897 3.4007499,0.10792 16.5966599,0.0898 l 16.55388,-0.0227 0,-17.38208 z m -4.85816,12.70132 c 0.12864,-0.0494 0.14209,-1.25197 0.14209,-12.70132 0,-11.44935 -0.0135,-12.65196 -0.14209,-12.70132 -0.0781,-0.03 -0.29789,-0.0545 -0.48831,-0.0545 -0.31109,0 -0.36698,0.0369 -0.55067,0.36375 -0.11245,0.20007 -0.33203,0.44261 -0.48796,0.53898 -0.27665,0.17098 -0.52371,0.17522 -10.19911,0.17489 -9.67598,-3.6e-4 -9.92255,-0.005 -10.20319,-0.17569 -0.15817,-0.0964 -0.35582,-0.30851 -0.43922,-0.47127 -0.19572,-0.38192 -0.27342,-0.42763 -0.72977,-0.42929 -0.28329,-10e-4 -0.40203,0.0424 -0.47161,0.17238 -0.0628,0.11737 -0.093,4.21062 -0.093,12.61468 0,11.19016 0.0142,12.45512 0.14117,12.58209 0.12687,0.12688 1.31722,0.14116 11.76036,0.14116 6.39057,0 11.68315,-0.0245 11.7613,-0.0545 z m -18.22821,-2.57144 c -0.0271,-0.11202 -0.0381,-4.58962 -0.0246,-9.95022 l 0.0246,-9.74654 4.76099,0 c 4.63746,0 4.78148,0.005 5.55106,0.20139 2.33251,0.59458 3.77085,1.94595 4.39324,4.12757 0.26196,0.91824 0.28319,3.04229 0.0402,4.02522 -0.46463,1.8797 -1.81558,3.37394 -3.62137,4.00548 -1.06878,0.37379 -1.79699,0.46392 -4.20724,0.52076 l -2.33557,0.0551 -0.0449,3.45845 -0.0449,3.45845 -2.22119,0.024 -2.22118,0.024 -0.0492,-0.20369 z m 8.67324,-10.63344 c 0.89293,-0.41316 1.36182,-1.06034 1.53148,-2.11381 0.17016,-1.0566 -0.12319,-2.06733 -0.78721,-2.71229 -0.60076,-0.58352 -1.09525,-0.70968 -2.97215,-0.75827 -1.22833,-0.0318 -1.67321,-0.0144 -1.77414,0.0694 -0.11438,0.0949 -0.13472,0.52818 -0.13472,2.87056 0,1.51732 0.0298,2.78858 0.0663,2.82502 0.0365,0.0364 0.87524,0.0533 1.86397,0.0374 1.60177,-0.0257 1.84227,-0.0495 2.20651,-0.21799 z m 5.17827,-13.74798 c 0.0715,-0.18624 -3.35494,-7.0909687 -3.60834,-7.2713387 -0.26208,-0.186553 -7.19874,-0.186553 -7.46082,0 -0.2534,0.18037 -3.67981,7.0850987 -3.60834,7.2713387 0.0522,0.13609 0.65408,0.14825 7.33875,0.14825 6.68467,0 7.28652,-0.0122 7.33875,-0.14825 z " id="path-main"/>
    </g>
  </defs>
  <g id="acyl-visual">
    <use id="visible1" style="fill:url(#acyl-gradient);filter:url(#filter)" xlink:href="#acyl-drawing"/>
  </g>
</svg>
