<svg xmlns="http://www.w3.org/2000/svg" xmlns:xlink="http://www.w3.org/1999/xlink" width="48" height="48">
  <defs id="acyl-settings">
    <linearGradient id="acyl-gradient" x1="0%" x2="0%" y1="0%" y2="100%">
      <stop offset="100%" style="stop-color:#A0A0A0;stop-opacity:1.000000"/>
    </linearGradient>
    <g id="acyl-filter">
  </g>
    <g id="acyl-drawing">
      <path d="m 3.60208,45.7985 c -0.67,-0.277 -1.1,-0.635 -1.44,-1.201 l -0.16,-0.268 0,-20.183 c 0,-22.93401 -0.1,-20.68801 0.68,-21.43801 0.77,-0.767 -1.58,-0.694 21.46002,-0.671 l 20.25,0.02 0.32,0.173 c 0.51,0.272 0.84,0.607 1.08,1.079 l 0.21,0.436 0,20.33101 0,20.331 -0.25,0.351 c -0.33,0.454 -0.93,0.907 -1.43,1.08 -0.37,0.129 -1.43,0.136 -20.34,0.137 l -19.95002,0 -0.43,-0.177 z m 40.48002,-0.924 c 0.21,-0.1 0.52,-0.325 0.69,-0.501 l 0.31,-0.32 0,-4.638 0,-4.638 -21.1,0 -21.10002,0 0,4.584 c 0,4.378 0,4.595 0.15,4.825 0.1,0.132 0.26,0.33 0.41,0.441 0.59,0.45 -0.87,0.419 20.54002,0.425 l 19.68,0 0.38,-0.182 z m -38.63002,-4.918 0,-1.496 18.57002,0 18.57,0 0,1.496 0,1.496 -18.57,0 -18.57002,0 0,-1.496 z m 36.45002,-0.04 0,-0.767 -11.24,0 -11.24,0 0,0.767 0,0.768 11.24,0 11.24,0 0,-0.768 z m -15.82,-10.815 c 3.17,-0.646 5.86,-2.666 7.37,-5.536 1.29,-2.449 1.55,-5.51 0.69,-8.16 -0.29,-0.865 -0.78,-1.889 -1.31,-2.686 -0.51,-0.774 -2.06,-2.333 -2.83,-2.84001 -1.25,-0.834 -2.69,-1.416 -4.18,-1.697 -0.93,-0.175 -2.67,-0.175 -3.64,0 -4.37,0.792 -7.72,4.07201 -8.63,8.45001 -0.19,0.911 -0.24,2.595 -0.1,3.529 0.44,2.86 1.9,5.309 4.17,7.017 1.58,1.181 3.31,1.848 5.47,2.106 0.58,0.07 2.24,-0.03 2.98,-0.183 z m -3.67,-0.575 c -2.14,-0.361 -3.96,-1.302 -5.49,-2.836 -1.91,-1.922 -2.89,-4.271 -2.89,-6.987 0,-2.369 0.66,-4.321 2.14,-6.222 1.49,-1.937 3.85,-3.30301 6.35,-3.68601 1.53,-0.234 3.41,-0.05 4.88,0.479 2.79,1.00101 5.05,3.27801 6.04,6.09201 0.41,1.173 0.51,1.817 0.51,3.299 0,1.483 -0.1,2.126 -0.51,3.299 -1.22,3.454 -4.22,5.975 -7.81,6.556 -0.86,0.14 -2.41,0.143 -3.22,0 z m 7.97,-9.827 c 0,-0.02 -10.08,-5.097 -10.16,-5.097 0,0 0,2.296 0,5.102 l 0,5.102 5.09,-2.541 c 2.79,-1.397 5.09,-2.552 5.11,-2.566 z" id="path-main"/>
    </g>
  </defs>
  <g id="acyl-visual">
    <use id="visible1" style="fill:url(#acyl-gradient)" xlink:href="#acyl-drawing"/>
  </g>
</svg>
