<svg xmlns="http://www.w3.org/2000/svg" xmlns:xlink="http://www.w3.org/1999/xlink" width="48" height="48">
  <defs id="acyl-settings">
    <linearGradient id="acyl-gradient" x1="0%" x2="0%" y1="0%" y2="100%">
      <stop offset="100%" style="stop-color:#A0A0A0;stop-opacity:1.000000"/>
    </linearGradient>
    <g id="acyl-filter">
  </g>
    <g id="acyl-drawing">
      <path d="m 22.1264,45.9191 c -3.075,-0.268 -6.186,-1.212 -8.796,-2.669 -2.074,-1.159 -3.77996,-2.499 -5.48196,-4.307 -4.03,-4.281 -6.193,-10.351 -5.801,-16.279 0.305,-4.628 1.907,-8.828 4.718,-12.371 0.74,-0.93398 2.259,-2.47998 3.197,-3.25398 6.46796,-5.345 15.45696,-6.543996 23.14096,-3.088 4.902,2.205 8.915,6.27398 11.054,11.20798 4.066,9.381 1.231,20.255 -6.882,26.393 -4.31,3.261 -9.771,4.835 -15.149,4.367 z m 1.026,-18.531 c -2.096,0.959 -4.698,0.973 -6.715,0.619 l -0.487,-0.09 0.861,-0.271 c 7.039,-2.183 12.895,-2.749 19.762,-3.624 -6.177,-0.481 -15.315,-2.024 -17.63,-2.424 5.14,-1.896 11.794,-2.624 16.619,-3.226 -5.194,-0.959 -11.331,-1.674 -15.064,-2.574 -0.792,-0.191 -1.441,-0.374 -1.441,-0.407 5.6,-1.836 12.62,-2.071 18.147,-2.754 -6.605,-0.929 -15.97,-1.722 -22.938,-3.74798 1.437,3.01098 1.634,4.29698 0.02,7.88798 3.499,-1.183 3.112,-1.396 3.421,-0.617 0.218,0.537 0.453,1.71 0.452,2.259 0,0.822 -0.529,2.883 -0.738,2.882 -0.312,0 -1.83,-0.374 -1.945,-0.477 -0.108,-0.1 -0.691,-0.346 -0.813,-0.346 1.258,3.167 1.079,4.959 0.351,6.969 -0.214,0.53 0.02,0.428 -1.125,0.08 2.705,4.153 4.16,8.925 5.152,13.032 0.903,-4.89 2.083,-8.962 4.114,-13.17 z m 11.841,-0.601 c -3.478,1.635 -6.631,1.376 -9.437,0.741 2.935,4.358 4.488,9.535 5.844,13.296 0.421,-3.783 2.264,-10.952 3.593,-14.037 z" id="path-main"/>
    </g>
  </defs>
  <g id="acyl-visual">
    <use id="visible1" style="fill:url(#acyl-gradient)" xlink:href="#acyl-drawing"/>
  </g>
</svg>
