<svg xmlns="http://www.w3.org/2000/svg" xmlns:xlink="http://www.w3.org/1999/xlink" width="48" height="48">
  <defs id="acyl-settings">
    <linearGradient id="acyl-gradient" x1="0%" x2="0%" y1="0%" y2="100%">
      <stop offset="100%" style="stop-color:#A0A0A0;stop-opacity:1.000000"/>
    </linearGradient>
    <g id="acyl-filter">
  </g>
    <g id="acyl-drawing">
      <path id="path-main" d="M 10 3 C 6.122 3 3 6.122 3 10 L 3 38 C 3 41.88 6.122 45 10 45 L 38 45 C 41.88 45 45 41.88 45 38 L 45 10 C 45 6.122 41.88 3 38 3 L 10 3 z M 32.62 6.746 C 32.57 7.145 32.15 9.63 33.08 10.33 C 34.84 11.24 38.68 14.31 38.58 19.77 C 38.34 24.7 35.57 27.44 32.42 29.56 C 30.52 30.89 26.8 31.59 26.8 31.59 C 26.8 31.59 26.08 34.77 25.25 36.21 C 23.38 39.72 21.11 41.52 16.56 41.98 C 12.62 41.98 9.434 38.79 9.434 34.86 C 9.434 31.59 11.61 28.86 14.59 28.01 C 13.44 26.08 12.82 23.87 12.82 21.63 C 12.82 14.72 18.43 9.111 25.34 9.111 C 26.89 9.022 30.76 9.465 32.62 6.746 z M 24.5 11.53 C 20.15 11.62 16.79 14.84 15.44 17.43 C 14.29 20.02 14.02 22.54 16.41 27.06 C 17.09 27.85 18.93 28.4 18.63 30.54 C 18.32 32.62 15.73 33.01 14.49 32.9 C 13.37 32.84 12.39 33.64 12.22 34.9 C 12.07 35.9 12.58 38.68 15.28 38.28 C 18.44 38.29 20.5 35.3 21.93 31.31 C 22.9 28.63 22.69 25.45 23.49 22.04 C 24.45 17.48 27.45 13.07 28.04 12.14 C 26.95 11.79 25.51 11.53 24.5 11.53 z M 30 13 C 28.54 15.22 27.1 21.2 27.3 27.04 C 27.38 28.46 29.52 28.62 30.67 27.59 C 35.52 23.06 34.61 15.98 30 13 z"/>
    </g>
  </defs>
  <g id="acyl-visual">
    <use id="visible1" style="fill:url(#acyl-gradient)" xlink:href="#acyl-drawing"/>
  </g>
</svg>
