<svg xmlns="http://www.w3.org/2000/svg" xmlns:xlink="http://www.w3.org/1999/xlink" width="48" height="48">
  <defs id="acyl-settings">
    <linearGradient id="acyl-gradient" x1="0%" x2="0%" y1="0%" y2="100%">
      <stop offset="100%" style="stop-color:#A0A0A0;stop-opacity:1.000000"/>
    </linearGradient>
    <g id="acyl-filter">
  </g>
    <g id="acyl-drawing">
      <path d="m 35.5156,2.52344 c -9.0158,-0.1441 -17.6251,6.09368 -20.359,14.67436 -0.8189,2.1138 -1.2098,4.7391 0.3565,6.6318 2.07,2.935 6.956,2.9287 8.9784,-0.073 1.2474,-2.0426 1.3076,-4.6344 3.0988,-6.4392 2.1968,-2.7463 5.788,-3.9557 9.2238,-3.7104 2.0189,-0.1039 4.1374,0.3227 6.0453,-0.5254 -2.7632,-0.3188 -5.2283,-2.3412 -6.043,-5.00973 1.9773,2.58373 5.7416,3.60333 8.7109,2.21293 C 47.0297,7.12461 44.779,2.99584 41.2951,2.58682 39.3763,2.45414 37.4399,2.55489 35.5156,2.52344 Z M 19.9805,2.61914 C 11.9979,2.47534 4.44892,8.34584 2.57693,16.0983 1.68132,19.2027 2.0916,22.4382 2,25.6254 c 0,6.6105 0,13.2211 0,19.8316 3.54427,0 7.08853,0 10.6328,0 0,-2.8405 0,-5.681 0,-8.5215 7.2669,3.44 16.6396,1.1025 21.4917,-5.2943 3.5727,-4.4671 4.7533,-10.6941 3.0982,-16.1646 -2.6702,-0.1559 -5.5218,0.3174 -7.5019,2.2783 -1.7274,1.4702 -2.3598,3.6619 -2.9972,5.7006 C 25.1365,27.4718 19.75,29.1823 16.1297,26.8289 13.271,25.1741 11.8617,21.4602 12.97,18.3463 14.5856,11.9268 19.1184,6.34894 25.0137,3.36133 23.3884,2.85106 21.6821,2.61811 19.9805,2.61914 Z M 40.4141,4.36328 C 43.38,4.35073 41.9072,9.18586 39.4503,7.50674 38.0393,6.61434 38.7744,4.33765 40.4141,4.36328 Z M 34.168,34.2617 c -3.3161,3.4483 -7.925,5.6054 -12.6953,5.9551 4.2459,3.7834 10.0065,5.5457 15.6416,5.2598 2.4036,-0.069 5.1637,0.4379 7.0644,-1.4292 2.7406,-2.3076 2.2789,-7.1397 -0.8498,-8.8861 -2.0996,-1.2643 -4.6194,-0.6618 -6.938,-0.8039 -0.7436,0.025 -1.4821,-0.041 -2.2229,-0.096 z" id="path-main"/>
    </g>
  </defs>
  <g id="acyl-visual">
    <use id="visible1" style="fill:url(#acyl-gradient)" xlink:href="#acyl-drawing"/>
  </g>
</svg>
