<svg xmlns="http://www.w3.org/2000/svg" xmlns:xlink="http://www.w3.org/1999/xlink" width="48" height="48">
  <defs id="acyl-settings">
    <linearGradient id="acyl-gradient" x1="0%" x2="0%" y1="0%" y2="100%">
      <stop offset="100%" style="stop-color:#A0A0A0;stop-opacity:1.000000"/>
    </linearGradient>
    <g id="acyl-filter">
  </g>
    <g id="acyl-drawing">
      <path d="m 45.078851,3.1856928 -21.107046,0.00307 C 4.1741512,3.1915328 2.8485572,3.2074248 2.5825382,3.4229522 2.4265382,3.5493288 2.2318776,3.7826021 2.1501886,3.9423707 2.0430429,4.1517798 2.0000001,8.9081934 2.0000001,20.981135 v 16.747523 l 0.2852351,0.360291 c 0.156368,0.198822 0.409998,0.414972 0.564444,0.477385 0.154462,0.06241 9.6325538,0.115478 21.0620198,0.120105 17.672787,0.0072 20.848497,-0.0194 21.233146,-0.180146 0.933858,-0.390264 0.876258,0.844797 0.837673,-17.771357 L 45.946547,3.9633924 45.514198,3.5760798 Z M 24.407152,8.6531082 c 7.015016,0 14.030294,0.037985 14.40864,0.1110964 0.640968,0.1238556 1.12483,0.4344044 1.540239,0.9907997 0.270785,0.3627017 0.274274,0.4947307 0.306249,10.8297437 l 0.03305,10.463449 -0.300238,0.531429 c -0.196413,0.349603 -0.502171,0.635021 -0.891723,0.831672 l -0.591484,0.300242 -14.56776,-0.0031 -14.5647618,-0.0031 -0.519418,-0.297239 c -0.28565,-0.163231 -0.64249,-0.465917 -0.79563,-0.672399 -0.276381,-0.372641 -0.279947,-0.451956 -0.315258,-10.913814 L 8.1130862,10.280427 8.4163382,9.8390714 C 8.8343292,9.2247606 9.3185912,8.8955988 9.9986052,8.7642031 10.376966,8.6910919 17.392228,8.6531067 24.407244,8.6531067 Z M 5.4378402,40.202583 v 4.611724 h 9.2234478 v -4.611724 z m 27.6703438,0 v 4.611724 h 9.223448 v -4.611724 z" id="path-main"/>
    </g>
  </defs>
  <g id="acyl-visual">
    <use id="visible1" style="fill:url(#acyl-gradient)" xlink:href="#acyl-drawing"/>
  </g>
</svg>
