<svg xmlns="http://www.w3.org/2000/svg" xmlns:xlink="http://www.w3.org/1999/xlink" width="48" height="48">
  <defs id="acyl-settings">
    <linearGradient id="acyl-gradient" x1="0%" x2="0%" y1="0%" y2="100%">
      <stop offset="100%" style="stop-color:#A0A0A0;stop-opacity:1.000000"/>
    </linearGradient>
    <g id="acyl-filter">
  </g>
    <g id="acyl-drawing">
      <path id="path-main" d="M 14.79,2.21 2,10.67 l 4.88,30.32 11.28,4.58 0.27,-0.25 6.83,-5.33 H 8 V 8 H 18.65 L 14.93,2.43 Z M 16.57,2.45 20.29,8 h 2.79 L 24.27,6.85 Z M 29.09,4.09 25.04,8 h 5.9 z M 10,10 V 37.99 H 38 V 10 Z m 1.54,1.98 h 6 c 1.66,0 2.93,0.46 3.82,1.38 0.74,0.77 1.12,1.81 1.12,3.1 v 0.11 c 0,1.09 -0.26,1.99 -0.78,2.69 -0.52,0.69 -1.19,1.2 -2.03,1.52 l 3.2,4.85 H 19.5 l -2.7,-4.21 h -2.38 v 4.18 h -2.88 z m 12.8,0 h 5.13 c 4.13,0 6.99,2.93 6.99,6.76 v 0.1 c 0,3.82 -2.86,6.8 -6.99,6.8 h -5.13 z m 5.13,2.64 -2.23,0.1 v 8.2 h 2.23 c 2.37,0 3.97,-1.65 3.97,-4.06 v -0.1 c 0,-2.41 -1.6,-4.1 -3.97,-4.1 z m -15.05,0.1 v 3.91 h 2.92 c 0.71,0 1.26,-0.18 1.63,-0.53 0.39,-0.35 0.58,-0.82 0.58,-1.4 0,-0.68 -0.2,-1.17 -0.6,-1.49 -0.4,-0.33 -0.96,-0.49 -1.67,-0.49 z M 40,15.88 v 8.04 l 1.6,3.36 4.4,-7.97 z m 0,11.26 V 39.99 H 27.5 l -2.12,1.66 7.9,4.14 12.72,-7.56 -0.62,0.3 z m -28.46,6.87 h 12 v 2 h -12 z"/>
    </g>
  </defs>
  <g id="acyl-visual">
    <use id="visible1" style="fill:url(#acyl-gradient)" xlink:href="#acyl-drawing"/>
  </g>
</svg>
