<svg xmlns="http://www.w3.org/2000/svg" xmlns:xlink="http://www.w3.org/1999/xlink" width="48" height="48">
  <defs id="acyl-settings">
    <linearGradient id="acyl-gradient" x1="0%" x2="0%" y1="0%" y2="100%">
      <stop offset="100%" style="stop-color:#A0A0A0;stop-opacity:1.000000"/>
    </linearGradient>
    <g id="acyl-filter">
      <filter id="filter"/>
    </g>
    <g id="acyl-drawing">
      <path d="m 9.563,45.91 c -0.308,-0 -0.52,-0.1 -0.473,-0.1 0.05,-0 -0.184,-0.1 -0.514,-0.16 C 5.467,45.02 2.899,42.45 2.327,39.44 2.269,39.13 2.196,38.89 2.166,38.91 2.061,38.98 2,37.35 2,34.47 c 0,-1.7 0.03,-2.91 0.08,-2.91 0.04,0 0.09,0 0.107,0.1 0.02,0 1.471,0.5 3.233,1 3.042,0.88 3.207,0.94 3.249,1.15 0.302,1.47 0.679,2.43 1.352,3.46 1.17,1.79 2.97,3.08 5.12,3.64 1.06,0.29 2.84,0.31 3.92,0.1 2.7,-0.59 5.03,-2.5 6.13,-4.99 0.38,-0.89 0.61,-1.77 0.7,-2.84 0.1,-0.51 0.1,-0.94 0.11,-0.95 0.74,-0.55 6.02,-4.35 6.16,-4.44 0.13,-0.1 0.52,-0.15 0.95,-0.18 2.55,-0.17 4.85,-1.21 6.66,-3.02 2.1,-2.09 3.14,-4.74 3.03,-7.68 C 42.62,12 39.26,8.044 34.47,7.066 33.48,6.865 31.82,6.825 30.87,6.979 26.07,7.75 22.46,11.69 22.13,16.52 l -0.1,0.82 -2.32,3.19 -2.3,3.2 -0.78,0.1 c -2.14,0.16 -4.01,1.02 -5.53,2.53 L 10.53,26.93 6.458,25.75 C 4.219,25.1 2.3,24.58 2.193,24.58 L 2,24.58 2,17.6 C 2,11.01 2.039,9.007 2.166,9.086 2.196,9.105 2.269,8.868 2.327,8.56 2.896,5.558 5.558,2.896 8.56,2.327 8.868,2.269 9.105,2.196 9.086,2.166 9,2.028 11.5,2 24,2 c 12.5,0 15,0.03 14.91,0.166 -0,0.03 0.22,0.103 0.53,0.161 3,0.569 5.67,3.231 6.23,6.233 0.1,0.308 0.13,0.545 0.17,0.526 C 45.97,9 46,11.5 46,24 c 0,12.5 -0,15 -0.16,14.91 -0,-0 -0.11,0.22 -0.17,0.53 -0.56,3 -3.23,5.67 -6.23,6.23 -0.31,0.1 -0.55,0.13 -0.53,0.17 0,0 -0.32,0.1 -0.75,0.11 -1.01,0.1 -27.86,0 -28.597,-0 z m 6.887,-7.82 c -1.62,-0.25 -3.03,-1.14 -3.92,-2.48 -0.41,-0.62 -0.58,-1.07 -0.38,-1 0.1,0 1.09,0.32 2.27,0.66 1.85,0.52 2.24,0.61 2.83,0.61 1.53,0 2.77,-0.92 3.27,-2.42 0.22,-0.69 0.15,-1.78 -0.17,-2.46 -0.31,-0.64 -0.97,-1.31 -1.59,-1.61 -0.26,-0.12 -1.45,-0.51 -2.64,-0.84 -1.2,-0.35 -2.17,-0.66 -2.17,-0.69 0,-0.1 1.3,-0.74 1.84,-0.9 0.38,-0.12 0.79,-0.16 1.51,-0.16 0.86,0 1.08,0 1.72,0.25 1.41,0.48 2.63,1.54 3.27,2.84 0.44,0.9 0.62,1.63 0.62,2.57 0,3.04 -2.33,5.5 -5.37,5.67 -0.35,0 -0.84,0 -1.09,-0 z M 31.62,24.17 c -3.6,-0.44 -6.33,-3.67 -6.13,-7.26 0.14,-2.6 1.59,-4.8 3.88,-5.93 1.01,-0.49 1.6,-0.64 2.76,-0.7 2.47,-0.13 4.74,1.01 6.13,3.05 0.81,1.21 1.16,2.36 1.16,3.88 0,1.92 -0.57,3.39 -1.87,4.78 -1.51,1.63 -3.74,2.45 -5.93,2.18 z m 2.13,-2.03 c 1.7,-0.43 3.11,-1.84 3.61,-3.59 0.18,-0.62 0.21,-1.8 0,-2.46 -0.44,-1.89 -2,-3.4 -3.93,-3.83 -2.04,-0.45 -4.29,0.55 -5.38,2.38 -0.74,1.25 -0.91,2.79 -0.46,4.17 0.51,1.58 1.83,2.84 3.45,3.31 0.67,0.2 1.95,0.2 2.66,0 z " id="path-main"/>
    </g>
  </defs>
  <g id="acyl-visual">
    <use id="visible1" style="fill:url(#acyl-gradient);filter:url(#filter)" xlink:href="#acyl-drawing"/>
  </g>
</svg>
