<svg xmlns="http://www.w3.org/2000/svg" xmlns:xlink="http://www.w3.org/1999/xlink" width="48" height="48">
  <defs id="acyl-settings">
    <linearGradient id="acyl-gradient" x1="0%" x2="0%" y1="0%" y2="100%">
      <stop offset="100%" style="stop-color:#A0A0A0;stop-opacity:1.000000"/>
    </linearGradient>
    <g id="acyl-filter">
  </g>
    <g id="acyl-drawing">
      <path d="M 19.632,45.5634 C 11.485,43.6766 5.645,38.4212 3.065,30.654 2.318,28.4058 2.043,27.5345 2.043,24.0216 c 0,-3.5128 0.275,-4.3841 1.022,-6.6323 1.17,-3.5214 2.894,-6.34 5.428,-8.87446 2.535,-2.5344 5.353,-4.2585 8.875,-5.4284 2.248,-0.747 3.119,-1.0864 6.632,-1.0864 3.513,0 4.384,0.3394 6.632,1.0864 3.521,1.1699 6.34,2.894 8.875,5.4284 2.534,2.53446 4.258,5.35306 5.428,8.87446 0.747,2.2482 1.022,3.1195 1.022,6.6323 0,3.5129 -0.275,4.3842 -1.022,6.6324 -3,9.0299 -10.704,14.9572 -20.126,15.3286 -2.06,0.081 -3.941,-0.1329 -5.177,-0.4192 z M 28.206,32.9759 C 31.857,31.114 32.16,25.857 28.73,23.877 27.997,23.4539 26.165,22.7796 24.659,22.3784 21.667,21.581 20.441,20.6955 20.441,19.3305 c 0,-1.9069 2.58,-3.111 5.468,-2.5525 1.418,0.2742 1.502,0.3528 1.793,1.6628 0.293,1.3235 0.351,1.375 1.536,1.375 l 1.232,0 0,-2.3944 0,-2.3941 -1.698,-0.4271 c -2.473,-0.6218 -5.936,-0.5589 -7.75,0.141 -2.88,1.1114 -4.282,3.7611 -3.509,6.632 0.45,1.6707 1.788,2.795 4.15,3.4861 4.3,1.2591 5.033,1.5351 5.611,2.1129 0.891,0.8907 0.792,2.5876 -0.205,3.5242 -0.972,0.9133 -3.78,1.2355 -5.867,0.6732 -1.26,-0.339 -1.348,-0.4415 -1.553,-1.8127 -0.188,-1.2491 -0.325,-1.4529 -0.981,-1.4529 -0.419,0 -0.999,-0.091 -1.288,-0.2019 -0.463,-0.1776 -0.514,0.1161 -0.43,2.485 0.09,2.6797 0.1,2.6875 1.065,2.956 3.885,1.078 7.877,1.0124 10.191,-0.1672 z" id="path-main"/>
    </g>
  </defs>
  <g id="acyl-visual">
    <use id="visible1" style="fill:url(#acyl-gradient)" xlink:href="#acyl-drawing"/>
  </g>
</svg>
