<svg xmlns="http://www.w3.org/2000/svg" xmlns:xlink="http://www.w3.org/1999/xlink" width="48" height="48">
  <defs id="acyl-settings">
    <linearGradient id="acyl-gradient" x1="0%" x2="0%" y1="0%" y2="100%">
      <stop offset="100%" style="stop-color:#A0A0A0;stop-opacity:1.000000"/>
    </linearGradient>
    <g id="acyl-filter">
  </g>
    <g id="acyl-drawing">
      <path d="M 21.8701,45.899 C 15.6111,45.301 9.7641,41.916 6.0901,36.763 0.517101,28.948 0.661101,18.428 6.4461,10.73 c 6.285,-8.36097 17.773,-11.114967 27.181,-6.51697 4.286,2.095 7.785,5.508 9.932,9.68897 3.198,6.226 3.248,13.697 0.131,19.898 -4.118,8.195 -12.725,12.967 -21.82,12.099 z m 7.78,-11.553 c 0.11,-0.08 0.254,-0.472 0.38,-1.037 0.318,-1.417 2.029,-9.538 3.082,-14.621 0.945,-4.561 0.952,-4.608 0.766,-4.858 -0.103,-0.139 -0.264,-0.268 -0.356,-0.286 -0.179,-0.04 -1.769,0.553 -9.121,3.375 -7.914,3.038 -13.239,5.118 -13.815,5.396 -0.568,0.275 -0.675,0.44 -0.566,0.876 0.06,0.252 0.299,0.354 4.153,1.802 l 1.715,0.645 0.277,0.851 c 0.152,0.469 0.649,2.036 1.103,3.483 0.454,1.447 0.897,2.711 0.984,2.808 0.323,0.362 0.637,0.224 2.056,-0.905 2.065,-1.643 2.217,-1.751 2.476,-1.751 0.151,0 1.308,0.766 3.115,2.061 1.58,1.134 2.96,2.111 3.066,2.173 0.256,0.149 0.47,0.145 0.685,-0.01 z m -11.224,-4.671 c -0.268,-0.642 -1.16,-3.922 -1.16,-4.267 0,-0.626 -0.12,-0.544 8.051,-5.53 2.998,-1.829 3.376,-2.043 3.461,-1.957 0.03,0.03 -0.03,0.155 -0.136,0.275 -0.159,0.18 -6.287,5.943 -8.358,7.862 -0.84,0.778 -0.949,1.005 -1.142,2.396 -0.09,0.668 -0.191,1.294 -0.22,1.391 -0.08,0.291 -0.341,0.202 -0.496,-0.17 z" id="path-main"/>
    </g>
  </defs>
  <g id="acyl-visual">
    <use id="visible1" style="fill:url(#acyl-gradient)" xlink:href="#acyl-drawing"/>
  </g>
</svg>
