<svg xmlns="http://www.w3.org/2000/svg" xmlns:xlink="http://www.w3.org/1999/xlink" width="48" height="48">
  <defs id="acyl-settings">
    <linearGradient id="acyl-gradient" x1="0%" x2="0%" y1="0%" y2="100%">
      <stop offset="100%" style="stop-color:#A0A0A0;stop-opacity:1.000000"/>
    </linearGradient>
    <g id="acyl-filter">
  </g>
    <g id="acyl-drawing">
      <path d="m 21.1287,45.8185 c -3.062,-0.5358 -4.682,-1.0654 -7.369,-2.4107 -2.777,-1.3903 -6.07396,-4.2814 -7.82896,-6.8664 -4.556,-6.7092 -5.190001,-14.9091 -1.7,-21.9903 3.34,-6.77522 8.72496,-10.75662 16.56096,-12.24262 2.677,-0.5076 3.731,-0.5076 6.407,0 2.935,0.5565 4.427,1.0689 7.075,2.4298 6.145,3.1586 10.42,9.23912 11.462,16.30382 0.381,2.5825 0.358,3.8583 -0.122,6.6099 -1.797,10.3019 -9.956,17.5127 -20.817,18.3974 -0.881,0.072 -2.532,-0.032 -3.668,-0.2309 z m 6.262,-4.8117 c 0.416,-0.1617 0.466,-0.8665 0.534,-7.5202 0.04,-4.0377 0.02,-7.3752 -0.06,-7.4166 -0.07,-0.041 -2.813,1.8263 -6.087,4.1501 -3.561,2.5279 -6.108,4.1656 -6.34,4.0767 -0.329,-0.1262 -0.387,-1.6708 -0.387,-10.2728 0,-8.8762 0.05,-10.1438 0.411,-10.2823 0.419,-0.1605 1.304,0.4135 8.532,5.5337 l 3.737,2.6474 0.07,-4.1367 0.07,-4.1366 2.663,0 2.663,0 0,12.4135 c 0,6.8275 0.08,12.4136 0.175,12.4136 0.509,0 3.196,-2.4189 4.261,-3.8359 2.534,-3.3712 3.603,-6.4513 3.624,-10.4464 0.02,-3.227 -0.492,-5.3618 -1.945,-8.1422 -5.191,-9.93482 -18.63,-12.41252 -26.857,-4.9515 -4.50996,4.0903 -6.69096,10.3614 -5.57496,16.0303 1.391,7.0618 7.11896,12.7547 14.09096,14.0022 1.476,0.264 5.617,0.1826 6.411,-0.1263 z" id="path-main"/>
    </g>
  </defs>
  <g id="acyl-visual">
    <use id="visible1" style="fill:url(#acyl-gradient)" xlink:href="#acyl-drawing"/>
  </g>
</svg>
