<svg xmlns="http://www.w3.org/2000/svg" xmlns:xlink="http://www.w3.org/1999/xlink" width="48" height="48">
  <defs id="acyl-settings">
    <linearGradient id="acyl-gradient" x1="0%" x2="0%" y1="0%" y2="100%">
      <stop offset="100%" style="stop-color:#A0A0A0;stop-opacity:1.000000"/>
    </linearGradient>
    <g id="acyl-filter">
  </g>
    <g id="acyl-drawing">
      <path d="M 2,28.264 2,10.9362 2.982,10.1636 C 3.63,9.65388 3.964,8.99978 3.964,8.24098 l 0,-1.15 6.09,0 c 5.937,0 6.089,-0.021 6.089,-0.8305 0,-0.4783 0.708,-1.4712 1.67,-2.3411 l 1.669,-1.5104 4.5181,0 4.5178,0 1.6697,1.5104 c 0.9617,0.8699 1.6696,1.8628 1.6696,2.3411 0,0.8097 0.1524,0.8305 6.0893,0.8305 l 6.0892,0 0,1.1695 c 0,0.814 0.2986,1.3652 0.9822,1.81312 L 46,10.7171 l 0,17.4369 0,17.437 -21.9999,0 L 2,45.591 2,28.264 Z m 17.445,8.418 c 0.345,-1.011 0.6265,-1.904 0.6265,-1.985 0,-0.08 -0.9055,-0.09 -2.0125,-0.03 -2.004,0.118 -2.015,0.126 -2.743,1.984 l -0.731,1.866 2.117,0 2.117,0 0.626,-1.837 z m 13.2836,-0.127 -0.6282,-1.964 -2.1285,0 c -2.0637,0 -2.121,0.03 -1.8861,0.965 0.7087,2.823 0.8568,2.963 3.1366,2.963 l 2.1343,0 -0.6281,-1.964 z m -0.1729,-3.361 c 1.0218,-0.716 1.1271,-1.828 0.2558,-2.7 -0.9464,-0.946 -16.4715,-0.917 -17.5215,0.03 -0.926,0.838 -0.908,1.517 0.07,2.493 0.733,0.732 1.31,0.785 8.5559,0.785 6.3965,0 7.9239,-0.108 8.6428,-0.611 z M 15.504,32.441 c -0.127,-0.33 -0.127,-0.87 0,-1.2 0.194,-0.507 1.102,-0.583 5.8365,-0.491 l 5.606,0.109 0,0.982 0,0.982 -5.606,0.109 c -4.7345,0.09 -5.6425,0.02 -5.8365,-0.491 z m 7.4323,-6.0019 0.9899,-2.6517 0.4711,1.1785 c 0.2593,0.6482 0.6906,1.7973 0.9585,2.5536 0.4624,1.3045 0.5921,1.3815 2.5124,1.4935 1.1137,0.07 2.0247,0.04 2.0247,-0.06 0,-0.1 -0.8572,-2.1854 -1.9053,-4.6366 l -1.9054,-4.4566 -2.0491,0 -2.0491,0 -1.122,2.5536 c -0.6176,1.4044 -1.487,3.4817 -1.933,4.616 l -0.81,2.0626 1.914,0 1.9136,0 0.9897,-2.6519 z M 16.143,9.64458 l 0,-1.375 -5.696,0 c -5.061,0 -5.697,0.073 -5.697,0.6566 0,0.3611 -0.292,0.9798 -0.65,1.37492 -0.627,0.6932 -0.427,0.7185 5.696,0.7185 l 6.347,0 0,-1.37502 z m 12.5714,0 0,-1.375 -4.7143,0 -4.7141,0 0,1.375 0,1.37502 4.7141,0 4.7143,0 0,-1.37502 z M 44.1339,10.3618 C 43.648,10.0226 43.25,9.41308 43.25,9.00738 c 0,-0.6879 -0.3854,-0.7378 -5.6964,-0.7378 l -5.6964,0 0,1.375 0,1.37502 6.5803,-0.02 c 6.0956,-0.019 6.5151,-0.066 5.6964,-0.6371 z M 28.7144,6.30528 c 0,-0.7421 -0.2617,-0.7857 -4.7143,-0.7857 -4.4521,0 -4.7141,0.044 -4.7141,0.7857 0,0.7421 0.262,0.7857 4.7141,0.7857 4.4526,0 4.7143,-0.044 4.7143,-0.7857 z" id="path-main"/>
    </g>
  </defs>
  <g id="acyl-visual">
    <use id="visible1" style="fill:url(#acyl-gradient)" xlink:href="#acyl-drawing"/>
  </g>
</svg>
