<svg xmlns="http://www.w3.org/2000/svg" xmlns:xlink="http://www.w3.org/1999/xlink" width="48" height="48">
  <defs id="acyl-settings">
    <linearGradient x1="0%" y1="0%" x2="0%" y2="100%" id="acyl-gradient">
      <stop offset="100%" style="stop-color:#A0A0A0;stop-opacity:1.000000"/>
    </linearGradient>
    <g id="acyl-filter">
  </g>
    <g id="acyl-drawing">
      <path d="m 36.505101,47.632655 c -1.143779,0.552111 -2.510433,0.318822 -3.407926,-0.582 1.10576,1.10986 2.996638,0.32371 2.996638,-1.245959 V 2.177589 c 0,-1.56967481 -1.890878,-2.35577744 -2.996638,-1.24584547 0.897493,-0.90082927 2.264147,-1.13426316 3.407926,-0.58213678 l 9.877293,4.76766275 c 1.03796,0.5009783 1.69797,1.5546492 1.69797,2.7106027 V 40.154638 c 0,1.155916 -0.66001,2.209569 -1.69797,2.710546 z M 4.8255508,11.558879 C 4.3155117,11.53817 3.8009558,11.712911 3.400392,12.078406 l -2.64144558,2.410753 c -0.87103084,0.794779 -0.8720682,2.169101 -0.002195,2.965159 L 32.458121,46.400602 c 0.784979,0.716757 2.809657,-0.01163 2.886532,-1.347833 V 34.345372 L 5.9518506,11.964954 C 5.6164155,11.709532 5.2222479,11.574983 4.8255508,11.558879 Z M 33.62283,1.1650337 C 33.22034,1.1543164 32.80776,1.2826343 32.458853,1.5810225 26.452201,6.9189774 20.566767,12.54292 14.791785,17.944106 l 7.44843,5.671105 13.104438,-9.978225 V 2.92959 c 0,-1.0438636 -0.836347,-1.740978 -1.721823,-1.7645563 z M 7.6619679,24.511441 c -2.3203593,2.091007 -4.6226954,4.111681 -6.90521628,6.016601 -0.86987338,0.796113 -0.86883609,2.170728 0.002195,2.965527 l 2.64144558,2.410017 c 0.7121134,0.649861 1.78475,0.697877 2.5514586,0.114185 l 7.8039872,-5.942067 z"  id="path-main" />
    </g>
  </defs>
  <g id="acyl-visual">
    <use id="visible1" style="fill:url(#acyl-gradient)" xlink:href="#acyl-drawing"/>
  </g>
</svg>
