<svg xmlns="http://www.w3.org/2000/svg" xmlns:xlink="http://www.w3.org/1999/xlink" width="48" height="48">
  <defs id="acyl-settings">
    <linearGradient x1="0%" y1="0%" x2="0%" y2="100%" id="acyl-gradient">
      <stop offset="100%" style="stop-color:#A0A0A0;stop-opacity:1.000000"/>
    </linearGradient>
    <g id="acyl-filter">
  </g>
    <g id="acyl-drawing">
      <path d="m 35.383891,45.727577 c -1.049002,0.507415 -2.302412,0.293012 -3.125535,-0.534883 1.014132,1.02001 2.748328,0.297504 2.748328,-1.145089 V 3.9523883 c 0,-1.4425997 -1.734196,-2.1650623 -2.748328,-1.1449864 0.823123,-0.8279014 2.076533,-1.0424374 3.125535,-0.5350092 L 44.442728,6.654083 C 45.39468,7.1145039 46,8.0828734 46,9.1452452 V 38.854955 c 0,1.062336 -0.60532,2.030689 -1.557272,2.491109 z M 6.3293874,12.574203 c -0.4677761,-0.01903 -0.9396946,0.141562 -1.3070667,0.477468 l -2.4225688,2.215587 c -0.798855,0.730437 -0.7998066,1.993498 -0.00201,2.72511 L 31.672255,44.595267 c 0.719934,0.658731 2.576842,-0.01068 2.647345,-1.238716 V 33.515985 L 7.362359,12.947403 c -0.30764,-0.234743 -0.6691459,-0.3584 -1.0329716,-0.3732 z M 32.740452,3.0218058 C 32.371314,3.011956 31.992921,3.1298859 31.672926,3.4041176 26.163999,8.3099312 20.766248,13.478579 15.469794,18.442506 L 22.30103,23.654499 34.3196,14.484073 V 4.64351 c 0,-0.9593562 -0.767044,-1.6000348 -1.579148,-1.6217042 z M 8.930772,24.478172 c -2.1280887,1.921727 -4.2396475,3.778815 -6.3330331,5.529519 -0.7977935,0.731663 -0.796842,1.994995 0.002,2.725449 l 2.4225689,2.214911 c 0.6531059,0.59725 1.6368611,0.64138 2.3400383,0.104942 l 7.1573399,-5.46102 z"  id="path-main" />
    </g>
  </defs>
  <g id="acyl-visual">
    <use id="visible1" style="fill:url(#acyl-gradient)" xlink:href="#acyl-drawing"/>
  </g>
</svg>
