<svg xmlns="http://www.w3.org/2000/svg" xmlns:xlink="http://www.w3.org/1999/xlink" width="48" height="48">
  <defs id="acyl-settings">
    <linearGradient id="acyl-gradient" x1="0%" x2="0%" y1="0%" y2="100%">
      <stop offset="100%" style="stop-color:#A0A0A0;stop-opacity:1.000000"/>
    </linearGradient>
    <g id="acyl-filter">
  </g>
    <g id="acyl-drawing">
      <path d="m 13.2265,45.1361 c -2.5966,-0.491 -3.94908,-3.226 -2.7563,-5.574 0.3977,-0.783 1.2352,-1.523 2.0469,-1.809 0.2966,-0.104 0.9826,-0.766 4.4572,-4.295 2.2588,-2.295 4.1158,-4.165 4.1268,-4.155 0.01,0 -0.738,2.633 -1.664,5.831 -1.154,3.983 -1.7036,6.007 -1.7461,6.426 -0.1366,1.35 -0.7196,2.329 -1.8193,3.057 -0.6548,0.433 -1.8548,0.669 -2.6452,0.519 z m 16.9446,-0.04 c -1.053,-0.202 -1.942,-0.754 -2.619,-1.624 -0.333,-0.428 -0.619,-1.293 -0.749,-2.266 -0.133,-0.991 -0.134,-0.947 0.09,-3.311 0.04,-0.383 0.358,-1.634 0.607,-2.367 0.09,-0.263 0.195,-0.586 0.234,-0.718 0.04,-0.131 0.13,-0.407 0.203,-0.612 0.126,-0.358 0.125,-0.392 -0.04,-0.821 -0.09,-0.245 -0.167,-0.537 -0.167,-0.648 0,-0.111 -0.06,-0.508 -0.134,-0.882 -0.127,-0.65 -0.126,-0.707 0.02,-1.286 0.126,-0.508 0.205,-0.659 0.49,-0.945 0.897,-0.897 1.764,-0.374 2.753,1.661 0.284,0.584 0.582,1.215 0.661,1.402 0.146,0.343 0.381,0.487 0.638,0.388 0.152,-0.06 0.151,-0.26 0,-0.699 -0.375,-1.052 -0.529,-3.288 -0.262,-3.777 0.287,-0.523 0.82,-0.838 1.422,-0.838 0.224,0 0.511,0.05 0.638,0.12 0.733,0.379 1.139,1.651 1.239,3.882 0.05,0.98 0.08,1.18 0.185,1.226 0.07,0.03 0.472,0.08 0.889,0.114 0.659,0.05 1.543,0.212 2.671,0.488 0.175,0.04 0.552,0.134 0.837,0.203 1.013,0.246 2.583,0.799 3.03,1.068 0.07,0.04 0.332,0.188 0.592,0.331 0.593,0.327 1.503,1.231 1.778,1.768 0.162,0.316 0.215,0.547 0.232,1.015 0.02,0.538 0,0.641 -0.184,0.917 -0.806,1.218 -2.857,2.584 -6.266,4.172 -0.385,0.179 -0.716,0.326 -0.736,0.326 -0.02,0 -0.225,0.09 -0.457,0.19 -0.569,0.258 -1.479,0.607 -1.584,0.607 -0.05,0 -0.313,0.09 -0.591,0.202 -0.278,0.111 -0.626,0.218 -0.775,0.237 -0.149,0.02 -0.4,0.09 -0.56,0.155 -0.841,0.352 -3.034,0.524 -4.087,0.322 z M 6.52732,37.4121 c -1.9445,-0.622 -3.0918,-2.658 -2.5881,-4.592 0.1808,-0.694 0.5576,-1.338 1.0678,-1.825 0.799,-0.762 1.7154,-1.105 2.8768,-1.077 0.6365,0.02 1.0269,-0.07 6.40698,-1.399 3.151,-0.778 5.7413,-1.402 5.7573,-1.387 0.02,0.02 -1.978,1.857 -4.4283,4.092 -2.451,2.235 -4.5072,4.172 -4.5702,4.304 -0.3797,0.794 -1.33888,1.587 -2.26508,1.873 -0.6576,0.203 -1.6419,0.208 -2.2572,0.01 z m 35.31678,-3.51 c -0.168,-0.136 -0.184,-0.207 -0.168,-0.748 0.01,-0.434 0.07,-0.72 0.217,-1.047 0.11,-0.248 0.199,-0.48 0.199,-0.515 0,-0.106 0.902,-1.714 1.055,-1.88 0.08,-0.09 0.142,-0.211 0.142,-0.28 0,-0.07 0.08,-0.215 0.183,-0.324 0.101,-0.109 0.289,-0.39 0.416,-0.625 0.441,-0.811 1.136,-1.447 1.58,-1.447 0.248,0 0.532,0.28 0.532,0.525 0,0.1 -0.112,0.44 -0.247,0.762 -0.136,0.323 -0.296,0.717 -0.356,0.876 -0.06,0.159 -0.212,0.5 -0.34,0.757 -0.129,0.258 -0.348,0.702 -0.489,0.987 -0.355,0.721 -0.74,1.423 -0.968,1.762 -0.105,0.158 -0.317,0.487 -0.471,0.731 -0.393,0.624 -0.874,0.799 -1.285,0.466 z m -2.166,-0.786 c -0.339,-0.375 -0.414,-1.379 -0.192,-2.572 0.07,-0.372 0.146,-0.857 0.172,-1.076 0.03,-0.219 0.08,-0.56 0.114,-0.758 0.04,-0.197 0.13,-0.699 0.205,-1.116 0.136,-0.756 0.436,-1.459 0.689,-1.619 0.202,-0.127 0.498,0 0.67,0.28 0.29,0.48 0.184,2.801 -0.215,4.688 -0.09,0.417 -0.195,0.935 -0.238,1.152 -0.04,0.217 -0.15,0.533 -0.236,0.701 -0.223,0.437 -0.715,0.6 -0.969,0.32 z M 5.57142,27.8601 c -0.6261,-0.09 -1.1296,-0.231 -1.5406,-0.448 -1.3034,-0.688 -2.1603,-2.26 -2.0149,-3.697 0.1834,-1.812 1.4817,-3.194 3.2624,-3.47 0.9901,-0.154 2.1855,0.158 2.8935,0.756 0.1364,0.115 0.3338,0.242 0.4386,0.282 0.1047,0.04 2.64838,0.816 5.65268,1.725 3.0042,0.91 5.508,1.679 5.565,1.709 0.06,0.03 -2.5635,0.604 -5.8215,1.275 -4.17068,0.859 -6.03168,1.275 -6.28928,1.405 -0.6306,0.319 -1.624,0.533 -2.1459,0.463 z m 23.85868,-5.095 c 0.09,-0.09 6.201,-4.649 8.25,-6.16 0.711,-0.524 0.939,-0.742 1.128,-1.078 0.457,-0.809 1.408,-1.515 2.383,-1.769 1.95,-0.508 4.097,0.756 4.606,2.713 0.449,1.722 -0.359,3.61 -1.874,4.385 -0.727,0.371 -1.231,0.465 -2.228,0.413 -0.871,-0.04 -1.212,0 -6.643,0.773 -3.544,0.508 -5.686,0.783 -5.622,0.723 z m -8.794,-0.387 c -0.02,-0.02 -2.563,-0.839 -5.6554,-1.823 -4.1875,-1.333 -5.76528,-1.803 -6.18488,-1.84 -0.6717,-0.06 -1.3618,-0.285 -1.8624,-0.606 -1.3489,-0.867 -2.0323,-2.582 -1.6386,-4.114 0.4933,-1.92 2.2601,-3.142 4.1913,-2.901 1.50838,0.189 2.68268,1.167 3.21238,2.676 0.078,0.222 1.8474,2.108 7.3356,7.821 0.434,0.451 0.753,0.82 0.711,0.82 -0.04,0 -0.09,-0.02 -0.109,-0.03 z m 6.545,-1.267 c 0,-0.02 1.023,-2.466 2.273,-5.439 1.538,-3.66 2.273,-5.498 2.274,-5.69303 0,-0.474 0.211,-1.318 0.439,-1.766 0.259,-0.512 0.876,-1.179 1.403,-1.517 1.145,-0.735 2.835,-0.744 4.003,-0.02 0.708,0.438 1.347,1.208 1.613,1.945 0.668,1.85303 -0.192,3.97803 -1.934,4.77903 -0.298,0.137 -0.609,0.286 -0.691,0.331 -0.08,0.05 -2.182,1.706 -4.669,3.69 -4.486,3.58 -4.711,3.756 -4.711,3.692 z m -8.552,-4.782 c -3.2472,-4.132 -3.4187,-4.335 -3.8594,-4.562 -0.6809,-0.352 -1.3287,-1.025 -1.6616,-1.728 -1.2232,-2.58003 0.6159,-5.49403 3.4643,-5.48903 1.8177,0 3.4147,1.353 3.7587,3.176 0.08,0.399 0.07,0.669 0,1.276 l -0.102,0.771 0.919,5.42203 c 0.505,2.982 0.911,5.43 0.902,5.44 0,0.01 -1.545,-1.928 -3.415,-4.306 z m 5.92,4.084 c 0,-0.06 -0.354,-2.699 -0.787,-5.857 -0.718,-5.23503 -0.806,-5.77303 -0.993,-6.10003 -0.817,-1.432 -0.489,-3.431 0.752,-4.58 1.524,-1.41 3.772,-1.412 5.248,0 1.46,1.392 1.613,3.647 0.353,5.201 -0.216,0.265 -0.715,1.50003 -2.354,5.82103 -1.144,3.016 -2.112,5.518 -2.15,5.56 -0.04,0.05 -0.07,0.03 -0.07,-0.04 z" id="path-main"/>
    </g>
  </defs>
  <g id="acyl-visual">
    <use id="visible1" style="fill:url(#acyl-gradient)" xlink:href="#acyl-drawing"/>
  </g>
</svg>
