<svg xmlns="http://www.w3.org/2000/svg" xmlns:xlink="http://www.w3.org/1999/xlink" width="48" height="48">
  <defs id="acyl-settings">
    <linearGradient id="acyl-gradient" x1="0%" x2="0%" y1="0%" y2="100%">
      <stop offset="100%" style="stop-color:#A0A0A0;stop-opacity:1.000000"/>
    </linearGradient>
    <g id="acyl-filter">
  </g>
    <g id="acyl-drawing">
      <path d="M 36.1 3 A 7.999 7.999 0 0 0 28.1 11 A 7.999 7.999 0 0 0 36.1 19 A 7.999 7.999 0 0 0 44.1 11 A 7.999 7.999 0 0 0 36.1 3 z M 36.38 5.49 C 39.5 5.49 41.6 7.423 41.6 10.39 C 41.6 12.47 40.56 13.89 38.99 13.89 C 38.3 13.89 37.72 13.6 37.38 13.1 C 36.88 13.56 36.25 13.84 35.57 13.84 C 34.23 13.84 33.31 12.81 33.31 11.29 C 33.31 9.507 34.55 8.25 36.04 8.25 C 36.66 8.25 37.14 8.469 37.44 8.859 L 37.59 8.41 L 38.79 8.41 L 38.54 12.08 C 38.54 12.52 38.8 12.79 39.15 12.79 C 39.81 12.79 40.26 11.9 40.26 10.67 C 40.26 8.29 38.69 6.711 36.27 6.711 C 33.66 6.711 31.93 8.517 31.93 11.11 C 31.93 13.65 33.59 15.34 36.04 15.34 C 36.78 15.34 37.53 15.19 38.13 14.9 L 38.48 15.96 C 37.73 16.31 36.86 16.51 35.9 16.51 C 32.78 16.51 30.6 14.43 30.6 11.18 C 30.6 7.81 32.93 5.49 36.38 5.49 z M 4.092 8.666 L 24 28.58 L 32.29 20.28 A 9.999 9.999 0 0 1 26 11 A 9.999 9.999 0 0 1 26.29 8.666 L 4.092 8.666 z M 36.09 9.439 C 35.39 9.439 34.94 10.15 34.94 11.13 C 34.94 12.06 35.36 12.64 36 12.64 C 36.38 12.64 36.81 12.41 37.07 12.06 L 37.19 10.28 C 37.01 9.767 36.56 9.439 36.09 9.439 z M 2 10.76 L 2 35.91 L 14.58 23.33 L 2 10.76 z M 46 10.76 L 45.99 10.77 A 9.999 9.999 0 0 1 46 11 L 46 10.76 z M 46 11 A 9.999 9.999 0 0 1 36 21 A 9.999 9.999 0 0 1 35.77 20.99 L 33.42 23.33 L 36 25.91 A 9.999 9.999 0 0 1 46 35.91 L 46 11 z M 16.67 25.42 L 4.092 38 L 26.23 38 A 9.999 9.999 0 0 1 26 35.91 A 9.999 9.999 0 0 1 32.47 26.56 L 31.33 25.42 L 24 32.76 L 16.67 25.42 z M 36.11 28.1 A 7.995 7.995 0 0 0 28.11 36.1 A 7.995 7.995 0 0 0 36.11 44.1 A 7.995 7.995 0 0 0 44.1 36.1 A 7.995 7.995 0 0 0 36.11 28.1 z M 40.12 32.32 L 42.07 33.88 L 36.07 41.36 L 30.6 35.99 L 32.36 34.21 L 35.85 37.64 L 40.12 32.32 z" id="path-main"/>
    </g>
  </defs>
  <g id="acyl-visual">
    <use id="visible1" style="fill:url(#acyl-gradient)" xlink:href="#acyl-drawing"/>
  </g>
</svg>
